STARTFONT 2.1
COMMENT 
COMMENT $Id: cu12.bdf,v 1.11 1999/04/22 18:39:52 mleisher Exp $
COMMENT 
COMMENT Copyright 1997, 1998, 1999 Computing Research Labs, New Mexico State
COMMENT University
COMMENT 
COMMENT Permission is hereby granted, free of charge, to any person
COMMENT obtaining a copy of this software and associated documentation
COMMENT files (the "Software"), to deal in the Software without
COMMENT restriction, including without limitation the rights to use,
COMMENT copy, modify, merge, publish, distribute, sublicense, and/or
COMMENT sell copies of the Software, and to permit persons to whom the
COMMENT Software is furnished to do so, subject to the following
COMMENT conditions:
COMMENT 
COMMENT The above copyright notice and this permission notice shall be
COMMENT included in all copies or substantial portions of the Software.
COMMENT 
COMMENT THE SOFTWARE IS PROVIDED "AS IS", WITHOUT WARRANTY OF ANY KIND,
COMMENT EXPRESS OR IMPLIED, INCLUDING BUT NOT LIMITED TO THE WARRANTIES
COMMENT OF MERCHANTABILITY, FITNESS FOR A PARTICULAR PURPOSE AND
COMMENT NONINFRINGEMENT.  IN NO EVENT SHALL THE COMPUTING RESEARCH LAB
COMMENT OR NEW MEXICO STATE UNIVERSITY BE LIABLE FOR ANY CLAIM, DAMAGES
COMMENT OR OTHER LIABILITY, WHETHER IN AN ACTION OF CONTRACT, TORT OR
COMMENT OTHERWISE, ARISING FROM, OUT OF OR IN CONNECTION WITH THE
COMMENT SOFTWARE OR THE USE OR OTHER DEALINGS IN THE SOFTWARE.
COMMENT
COMMENT Symbian comments:
COMMENT Supplied by Symbian for testing EPOC components.
COMMENT Includes Latin, Latin Extended, Latin Extended Additional,
COMMENT Greek, Greek Extended, Cyrillic, Armenian, Hebrew, Arabic, Arabic Presentation Forms
COMMENT (all essential and some others), Thai, Georgian, Ethiopic, and many symbols
COMMENT and punctuation marks.
COMMENT TO BUILD EPOC GDR FONT: fnttran clearlyu.bdf clearlyu.gd clearlyu.gdr
COMMENT 
COMMENT FONT -MUTT-ClearlyU-Medium-R-Normal--17-120-100-100-P-101-ISO10646-1
FONT clearlyu
SIZE 12 100 100
FONTBOUNDINGBOX 25 29 -4 -9

STARTCHAR 0x0020
ENCODING 32
SWIDTH 300 0
DWIDTH 5 0
BBX 0 0 0 0
BITMAP
ENDCHAR
STARTCHAR 0x0021
ENCODING 33
SWIDTH 300 0
DWIDTH 5 0
BBX 2 12 1 0
BITMAP
C0
C0
C0
C0
C0
C0
C0
00
00
00
C0
C0
ENDCHAR
STARTCHAR 0x0022
ENCODING 34
SWIDTH 480 0
DWIDTH 8 0
BBX 5 5 1 7
BITMAP
D8
D8
48
48
90
ENDCHAR
STARTCHAR 0x0023
ENCODING 35
SWIDTH 720 0
DWIDTH 12 0
BBX 10 15 1 -3
BITMAP
0480
0480
0900
0900
0900
FFC0
1200
1200
1200
FFC0
2400
2400
2400
4800
4800
ENDCHAR
STARTCHAR 0x0024
ENCODING 36
SWIDTH 480 0
DWIDTH 8 0
BBX 5 14 1 -1
BITMAP
20
70
A8
A8
A8
A0
60
30
28
A8
A8
A8
70
20
ENDCHAR
STARTCHAR 0x0025
ENCODING 37
SWIDTH 840 0
DWIDTH 14 0
BBX 11 13 1 -1
BITMAP
6040
9880
9780
9100
9200
6200
0400
08C0
0920
1120
2120
2120
40C0
ENDCHAR
STARTCHAR 0x0026
ENCODING 38
SWIDTH 780 0
DWIDTH 13 0
BBX 10 12 1 0
BITMAP
1800
2400
2400
2400
2800
33C0
3100
5100
8A00
8A00
C440
7B80
ENDCHAR
STARTCHAR 0x0027
ENCODING 39
SWIDTH 300 0
DWIDTH 5 0
BBX 2 5 1 7
BITMAP
C0
C0
40
40
80
ENDCHAR
STARTCHAR 0x0028
ENCODING 40
SWIDTH 360 0
DWIDTH 6 0
BBX 4 15 2 -3
BITMAP
10
20
40
40
80
80
80
80
80
80
80
40
40
20
10
ENDCHAR
STARTCHAR 0x0029
ENCODING 41
SWIDTH 360 0
DWIDTH 6 0
BBX 4 15 1 -3
BITMAP
80
40
20
20
10
10
10
10
10
10
10
20
20
40
80
ENDCHAR
STARTCHAR 0x002A
ENCODING 42
SWIDTH 420 0
DWIDTH 7 0
BBX 7 7 0 5
BITMAP
10
92
54
38
54
92
10
ENDCHAR
STARTCHAR 0x002B
ENCODING 43
SWIDTH 660 0
DWIDTH 11 0
BBX 9 11 2 -1
BITMAP
0800
0800
0800
0800
0800
FF80
0800
0800
0800
0800
0800
ENDCHAR
STARTCHAR 0x002C
ENCODING 44
SWIDTH 300 0
DWIDTH 5 0
BBX 2 5 1 -3
BITMAP
C0
C0
40
40
80
ENDCHAR
STARTCHAR 0x002D
ENCODING 45
SWIDTH 420 0
DWIDTH 7 0
BBX 4 1 2 3
BITMAP
F0
ENDCHAR
STARTCHAR 0x002E
ENCODING 46
SWIDTH 300 0
DWIDTH 5 0
BBX 2 2 1 0
BITMAP
C0
C0
ENDCHAR
STARTCHAR 0x002F
ENCODING 47
SWIDTH 480 0
DWIDTH 8 0
BBX 5 16 2 -4
BITMAP
08
08
10
10
10
10
20
20
20
20
40
40
40
40
80
80
ENDCHAR
STARTCHAR 0x0030
ENCODING 48
SWIDTH 420 0
DWIDTH 7 0
BBX 5 11 1 0
BITMAP
70
50
88
88
88
88
88
88
88
50
70
ENDCHAR
STARTCHAR 0x0031
ENCODING 49
SWIDTH 420 0
DWIDTH 7 0
BBX 5 11 1 0
BITMAP
20
E0
20
20
20
20
20
20
20
20
F8
ENDCHAR
STARTCHAR 0x0032
ENCODING 50
SWIDTH 420 0
DWIDTH 7 0
BBX 5 11 1 0
BITMAP
70
88
88
88
08
10
10
20
48
48
F8
ENDCHAR
STARTCHAR 0x0033
ENCODING 51
SWIDTH 420 0
DWIDTH 7 0
BBX 5 11 1 0
BITMAP
70
88
88
08
08
30
08
08
88
88
70
ENDCHAR
STARTCHAR 0x0034
ENCODING 52
SWIDTH 540 0
DWIDTH 9 0
BBX 7 11 1 0
BITMAP
18
18
28
28
48
C8
FE
08
08
08
3E
ENDCHAR
STARTCHAR 0x0035
ENCODING 53
SWIDTH 420 0
DWIDTH 7 0
BBX 5 11 1 0
BITMAP
88
F0
80
80
F0
C8
08
08
88
90
60
ENDCHAR
STARTCHAR 0x0036
ENCODING 54
SWIDTH 420 0
DWIDTH 7 0
BBX 5 11 1 0
BITMAP
30
48
40
80
F0
88
88
88
88
50
70
ENDCHAR
STARTCHAR 0x0037
ENCODING 55
SWIDTH 480 0
DWIDTH 8 0
BBX 6 12 1 0
BITMAP
80
FC
84
88
10
10
10
20
20
20
20
20
ENDCHAR
STARTCHAR 0x0038
ENCODING 56
SWIDTH 420 0
DWIDTH 7 0
BBX 5 11 1 0
BITMAP
70
88
88
88
50
70
88
88
88
88
70
ENDCHAR
STARTCHAR 0x0039
ENCODING 57
SWIDTH 420 0
DWIDTH 7 0
BBX 5 11 1 0
BITMAP
70
50
88
88
88
88
78
08
10
90
60
ENDCHAR
STARTCHAR 0x003A
ENCODING 58
SWIDTH 300 0
DWIDTH 5 0
BBX 2 7 3 0
BITMAP
C0
C0
00
00
00
C0
C0
ENDCHAR
STARTCHAR 0x003B
ENCODING 59
SWIDTH 300 0
DWIDTH 5 0
BBX 2 10 1 -3
BITMAP
C0
C0
00
00
00
C0
C0
40
40
80
ENDCHAR
STARTCHAR 0x003C
ENCODING 60
SWIDTH 360 0
DWIDTH 6 0
BBX 5 9 1 1
BITMAP
08
10
20
40
80
40
20
10
08
ENDCHAR
STARTCHAR 0x003D
ENCODING 61
SWIDTH 780 0
DWIDTH 13 0
BBX 10 5 2 2
BITMAP
FFC0
0000
0000
0000
FFC0
ENDCHAR
STARTCHAR 0x003E
ENCODING 62
SWIDTH 360 0
DWIDTH 6 0
BBX 5 9 1 1
BITMAP
80
40
20
10
08
10
20
40
80
ENDCHAR
STARTCHAR 0x003F
ENCODING 63
SWIDTH 480 0
DWIDTH 8 0
BBX 5 12 1 0
BITMAP
70
88
88
10
20
20
60
00
00
00
60
60
ENDCHAR
STARTCHAR 0x0040
ENCODING 64
SWIDTH 720 0
DWIDTH 12 0
BBX 10 12 1 0
BITMAP
1E00
2100
4C80
9340
A140
A140
A140
A140
9340
4D80
20C0
1F00
ENDCHAR
STARTCHAR C065
ENCODING 65
SWIDTH 660 0
DWIDTH 11 0
BBX 11 11 0 0
BITMAP
0400
0400
0A00
0A00
0A00
1100
1100
1F00
2080
2080
F1E0
ENDCHAR
STARTCHAR C066
ENCODING 66
SWIDTH 600 0
DWIDTH 10 0
BBX 10 11 0 0
BITMAP
FF00
2080
2040
2040
2080
3F00
2080
2040
2040
2080
FF00
ENDCHAR
STARTCHAR C067
ENCODING 67
SWIDTH 600 0
DWIDTH 10 0
BBX 9 11 1 0
BITMAP
1E80
2180
4080
8080
8000
8000
8000
8080
4080
2100
1E00
ENDCHAR
STARTCHAR C068
ENCODING 68
SWIDTH 600 0
DWIDTH 10 0
BBX 10 11 0 0
BITMAP
FE00
2180
2080
2040
2040
2040
2040
2040
2080
2180
FE00
ENDCHAR
STARTCHAR C069
ENCODING 69
SWIDTH 600 0
DWIDTH 10 0
BBX 10 11 1 0
BITMAP
FF80
2080
2080
2280
2200
3E00
2240
2240
2080
2080
FF80
ENDCHAR
STARTCHAR C070
ENCODING 70
SWIDTH 540 0
DWIDTH 9 0
BBX 9 11 1 0
BITMAP
FF80
2080
2080
2280
2200
3E00
2200
2200
2000
2000
F800
ENDCHAR
STARTCHAR C071
ENCODING 71
SWIDTH 600 0
DWIDTH 10 0
BBX 10 11 1 0
BITMAP
1E80
2180
4080
8080
8000
8000
83C0
8080
4080
2080
1F80
ENDCHAR
STARTCHAR C072
ENCODING 72
SWIDTH 660 0
DWIDTH 11 0
BBX 11 11 1 0
BITMAP
FBE0
2080
2080
2080
2080
3F80
2080
2080
2080
2080
FBE0
ENDCHAR
STARTCHAR C073
ENCODING 73
SWIDTH 300 0
DWIDTH 5 0
BBX 5 11 1 0
BITMAP
F8
20
20
20
20
20
20
20
20
20
F8
ENDCHAR
STARTCHAR C074
ENCODING 74
SWIDTH 360 0
DWIDTH 6 0
BBX 6 11 1 0
BITMAP
7C
10
10
10
10
10
10
10
10
90
E0
ENDCHAR
STARTCHAR C075
ENCODING 75
SWIDTH 660 0
DWIDTH 11 0
BBX 11 11 1 0
BITMAP
F9E0
2080
2100
2200
2400
2E00
3200
2100
2100
2080
F9E0
ENDCHAR
STARTCHAR C076
ENCODING 76
SWIDTH 480 0
DWIDTH 8 0
BBX 8 11 0 0
BITMAP
F8
20
20
20
20
20
21
21
21
23
FF
ENDCHAR
STARTCHAR C077
ENCODING 77
SWIDTH 840 0
DWIDTH 14 0
BBX 14 11 1 0
BITMAP
F03C
3030
3030
2850
2850
2890
2490
2490
2310
2310
FB7C
ENDCHAR
STARTCHAR C078
ENCODING 78
SWIDTH 660 0
DWIDTH 11 0
BBX 11 11 1 0
BITMAP
E3E0
3080
3080
2880
2880
2480
2280
2280
2180
2180
F880
ENDCHAR
STARTCHAR C079
ENCODING 79
SWIDTH 600 0
DWIDTH 10 0
BBX 10 11 1 0
BITMAP
1E00
2100
4080
8040
8040
8040
8040
8040
4080
2100
1E00
ENDCHAR
STARTCHAR C080
ENCODING 80
SWIDTH 540 0
DWIDTH 9 0
BBX 9 11 1 0
BITMAP
FF00
2180
2080
2080
2180
3F00
2000
2000
2000
2000
F800
ENDCHAR
STARTCHAR C081
ENCODING 81
SWIDTH 600 0
DWIDTH 10 0
BBX 10 14 1 -3
BITMAP
1E00
2100
4080
8040
8040
8040
8040
8040
5C80
3300
1E00
0200
0240
0180
ENDCHAR
STARTCHAR C082
ENCODING 82
SWIDTH 660 0
DWIDTH 11 0
BBX 11 11 1 0
BITMAP
FE00
2100
2080
2080
2100
3E00
2300
2100
2100
2100
F8E0
ENDCHAR
STARTCHAR C083
ENCODING 83
SWIDTH 420 0
DWIDTH 7 0
BBX 6 11 1 0
BITMAP
7C
84
84
80
40
30
08
04
84
84
F8
ENDCHAR
STARTCHAR C084
ENCODING 84
SWIDTH 540 0
DWIDTH 9 0
BBX 9 11 1 0
BITMAP
FF80
8880
8880
8880
0800
0800
0800
0800
0800
0800
3E00
ENDCHAR
STARTCHAR C085
ENCODING 85
SWIDTH 660 0
DWIDTH 11 0
BBX 11 11 1 0
BITMAP
FBE0
2080
2080
2080
2080
2080
2080
2080
2080
1100
0E00
ENDCHAR
STARTCHAR C086
ENCODING 86
SWIDTH 660 0
DWIDTH 11 0
BBX 11 11 1 0
BITMAP
F1E0
2080
2080
1100
1100
1100
0A00
0A00
0A00
0400
0400
ENDCHAR
STARTCHAR C087
ENCODING 87
SWIDTH 960 0
DWIDTH 16 0
BBX 16 11 1 0
BITMAP
F1CF
2184
2184
2244
1248
1248
1248
1428
0C30
0C30
0810
ENDCHAR
STARTCHAR C088
ENCODING 88
SWIDTH 660 0
DWIDTH 11 0
BBX 11 11 1 0
BITMAP
F3C0
1100
1200
0A00
0C00
0400
0A00
1A00
1100
2080
F1E0
ENDCHAR
STARTCHAR C089
ENCODING 89
SWIDTH 660 0
DWIDTH 11 0
BBX 11 11 1 0
BITMAP
F1E0
2080
1100
1100
0A00
0E00
0400
0400
0400
0400
1F00
ENDCHAR
STARTCHAR C090
ENCODING 90
SWIDTH 420 0
DWIDTH 7 0
BBX 7 11 1 0
BITMAP
FE
C4
84
88
08
10
22
22
42
46
FE
ENDCHAR
STARTCHAR 0x005B
ENCODING 91
SWIDTH 300 0
DWIDTH 5 0
BBX 3 16 1 -4
BITMAP
E0
80
80
80
80
80
80
80
80
80
80
80
80
80
80
E0
ENDCHAR
STARTCHAR 0x005C
ENCODING 92
SWIDTH 480 0
DWIDTH 8 0
BBX 5 16 2 -4
BITMAP
80
80
40
40
40
40
20
20
20
20
10
10
10
10
08
08
ENDCHAR
STARTCHAR 0x005D
ENCODING 93
SWIDTH 300 0
DWIDTH 5 0
BBX 3 16 0 -4
BITMAP
E0
20
20
20
20
20
20
20
20
20
20
20
20
20
20
E0
ENDCHAR
STARTCHAR 0x005E
ENCODING 94
SWIDTH 360 0
DWIDTH 6 0
BBX 5 3 1 9
BITMAP
20
70
88
ENDCHAR
STARTCHAR 0x005F
ENCODING 95
SWIDTH 720 0
DWIDTH 12 0
BBX 11 1 1 -2
BITMAP
FFE0
ENDCHAR
STARTCHAR 0x0060
ENCODING 96
SWIDTH 300 0
DWIDTH 5 0
BBX 2 5 1 7
BITMAP
40
80
80
C0
C0
ENDCHAR
STARTCHAR 0x0061
ENCODING 97
SWIDTH 420 0
DWIDTH 7 0
BBX 6 7 1 0
BITMAP
70
88
08
78
88
88
7C
ENDCHAR
STARTCHAR 0x0062
ENCODING 98
SWIDTH 420 0
DWIDTH 7 0
BBX 6 12 1 0
BITMAP
C0
40
40
40
40
78
44
44
44
44
44
78
ENDCHAR
STARTCHAR 0x0063
ENCODING 99
SWIDTH 360 0
DWIDTH 6 0
BBX 5 7 1 0
BITMAP
70
88
80
80
80
88
70
ENDCHAR
STARTCHAR 0x0064
ENCODING 100
SWIDTH 420 0
DWIDTH 7 0
BBX 6 12 1 0
BITMAP
18
08
08
08
08
78
88
88
88
88
88
7C
ENDCHAR
STARTCHAR 0x0065
ENCODING 101
SWIDTH 360 0
DWIDTH 6 0
BBX 5 7 1 0
BITMAP
70
88
F8
80
80
88
70
ENDCHAR
STARTCHAR 0x0066
ENCODING 102
SWIDTH 360 0
DWIDTH 6 0
BBX 5 12 1 0
BITMAP
38
48
40
40
40
F0
40
40
40
40
40
E0
ENDCHAR
STARTCHAR 0x0067
ENCODING 103
SWIDTH 480 0
DWIDTH 8 0
BBX 7 11 1 -4
BITMAP
3E
44
44
44
78
40
7C
82
82
82
7C
ENDCHAR
STARTCHAR 0x0068
ENCODING 104
SWIDTH 480 0
DWIDTH 8 0
BBX 7 12 1 0
BITMAP
C0
40
40
40
40
78
44
44
44
44
44
EE
ENDCHAR
STARTCHAR 0x0069
ENCODING 105
SWIDTH 240 0
DWIDTH 4 0
BBX 3 11 1 0
BITMAP
C0
C0
00
00
C0
40
40
40
40
40
E0
ENDCHAR
STARTCHAR 0x006A
ENCODING 106
SWIDTH 300 0
DWIDTH 5 0
BBX 4 14 0 -3
BITMAP
30
30
00
00
30
10
10
10
10
10
10
10
90
E0
ENDCHAR
STARTCHAR 0x006B
ENCODING 107
SWIDTH 480 0
DWIDTH 8 0
BBX 7 12 1 0
BITMAP
C0
40
40
40
40
5E
48
50
70
58
48
EE
ENDCHAR
STARTCHAR 0x006C
ENCODING 108
SWIDTH 240 0
DWIDTH 4 0
BBX 3 12 1 0
BITMAP
C0
40
40
40
40
40
40
40
40
40
40
E0
ENDCHAR
STARTCHAR 0x006D
ENCODING 109
SWIDTH 720 0
DWIDTH 12 0
BBX 11 7 1 0
BITMAP
FB80
4440
4440
4440
4440
4440
EEE0
ENDCHAR
STARTCHAR 0x006E
ENCODING 110
SWIDTH 480 0
DWIDTH 8 0
BBX 7 7 1 0
BITMAP
F8
44
44
44
44
44
EE
ENDCHAR
STARTCHAR 0x006F
ENCODING 111
SWIDTH 360 0
DWIDTH 6 0
BBX 5 7 1 0
BITMAP
70
88
88
88
88
88
70
ENDCHAR
STARTCHAR 0x0070
ENCODING 112
SWIDTH 420 0
DWIDTH 7 0
BBX 6 10 1 -3
BITMAP
F8
44
44
44
44
44
78
40
40
E0
ENDCHAR
STARTCHAR 0x0071
ENCODING 113
SWIDTH 420 0
DWIDTH 7 0
BBX 6 10 1 -3
BITMAP
78
88
88
88
88
88
78
08
08
1C
ENDCHAR
STARTCHAR 0x0072
ENCODING 114
SWIDTH 360 0
DWIDTH 6 0
BBX 5 7 1 0
BITMAP
D0
68
40
40
40
40
F0
ENDCHAR
STARTCHAR 0x0073
ENCODING 115
SWIDTH 360 0
DWIDTH 6 0
BBX 5 7 1 0
BITMAP
78
88
80
70
08
88
F0
ENDCHAR
STARTCHAR 0x0074
ENCODING 116
SWIDTH 420 0
DWIDTH 7 0
BBX 6 10 1 0
BITMAP
20
20
20
F8
20
20
20
24
24
18
ENDCHAR
STARTCHAR 0x0075
ENCODING 117
SWIDTH 480 0
DWIDTH 8 0
BBX 7 7 1 0
BITMAP
CC
44
44
44
44
44
3E
ENDCHAR
STARTCHAR 0x0076
ENCODING 118
SWIDTH 540 0
DWIDTH 9 0
BBX 8 7 1 0
BITMAP
E7
24
24
24
18
18
18
ENDCHAR
STARTCHAR 0x0077
ENCODING 119
SWIDTH 660 0
DWIDTH 11 0
BBX 11 7 0 0
BITMAP
EEE0
2480
2A80
2A80
2A80
1100
1100
ENDCHAR
STARTCHAR 0x0078
ENCODING 120
SWIDTH 540 0
DWIDTH 9 0
BBX 8 7 1 0
BITMAP
E7
24
18
18
18
24
E7
ENDCHAR
STARTCHAR 0x0079
ENCODING 121
SWIDTH 480 0
DWIDTH 8 0
BBX 8 10 1 -3
BITMAP
E7
24
24
24
18
18
18
10
90
E0
ENDCHAR
STARTCHAR 0x007A
ENCODING 122
SWIDTH 360 0
DWIDTH 6 0
BBX 5 7 1 0
BITMAP
F8
90
90
20
48
48
F8
ENDCHAR
STARTCHAR 0x007B
ENCODING 123
SWIDTH 360 0
DWIDTH 6 0
BBX 5 16 1 -4
BITMAP
18
20
20
20
20
20
20
C0
20
20
20
20
20
20
20
18
ENDCHAR
STARTCHAR 0x007C
ENCODING 124
SWIDTH 180 0
DWIDTH 3 0
BBX 1 16 2 -4
BITMAP
80
80
80
80
80
80
80
80
80
80
80
80
80
80
80
80
ENDCHAR
STARTCHAR 0x007D
ENCODING 125
SWIDTH 300 0
DWIDTH 5 0
BBX 5 16 0 -4
BITMAP
C0
20
20
20
20
20
20
18
20
20
20
20
20
20
20
C0
ENDCHAR
STARTCHAR 0x007E
ENCODING 126
SWIDTH 480 0
DWIDTH 8 0
BBX 5 3 1 9
BITMAP
48
A8
90
ENDCHAR
STARTCHAR 0x00A0
ENCODING 160
SWIDTH 300 0
DWIDTH 5 0
BBX 0 0 0 0
BITMAP
ENDCHAR
STARTCHAR 0x00A1
ENCODING 161
SWIDTH 300 0
DWIDTH 5 0
BBX 2 12 1 -3
BITMAP
C0
C0
00
00
00
C0
C0
C0
C0
C0
C0
C0
ENDCHAR
STARTCHAR 0x00A2
ENCODING 162
SWIDTH 420 0
DWIDTH 7 0
BBX 5 11 1 -2
BITMAP
10
10
70
A8
A0
A0
A0
C8
70
40
40
ENDCHAR
STARTCHAR 0x00A3
ENCODING 163
SWIDTH 540 0
DWIDTH 9 0
BBX 8 12 1 0
BITMAP
06
09
11
10
10
7C
10
10
10
51
B2
CC
ENDCHAR
STARTCHAR 0x00A4
ENCODING 164
SWIDTH 540 0
DWIDTH 9 0
BBX 7 7 1 3
BITMAP
82
7C
44
44
44
7C
82
ENDCHAR
STARTCHAR 0x00A5
ENCODING 165
SWIDTH 720 0
DWIDTH 12 0
BBX 11 11 0 0
BITMAP
F1E0
2080
1100
0A00
7FC0
0E00
0400
7FC0
0400
0400
1F00
ENDCHAR
STARTCHAR 0x00A6
ENCODING 166
SWIDTH 180 0
DWIDTH 3 0
BBX 1 16 2 -4
BITMAP
80
80
80
80
80
80
80
00
00
80
80
80
80
80
80
80
ENDCHAR
STARTCHAR 0x00A7
ENCODING 167
SWIDTH 360 0
DWIDTH 6 0
BBX 4 13 1 0
BITMAP
60
90
80
80
60
90
90
90
60
10
10
90
60
ENDCHAR
STARTCHAR 0x00A8
ENCODING 168
SWIDTH 360 0
DWIDTH 6 0
BBX 5 2 1 11
BITMAP
D8
D8
ENDCHAR
STARTCHAR 0x00A9
ENCODING 169
SWIDTH 600 0
DWIDTH 10 0
BBX 9 10 1 3
BITMAP
3E00
4100
9E80
A280
A280
A080
A280
9C80
4100
3E00
ENDCHAR
STARTCHAR 0x00AA
ENCODING 170
SWIDTH 300 0
DWIDTH 5 0
BBX 4 6 1 7
BITMAP
60
10
70
90
70
F0
ENDCHAR
STARTCHAR 0x00AB
ENCODING 171
SWIDTH 540 0
DWIDTH 9 0
BBX 7 7 1 0
BITMAP
12
24
6C
D8
6C
24
12
ENDCHAR
STARTCHAR 0x00AC
ENCODING 172
SWIDTH 480 0
DWIDTH 8 0
BBX 6 4 1 2
BITMAP
FC
04
04
04
ENDCHAR
STARTCHAR 0x00AD
ENCODING 173
SWIDTH 300 0
DWIDTH 5 0
BBX 3 1 0 3
BITMAP
E0
ENDCHAR
STARTCHAR 0x00AE
ENCODING 174
SWIDTH 600 0
DWIDTH 10 0
BBX 9 10 1 3
BITMAP
3E00
4100
BC80
9280
9280
9C80
9280
BA80
4100
3E00
ENDCHAR
STARTCHAR 0x00AF
ENCODING 175
SWIDTH 420 0
DWIDTH 7 0
BBX 5 1 1 11
BITMAP
F8
ENDCHAR
STARTCHAR 0x00B0
ENCODING 176
SWIDTH 360 0
DWIDTH 6 0
BBX 4 4 2 8
BITMAP
60
90
90
60
ENDCHAR
STARTCHAR 0x00B1
ENCODING 177
SWIDTH 540 0
DWIDTH 9 0
BBX 7 9 2 1
BITMAP
10
10
10
FE
10
10
10
00
FE
ENDCHAR
STARTCHAR 0x00B2
ENCODING 178
SWIDTH 300 0
DWIDTH 5 0
BBX 4 7 1 6
BITMAP
60
90
10
10
20
40
F0
ENDCHAR
STARTCHAR 0x00B3
ENCODING 179
SWIDTH 300 0
DWIDTH 5 0
BBX 4 7 1 6
BITMAP
60
90
10
20
10
90
60
ENDCHAR
STARTCHAR 0x00B4
ENCODING 180
SWIDTH 360 0
DWIDTH 6 0
BBX 3 4 3 11
BITMAP
20
60
40
80
ENDCHAR
STARTCHAR 0x00B5
ENCODING 181
SWIDTH 480 0
DWIDTH 8 0
BBX 7 10 1 -3
BITMAP
88
88
88
88
88
DA
A4
80
80
80
ENDCHAR
STARTCHAR 0x00B6
ENCODING 182
SWIDTH 480 0
DWIDTH 8 0
BBX 7 15 1 -4
BITMAP
3E
74
F4
F4
F4
74
34
14
14
14
14
14
14
14
14
ENDCHAR
STARTCHAR 0x00B7
ENCODING 183
SWIDTH 240 0
DWIDTH 4 0
BBX 2 2 2 5
BITMAP
C0
C0
ENDCHAR
STARTCHAR 0x00B8
ENCODING 184
SWIDTH 420 0
DWIDTH 7 0
BBX 3 3 2 -3
BITMAP
40
20
E0
ENDCHAR
STARTCHAR 0x00B9
ENCODING 185
SWIDTH 240 0
DWIDTH 4 0
BBX 3 7 1 6
BITMAP
40
C0
40
40
40
40
E0
ENDCHAR
STARTCHAR 0x00BA
ENCODING 186
SWIDTH 300 0
DWIDTH 5 0
BBX 4 6 1 7
BITMAP
60
90
90
90
60
F0
ENDCHAR
STARTCHAR 0x00BB
ENCODING 187
SWIDTH 480 0
DWIDTH 8 0
BBX 7 7 1 0
BITMAP
90
48
6C
36
6C
48
90
ENDCHAR
STARTCHAR 0x00BC
ENCODING 188
SWIDTH 720 0
DWIDTH 12 0
BBX 11 11 1 0
BITMAP
4000
C400
4400
4400
4440
E8C0
0940
0A40
0BE0
1040
10E0
ENDCHAR
STARTCHAR 0x00BD
ENCODING 189
SWIDTH 720 0
DWIDTH 12 0
BBX 11 11 1 0
BITMAP
4000
C400
4400
4400
4400
E8C0
0920
0820
0840
1080
11E0
ENDCHAR
STARTCHAR 0x00BE
ENCODING 190
SWIDTH 780 0
DWIDTH 13 0
BBX 12 11 1 0
BITMAP
6000
9200
1200
2200
1220
9460
64A0
0520
05F0
0820
0870
ENDCHAR
STARTCHAR 0x00BF
ENCODING 191
SWIDTH 480 0
DWIDTH 8 0
BBX 5 12 1 -3
BITMAP
30
30
00
00
00
30
20
20
40
80
88
70
ENDCHAR
STARTCHAR 0x00C0
ENCODING 192
SWIDTH 660 0
DWIDTH 11 0
BBX 11 16 0 0
BITMAP
0800
0C00
0400
0200
0000
0400
0400
0A00
0A00
0A00
1100
1100
1F00
2080
2080
F1E0
ENDCHAR
STARTCHAR 0x00C1
ENCODING 193
SWIDTH 660 0
DWIDTH 11 0
BBX 11 16 0 0
BITMAP
0200
0600
0400
0800
0000
0400
0400
0A00
0A00
0A00
1100
1100
1F00
2080
2080
F1E0
ENDCHAR
STARTCHAR 0x00C2
ENCODING 194
SWIDTH 660 0
DWIDTH 11 0
BBX 11 15 0 0
BITMAP
0400
0E00
1100
0000
0400
0400
0A00
0A00
0A00
1100
1100
1F00
2080
2080
F1E0
ENDCHAR
STARTCHAR 0x00C3
ENCODING 195
SWIDTH 660 0
DWIDTH 11 0
BBX 11 15 0 0
BITMAP
0900
1500
1200
0000
0400
0400
0A00
0A00
0A00
1100
1100
1F00
2080
2080
F1E0
ENDCHAR
STARTCHAR 0x00C4
ENCODING 196
SWIDTH 660 0
DWIDTH 11 0
BBX 11 14 0 0
BITMAP
1B00
1B00
0000
0400
0400
0A00
0A00
0A00
1100
1100
1F00
2080
2080
F1E0
ENDCHAR
STARTCHAR 0x00C5
ENCODING 197
SWIDTH 660 0
DWIDTH 11 0
BBX 11 15 0 0
BITMAP
0600
0900
0900
0600
0400
0400
0A00
0A00
0A00
1100
1100
1F00
2080
2080
F1E0
ENDCHAR
STARTCHAR 0x00C6
ENCODING 198
SWIDTH 900 0
DWIDTH 15 0
BBX 14 11 0 0
BITMAP
0FF8
0A18
0A08
0A28
1220
1FE0
1224
1224
2208
2208
F7F8
ENDCHAR
STARTCHAR 0x00C7
ENCODING 199
SWIDTH 600 0
DWIDTH 10 0
BBX 9 14 1 -3
BITMAP
1E80
2180
4080
8080
8000
8000
8000
8080
4080
2100
1E00
0800
0400
1C00
ENDCHAR
STARTCHAR 0x00C8
ENCODING 200
SWIDTH 660 0
DWIDTH 11 0
BBX 10 16 0 0
BITMAP
1000
1800
0800
0400
0000
FF80
2080
2080
2280
2200
3E00
2240
2240
2080
2080
FF80
ENDCHAR
STARTCHAR 0x00C9
ENCODING 201
SWIDTH 660 0
DWIDTH 11 0
BBX 10 16 0 0
BITMAP
0400
0C00
0800
1000
0000
FF80
2080
2080
2280
2200
3E00
2240
2240
2080
2080
FF80
ENDCHAR
STARTCHAR 0x00CA
ENCODING 202
SWIDTH 660 0
DWIDTH 11 0
BBX 10 15 0 0
BITMAP
0800
1C00
2200
0000
FF80
2080
2080
2280
2200
3E00
2240
2240
2080
2080
FF80
ENDCHAR
STARTCHAR 0x00CB
ENCODING 203
SWIDTH 660 0
DWIDTH 11 0
BBX 10 14 0 0
BITMAP
3600
3600
0000
FF80
2080
2080
2280
2200
3E00
2240
2240
2080
2080
FF80
ENDCHAR
STARTCHAR 0x00CC
ENCODING 204
SWIDTH 360 0
DWIDTH 6 0
BBX 5 16 1 0
BITMAP
40
60
20
10
00
F8
20
20
20
20
20
20
20
20
20
F8
ENDCHAR
STARTCHAR 0x00CD
ENCODING 205
SWIDTH 360 0
DWIDTH 6 0
BBX 5 16 1 0
BITMAP
10
30
20
40
00
F8
20
20
20
20
20
20
20
20
20
F8
ENDCHAR
STARTCHAR 0x00CE
ENCODING 206
SWIDTH 360 0
DWIDTH 6 0
BBX 5 15 1 0
BITMAP
20
70
88
00
F8
20
20
20
20
20
20
20
20
20
F8
ENDCHAR
STARTCHAR 0x00CF
ENCODING 207
SWIDTH 360 0
DWIDTH 6 0
BBX 5 14 1 0
BITMAP
D8
D8
00
F8
20
20
20
20
20
20
20
20
20
F8
ENDCHAR
STARTCHAR 0x00D0
ENCODING 208
SWIDTH 660 0
DWIDTH 11 0
BBX 10 11 0 0
BITMAP
FE00
2180
2080
2040
2040
F840
2040
2040
2080
2180
FE00
ENDCHAR
STARTCHAR 0x00D1
ENCODING 209
SWIDTH 720 0
DWIDTH 12 0
BBX 11 15 0 0
BITMAP
0900
1500
1200
0000
E3E0
3080
3080
2880
2880
2480
2280
2280
2180
2180
F880
ENDCHAR
STARTCHAR 0x00D2
ENCODING 210
SWIDTH 720 0
DWIDTH 12 0
BBX 10 16 1 0
BITMAP
1000
1800
0800
0400
0000
1E00
2100
4080
8040
8040
8040
8040
8040
4080
2100
1E00
ENDCHAR
STARTCHAR 0x00D3
ENCODING 211
SWIDTH 720 0
DWIDTH 12 0
BBX 10 16 1 0
BITMAP
0200
0600
0400
0800
0000
1E00
2100
4080
8040
8040
8040
8040
8040
4080
2100
1E00
ENDCHAR
STARTCHAR 0x00D4
ENCODING 212
SWIDTH 720 0
DWIDTH 12 0
BBX 10 15 1 0
BITMAP
0800
1C00
2200
0000
1E00
2100
4080
8040
8040
8040
8040
8040
4080
2100
1E00
ENDCHAR
STARTCHAR 0x00D5
ENCODING 213
SWIDTH 720 0
DWIDTH 12 0
BBX 10 15 1 0
BITMAP
1200
2A00
2400
0000
1E00
2100
4080
8040
8040
8040
8040
8040
4080
2100
1E00
ENDCHAR
STARTCHAR 0x00D6
ENCODING 214
SWIDTH 720 0
DWIDTH 12 0
BBX 10 14 1 0
BITMAP
3600
3600
0000
1E00
2100
4080
8040
8040
8040
8040
8040
4080
2100
1E00
ENDCHAR
STARTCHAR 0x00D7
ENCODING 215
SWIDTH 540 0
DWIDTH 9 0
BBX 7 7 1 2
BITMAP
82
44
28
10
28
44
82
ENDCHAR
STARTCHAR 0x00D8
ENCODING 216
SWIDTH 720 0
DWIDTH 12 0
BBX 10 13 1 -1
BITMAP
0080
1F00
2100
4280
8240
8440
8C40
8840
9040
5080
2100
3E00
4000
ENDCHAR
STARTCHAR 0x00D9
ENCODING 217
SWIDTH 720 0
DWIDTH 12 0
BBX 11 16 1 0
BITMAP
0800
0C00
0400
0200
0000
FBE0
2080
2080
2080
2080
2080
2080
2080
2080
1100
0E00
ENDCHAR
STARTCHAR 0x00DA
ENCODING 218
SWIDTH 720 0
DWIDTH 12 0
BBX 11 16 1 0
BITMAP
0200
0600
0400
0800
0000
FBE0
2080
2080
2080
2080
2080
2080
2080
2080
1100
0E00
ENDCHAR
STARTCHAR 0x00DB
ENCODING 219
SWIDTH 720 0
DWIDTH 12 0
BBX 11 15 1 0
BITMAP
0400
0E00
1100
0000
FBE0
2080
2080
2080
2080
2080
2080
2080
2080
1100
0E00
ENDCHAR
STARTCHAR 0x00DC
ENCODING 220
SWIDTH 720 0
DWIDTH 12 0
BBX 11 14 1 0
BITMAP
1B00
1B00
0000
FBE0
2080
2080
2080
2080
2080
2080
2080
2080
1100
0E00
ENDCHAR
STARTCHAR 0x00DD
ENCODING 221
SWIDTH 720 0
DWIDTH 12 0
BBX 11 16 0 0
BITMAP
0200
0600
0400
0800
0000
F1E0
2080
1100
1100
0A00
0E00
0400
0400
0400
0400
1F00
ENDCHAR
STARTCHAR 0x00DE
ENCODING 222
SWIDTH 600 0
DWIDTH 10 0
BBX 9 11 0 0
BITMAP
F800
2000
3E00
2100
2080
2080
2080
2100
3E00
2000
F800
ENDCHAR
STARTCHAR 0x00DF
ENCODING 223
SWIDTH 420 0
DWIDTH 7 0
BBX 6 12 1 0
BITMAP
30
48
48
48
48
D8
48
44
44
44
44
D8
ENDCHAR
STARTCHAR 0x00E0
ENCODING 224
SWIDTH 420 0
DWIDTH 7 0
BBX 6 12 1 0
BITMAP
40
60
20
10
00
70
88
08
78
88
88
7C
ENDCHAR
STARTCHAR 0x00E1
ENCODING 225
SWIDTH 420 0
DWIDTH 7 0
BBX 6 12 1 0
BITMAP
10
30
20
40
00
70
88
08
78
88
88
7C
ENDCHAR
STARTCHAR 0x00E2
ENCODING 226
SWIDTH 420 0
DWIDTH 7 0
BBX 6 11 1 0
BITMAP
20
70
88
00
70
88
08
78
88
88
7C
ENDCHAR
STARTCHAR 0x00E3
ENCODING 227
SWIDTH 420 0
DWIDTH 7 0
BBX 6 11 1 0
BITMAP
48
A8
90
00
70
88
08
78
88
88
7C
ENDCHAR
STARTCHAR 0x00E4
ENCODING 228
SWIDTH 420 0
DWIDTH 7 0
BBX 6 10 1 0
BITMAP
D8
D8
00
70
88
08
78
88
88
7C
ENDCHAR
STARTCHAR 0x00E5
ENCODING 229
SWIDTH 420 0
DWIDTH 7 0
BBX 6 11 1 0
BITMAP
30
48
48
30
70
88
08
78
88
88
7C
ENDCHAR
STARTCHAR 0x00E6
ENCODING 230
SWIDTH 660 0
DWIDTH 11 0
BBX 10 7 1 0
BITMAP
7380
8C40
0FC0
7800
8800
8C40
7380
ENDCHAR
STARTCHAR 0x00E7
ENCODING 231
SWIDTH 360 0
DWIDTH 6 0
BBX 5 10 1 -3
BITMAP
70
88
80
80
80
88
70
20
10
70
ENDCHAR
STARTCHAR 0x00E8
ENCODING 232
SWIDTH 360 0
DWIDTH 6 0
BBX 5 12 1 0
BITMAP
40
60
20
10
00
70
88
F8
80
80
88
70
ENDCHAR
STARTCHAR 0x00E9
ENCODING 233
SWIDTH 360 0
DWIDTH 6 0
BBX 5 12 1 0
BITMAP
10
30
20
40
00
70
88
F8
80
80
88
70
ENDCHAR
STARTCHAR 0x00EA
ENCODING 234
SWIDTH 360 0
DWIDTH 6 0
BBX 5 11 1 0
BITMAP
20
70
88
00
70
88
F8
80
80
88
70
ENDCHAR
STARTCHAR 0x00EB
ENCODING 235
SWIDTH 360 0
DWIDTH 6 0
BBX 5 10 1 0
BITMAP
D8
D8
00
70
88
F8
80
80
88
70
ENDCHAR
STARTCHAR 0x00EC
ENCODING 236
SWIDTH 240 0
DWIDTH 4 0
BBX 4 12 0 0
BITMAP
80
C0
40
20
00
60
20
20
20
20
20
70
ENDCHAR
STARTCHAR 0x00ED
ENCODING 237
SWIDTH 240 0
DWIDTH 4 0
BBX 4 12 1 0
BITMAP
10
30
20
40
00
C0
40
40
40
40
40
E0
ENDCHAR
STARTCHAR 0x00EE
ENCODING 238
SWIDTH 300 0
DWIDTH 5 0
BBX 5 11 0 0
BITMAP
20
70
88
00
60
20
20
20
20
20
70
ENDCHAR
STARTCHAR 0x00EF
ENCODING 239
SWIDTH 360 0
DWIDTH 6 0
BBX 5 10 0 0
BITMAP
D8
D8
00
60
20
20
20
20
20
70
ENDCHAR
STARTCHAR 0x00F0
ENCODING 240
SWIDTH 360 0
DWIDTH 6 0
BBX 5 12 1 0
BITMAP
50
70
E0
10
10
78
88
88
88
88
88
70
ENDCHAR
STARTCHAR 0x00F1
ENCODING 241
SWIDTH 480 0
DWIDTH 8 0
BBX 7 11 1 0
BITMAP
48
A8
90
00
F8
44
44
44
44
44
EE
ENDCHAR
STARTCHAR 0x00F2
ENCODING 242
SWIDTH 360 0
DWIDTH 6 0
BBX 5 12 1 0
BITMAP
40
60
20
10
00
70
88
88
88
88
88
70
ENDCHAR
STARTCHAR 0x00F3
ENCODING 243
SWIDTH 360 0
DWIDTH 6 0
BBX 5 12 1 0
BITMAP
10
30
20
40
00
70
88
88
88
88
88
70
ENDCHAR
STARTCHAR 0x00F4
ENCODING 244
SWIDTH 360 0
DWIDTH 6 0
BBX 5 11 1 0
BITMAP
20
70
88
00
70
88
88
88
88
88
70
ENDCHAR
STARTCHAR 0x00F5
ENCODING 245
SWIDTH 360 0
DWIDTH 6 0
BBX 5 11 1 0
BITMAP
48
A8
90
00
70
88
88
88
88
88
70
ENDCHAR
STARTCHAR 0x00F6
ENCODING 246
SWIDTH 360 0
DWIDTH 6 0
BBX 5 10 1 0
BITMAP
D8
D8
00
70
88
88
88
88
88
70
ENDCHAR
STARTCHAR 0x00F7
ENCODING 247
SWIDTH 660 0
DWIDTH 11 0
BBX 9 7 1 2
BITMAP
0800
0800
0000
FF80
0000
0800
0800
ENDCHAR
STARTCHAR 0x00F8
ENCODING 248
SWIDTH 360 0
DWIDTH 6 0
BBX 5 11 1 -2
BITMAP
08
10
70
98
A8
A8
A8
C8
70
40
80
ENDCHAR
STARTCHAR 0x00F9
ENCODING 249
SWIDTH 480 0
DWIDTH 8 0
BBX 7 12 1 0
BITMAP
40
60
20
10
00
CC
44
44
44
44
44
3E
ENDCHAR
STARTCHAR 0x00FA
ENCODING 250
SWIDTH 480 0
DWIDTH 8 0
BBX 7 12 1 0
BITMAP
08
18
10
20
00
CC
44
44
44
44
44
3E
ENDCHAR
STARTCHAR 0x00FB
ENCODING 251
SWIDTH 480 0
DWIDTH 8 0
BBX 7 11 1 0
BITMAP
10
38
44
00
CC
44
44
44
44
44
3E
ENDCHAR
STARTCHAR 0x00FC
ENCODING 252
SWIDTH 480 0
DWIDTH 8 0
BBX 7 10 1 0
BITMAP
6C
6C
00
CC
44
44
44
44
44
3E
ENDCHAR
STARTCHAR 0x00FD
ENCODING 253
SWIDTH 480 0
DWIDTH 8 0
BBX 8 15 1 -3
BITMAP
04
0C
08
10
00
E7
24
24
24
18
18
18
10
90
E0
ENDCHAR
STARTCHAR 0x00FE
ENCODING 254
SWIDTH 420 0
DWIDTH 7 0
BBX 6 15 1 -3
BITMAP
C0
40
40
40
40
78
44
44
44
44
44
78
40
40
E0
ENDCHAR
STARTCHAR 0x00FF
ENCODING 255
SWIDTH 480 0
DWIDTH 8 0
BBX 8 13 1 -3
BITMAP
36
36
00
E7
24
24
24
18
18
18
10
90
E0
ENDCHAR
STARTCHAR 0x0100
ENCODING 256
SWIDTH 660 0
DWIDTH 11 0
BBX 11 13 0 0
BITMAP
1F00
0000
0400
0400
0A00
0A00
0A00
1100
1100
1F00
2080
2080
F1E0
ENDCHAR
STARTCHAR 0x0101
ENCODING 257
SWIDTH 420 0
DWIDTH 7 0
BBX 6 9 1 0
BITMAP
F8
00
70
88
08
78
88
88
7C
ENDCHAR
STARTCHAR 0x0102
ENCODING 258
SWIDTH 660 0
DWIDTH 11 0
BBX 11 14 0 0
BITMAP
1100
0E00
0000
0400
0400
0A00
0A00
0A00
1100
1100
1F00
2080
2080
F1E0
ENDCHAR
STARTCHAR 0x0103
ENCODING 259
SWIDTH 420 0
DWIDTH 7 0
BBX 6 10 1 0
BITMAP
88
70
00
70
88
08
78
88
88
7C
ENDCHAR
STARTCHAR 0x0104
ENCODING 260
SWIDTH 660 0
DWIDTH 11 0
BBX 11 14 0 -3
BITMAP
0400
0400
0A00
0A00
0A00
1100
1100
1F00
2080
2080
F1E0
0080
0120
00C0
ENDCHAR
STARTCHAR 0x0105
ENCODING 261
SWIDTH 420 0
DWIDTH 7 0
BBX 7 10 1 -3
BITMAP
70
88
08
78
88
88
7C
08
12
0C
ENDCHAR
STARTCHAR 0x0106
ENCODING 262
SWIDTH 660 0
DWIDTH 11 0
BBX 9 16 1 0
BITMAP
0400
0C00
0800
1000
0000
1E80
2180
4080
8080
8000
8000
8000
8080
4080
2100
1E00
ENDCHAR
STARTCHAR 0x0107
ENCODING 263
SWIDTH 360 0
DWIDTH 6 0
BBX 5 12 1 0
BITMAP
10
30
20
40
00
70
88
80
80
80
88
70
ENDCHAR
STARTCHAR 0x0108
ENCODING 264
SWIDTH 660 0
DWIDTH 11 0
BBX 9 15 1 0
BITMAP
0800
1C00
2200
0000
1E80
2180
4080
8080
8000
8000
8000
8080
4080
2100
1E00
ENDCHAR
STARTCHAR 0x0109
ENCODING 265
SWIDTH 360 0
DWIDTH 6 0
BBX 5 11 1 0
BITMAP
20
70
88
00
70
88
80
80
80
88
70
ENDCHAR
STARTCHAR 0x010A
ENCODING 266
SWIDTH 660 0
DWIDTH 11 0
BBX 9 14 1 0
BITMAP
0C00
0C00
0000
1E80
2180
4080
8080
8000
8000
8000
8080
4080
2100
1E00
ENDCHAR
STARTCHAR 0x010B
ENCODING 267
SWIDTH 360 0
DWIDTH 6 0
BBX 5 10 1 0
BITMAP
60
60
00
70
88
80
80
80
88
70
ENDCHAR
STARTCHAR 0x010C
ENCODING 268
SWIDTH 660 0
DWIDTH 11 0
BBX 9 15 1 0
BITMAP
2200
1C00
0800
0000
1E80
2180
4080
8080
8000
8000
8000
8080
4080
2100
1E00
ENDCHAR
STARTCHAR 0x010D
ENCODING 269
SWIDTH 360 0
DWIDTH 6 0
BBX 5 11 1 0
BITMAP
88
70
20
00
70
88
80
80
80
88
70
ENDCHAR
STARTCHAR 0x010E
ENCODING 270
SWIDTH 720 0
DWIDTH 12 0
BBX 10 15 0 0
BITMAP
2200
1C00
0800
0000
FE00
2180
2080
2040
2040
2040
2040
2040
2080
2180
FF00
ENDCHAR
STARTCHAR 0x010F
ENCODING 271
SWIDTH 540 0
DWIDTH 9 0
BBX 8 12 1 0
BITMAP
1B
0B
09
09
0A
78
48
88
88
88
48
7C
ENDCHAR
STARTCHAR 0x0110
ENCODING 272
SWIDTH 720 0
DWIDTH 12 0
BBX 10 11 0 0
BITMAP
FE00
2180
2080
2040
2040
F840
2040
2040
2080
2180
FF00
ENDCHAR
STARTCHAR 0x0111
ENCODING 273
SWIDTH 420 0
DWIDTH 7 0
BBX 6 12 1 0
BITMAP
18
08
7C
08
08
78
48
88
88
88
48
7C
ENDCHAR
STARTCHAR 0x0112
ENCODING 274
SWIDTH 660 0
DWIDTH 11 0
BBX 10 13 0 0
BITMAP
3E00
0000
FF80
2080
2080
2280
2200
3E00
2240
2240
2080
2080
FF80
ENDCHAR
STARTCHAR 0x0113
ENCODING 275
SWIDTH 360 0
DWIDTH 6 0
BBX 5 9 1 0
BITMAP
F8
00
70
88
F8
80
80
88
70
ENDCHAR
STARTCHAR 0x0114
ENCODING 276
SWIDTH 660 0
DWIDTH 11 0
BBX 10 14 0 0
BITMAP
2100
1E00
0000
FF80
2080
2080
2280
2200
3E00
2240
2240
2080
2080
FF80
ENDCHAR
STARTCHAR 0x0115
ENCODING 277
SWIDTH 360 0
DWIDTH 6 0
BBX 5 10 1 0
BITMAP
88
70
00
70
88
F8
80
80
88
70
ENDCHAR
STARTCHAR 0x0116
ENCODING 278
SWIDTH 660 0
DWIDTH 11 0
BBX 10 14 0 0
BITMAP
0C00
0C00
0000
FF80
2080
2080
2280
2200
3E00
2240
2240
2080
2080
FF80
ENDCHAR
STARTCHAR 0x0117
ENCODING 279
SWIDTH 360 0
DWIDTH 6 0
BBX 5 10 1 0
BITMAP
60
60
00
70
88
F8
80
80
88
70
ENDCHAR
STARTCHAR 0x0118
ENCODING 280
SWIDTH 660 0
DWIDTH 11 0
BBX 10 14 0 -3
BITMAP
FF80
2080
2080
2280
2200
3E00
2240
2240
2080
2080
FF80
0800
1200
0C00
ENDCHAR
STARTCHAR 0x0119
ENCODING 281
SWIDTH 360 0
DWIDTH 6 0
BBX 5 10 1 -3
BITMAP
70
88
F8
80
80
88
70
40
90
60
ENDCHAR
STARTCHAR 0x011A
ENCODING 282
SWIDTH 660 0
DWIDTH 11 0
BBX 10 15 0 0
BITMAP
2200
1C00
0800
0000
FF80
2080
2080
2280
2200
3E00
2240
2240
2080
2080
FF80
ENDCHAR
STARTCHAR 0x011B
ENCODING 283
SWIDTH 360 0
DWIDTH 6 0
BBX 5 11 1 0
BITMAP
88
70
20
00
70
88
F8
80
80
88
70
ENDCHAR
STARTCHAR 0x011C
ENCODING 284
SWIDTH 780 0
DWIDTH 13 0
BBX 10 15 1 0
BITMAP
0800
1C00
2200
0000
1E80
2180
4080
8080
8000
8000
83C0
8080
4080
2080
1F80
ENDCHAR
STARTCHAR 0x011D
ENCODING 285
SWIDTH 480 0
DWIDTH 8 0
BBX 7 15 1 -4
BITMAP
10
38
44
00
3E
48
48
48
70
40
7C
82
82
C6
38
ENDCHAR
STARTCHAR 0x011E
ENCODING 286
SWIDTH 780 0
DWIDTH 13 0
BBX 10 14 1 0
BITMAP
2100
1E00
0000
1E80
2180
4080
8080
8000
8000
83C0
8080
4080
2080
1F80
ENDCHAR
STARTCHAR 0x011F
ENCODING 287
SWIDTH 480 0
DWIDTH 8 0
BBX 7 14 1 -4
BITMAP
44
38
00
3E
48
48
48
70
40
7C
82
82
C6
38
ENDCHAR
STARTCHAR 0x0120
ENCODING 288
SWIDTH 780 0
DWIDTH 13 0
BBX 10 14 1 0
BITMAP
0C00
0C00
0000
1E80
2180
4080
8080
8000
8000
83C0
8080
4080
2080
1F80
ENDCHAR
STARTCHAR 0x0121
ENCODING 289
SWIDTH 480 0
DWIDTH 8 0
BBX 7 14 1 -4
BITMAP
30
30
00
3E
48
48
48
70
40
7C
82
82
C6
38
ENDCHAR
STARTCHAR 0x0122
ENCODING 290
SWIDTH 780 0
DWIDTH 13 0
BBX 10 14 1 -3
BITMAP
1E80
2180
4080
8080
8000
8000
83C0
8080
4080
2080
1F80
0800
0400
1C00
ENDCHAR
STARTCHAR 0x0123
ENCODING 291
SWIDTH 480 0
DWIDTH 8 0
BBX 7 18 1 -4
BITMAP
08
10
10
18
18
00
00
3E
48
48
48
70
40
7C
82
82
C6
38
ENDCHAR
STARTCHAR 0x0124
ENCODING 292
SWIDTH 720 0
DWIDTH 12 0
BBX 11 15 0 0
BITMAP
0400
0E00
1100
0000
FBE0
2080
2080
2080
2080
3F80
2080
2080
2080
2080
FBE0
ENDCHAR
STARTCHAR 0x0125
ENCODING 293
SWIDTH 480 0
DWIDTH 8 0
BBX 7 16 1 0
BITMAP
10
38
44
00
C0
40
40
40
40
78
44
44
44
44
44
EE
ENDCHAR
STARTCHAR 0x0126
ENCODING 294
SWIDTH 720 0
DWIDTH 12 0
BBX 11 11 0 0
BITMAP
FBE0
2080
2080
FFE0
2080
3F80
2080
2080
2080
2080
FBE0
ENDCHAR
STARTCHAR 0x0127
ENCODING 295
SWIDTH 480 0
DWIDTH 8 0
BBX 7 12 1 0
BITMAP
C0
40
40
F8
40
78
44
44
44
44
44
EE
ENDCHAR
STARTCHAR 0x0128
ENCODING 296
SWIDTH 360 0
DWIDTH 6 0
BBX 5 15 1 0
BITMAP
48
A8
90
00
F8
20
20
20
20
20
20
20
20
20
F8
ENDCHAR
STARTCHAR 0x0129
ENCODING 297
SWIDTH 240 0
DWIDTH 4 0
BBX 5 11 0 0
BITMAP
48
A8
90
00
60
20
20
20
20
20
70
ENDCHAR
STARTCHAR 0x012A
ENCODING 298
SWIDTH 360 0
DWIDTH 6 0
BBX 5 13 1 0
BITMAP
F8
00
F8
20
20
20
20
20
20
20
20
20
F8
ENDCHAR
STARTCHAR 0x012B
ENCODING 299
SWIDTH 240 0
DWIDTH 4 0
BBX 5 9 0 0
BITMAP
F8
00
60
20
20
20
20
20
70
ENDCHAR
STARTCHAR 0x012C
ENCODING 300
SWIDTH 360 0
DWIDTH 6 0
BBX 6 14 0 0
BITMAP
84
78
00
7C
10
10
10
10
10
10
10
10
10
7C
ENDCHAR
STARTCHAR 0x012D
ENCODING 301
SWIDTH 240 0
DWIDTH 4 0
BBX 6 11 -1 0
BITMAP
84
78
00
00
30
10
10
10
10
10
38
ENDCHAR
STARTCHAR 0x012E
ENCODING 302
SWIDTH 360 0
DWIDTH 6 0
BBX 5 14 1 -3
BITMAP
F8
20
20
20
20
20
20
20
20
20
F8
20
48
30
ENDCHAR
STARTCHAR 0x012F
ENCODING 303
SWIDTH 240 0
DWIDTH 4 0
BBX 4 14 1 -3
BITMAP
C0
C0
00
00
C0
40
40
40
40
40
E0
40
90
60
ENDCHAR
STARTCHAR 0x0130
ENCODING 304
SWIDTH 360 0
DWIDTH 6 0
BBX 5 14 1 0
BITMAP
60
60
00
F8
20
20
20
20
20
20
20
20
20
F8
ENDCHAR
STARTCHAR 0x0131
ENCODING 305
SWIDTH 240 0
DWIDTH 4 0
BBX 3 7 1 0
BITMAP
C0
40
40
40
40
40
E0
ENDCHAR
STARTCHAR 0x0132
ENCODING 306
SWIDTH 780 0
DWIDTH 13 0
BBX 12 11 1 0
BITMAP
F9F0
2040
2040
2040
2040
2040
2040
2040
2040
2240
FB80
ENDCHAR
STARTCHAR 0x0133
ENCODING 307
SWIDTH 480 0
DWIDTH 8 0
BBX 7 14 1 -3
BITMAP
C6
C6
00
00
C6
42
42
42
42
42
E2
02
12
1C
ENDCHAR
STARTCHAR 0x0134
ENCODING 308
SWIDTH 480 0
DWIDTH 8 0
BBX 6 15 2 0
BITMAP
10
38
44
00
7C
10
10
10
10
10
10
10
10
90
E0
ENDCHAR
STARTCHAR 0x0135
ENCODING 309
SWIDTH 360 0
DWIDTH 6 0
BBX 5 14 0 -3
BITMAP
20
70
88
00
30
10
10
10
10
10
10
10
90
E0
ENDCHAR
STARTCHAR 0x0136
ENCODING 310
SWIDTH 720 0
DWIDTH 12 0
BBX 11 14 1 -3
BITMAP
F9E0
2080
2100
2200
2400
2E00
3200
2100
2100
2080
F9E0
1000
0800
3800
ENDCHAR
STARTCHAR 0x0137
ENCODING 311
SWIDTH 480 0
DWIDTH 8 0
BBX 7 15 1 -3
BITMAP
C0
40
40
40
40
5E
48
50
70
58
48
EE
40
20
E0
ENDCHAR
STARTCHAR 0x0138
ENCODING 312
SWIDTH 480 0
DWIDTH 8 0
BBX 7 7 1 0
BITMAP
EE
48
50
70
48
48
E6
ENDCHAR
STARTCHAR 0x0139
ENCODING 313
SWIDTH 600 0
DWIDTH 10 0
BBX 8 16 0 0
BITMAP
08
18
10
20
00
F8
20
20
20
20
20
21
21
21
23
FF
ENDCHAR
STARTCHAR 0x013A
ENCODING 314
SWIDTH 240 0
DWIDTH 4 0
BBX 3 17 1 0
BITMAP
20
60
40
80
00
C0
40
40
40
40
40
40
40
40
40
40
E0
ENDCHAR
STARTCHAR 0x013B
ENCODING 315
SWIDTH 600 0
DWIDTH 10 0
BBX 8 14 0 -3
BITMAP
F8
20
20
20
20
20
21
21
21
23
FF
0C
04
1C
ENDCHAR
STARTCHAR 0x013C
ENCODING 316
SWIDTH 240 0
DWIDTH 4 0
BBX 3 15 1 -3
BITMAP
C0
40
40
40
40
40
40
40
40
40
40
E0
40
20
E0
ENDCHAR
STARTCHAR 0x013D
ENCODING 317
SWIDTH 600 0
DWIDTH 10 0
BBX 8 15 0 0
BITMAP
44
38
10
00
F8
20
20
20
20
20
21
21
21
23
FF
ENDCHAR
STARTCHAR 0x013E
ENCODING 318
SWIDTH 360 0
DWIDTH 6 0
BBX 5 12 1 0
BITMAP
D8
58
48
48
50
40
40
40
40
40
40
E0
ENDCHAR
STARTCHAR 0x013F
ENCODING 319
SWIDTH 600 0
DWIDTH 10 0
BBX 8 11 0 0
BITMAP
F8
20
20
26
26
20
21
21
21
23
FF
ENDCHAR
STARTCHAR 0x0140
ENCODING 320
SWIDTH 360 0
DWIDTH 6 0
BBX 5 12 1 0
BITMAP
C0
40
40
40
58
58
40
40
40
40
40
E0
ENDCHAR
STARTCHAR 0x0141
ENCODING 321
SWIDTH 600 0
DWIDTH 10 0
BBX 8 11 0 0
BITMAP
F8
20
20
28
30
20
61
A1
21
23
FF
ENDCHAR
STARTCHAR 0x0142
ENCODING 322
SWIDTH 240 0
DWIDTH 4 0
BBX 5 12 0 0
BITMAP
60
20
20
28
30
20
60
A0
20
20
20
70
ENDCHAR
STARTCHAR 0x0143
ENCODING 323
SWIDTH 720 0
DWIDTH 12 0
BBX 11 16 0 0
BITMAP
0200
0600
0400
0800
0000
E3E0
3080
3080
2880
2880
2480
2280
2280
2180
2180
F880
ENDCHAR
STARTCHAR 0x0144
ENCODING 324
SWIDTH 480 0
DWIDTH 8 0
BBX 7 12 1 0
BITMAP
08
18
10
20
00
F8
44
44
44
44
44
EE
ENDCHAR
STARTCHAR 0x0145
ENCODING 325
SWIDTH 720 0
DWIDTH 12 0
BBX 11 14 0 -3
BITMAP
E3E0
3080
3080
2880
2880
2480
2280
2280
2180
2180
F880
1000
0800
3800
ENDCHAR
STARTCHAR 0x0146
ENCODING 326
SWIDTH 480 0
DWIDTH 8 0
BBX 7 10 1 -3
BITMAP
F8
44
44
44
44
44
EE
40
20
E0
ENDCHAR
STARTCHAR 0x0147
ENCODING 327
SWIDTH 720 0
DWIDTH 12 0
BBX 11 15 0 0
BITMAP
1100
0E00
0400
0000
E3E0
3080
3080
2880
2880
2480
2280
2280
2180
2180
F880
ENDCHAR
STARTCHAR 0x0148
ENCODING 328
SWIDTH 480 0
DWIDTH 8 0
BBX 7 11 1 0
BITMAP
44
38
10
00
F8
44
44
44
44
44
EE
ENDCHAR
STARTCHAR 0x0149
ENCODING 329
SWIDTH 480 0
DWIDTH 8 0
BBX 7 13 1 0
BITMAP
C0
C0
40
40
80
00
F8
44
44
44
44
44
EE
ENDCHAR
STARTCHAR 0x014A
ENCODING 330
SWIDTH 720 0
DWIDTH 12 0
BBX 11 14 0 -3
BITMAP
E3E0
3080
3080
2880
2880
2480
2280
2280
2180
2180
F880
0080
0480
0700
ENDCHAR
STARTCHAR 0x014B
ENCODING 331
SWIDTH 420 0
DWIDTH 7 0
BBX 6 10 1 -3
BITMAP
F8
44
44
44
44
44
E4
04
14
18
ENDCHAR
STARTCHAR 0x014C
ENCODING 332
SWIDTH 720 0
DWIDTH 12 0
BBX 10 13 1 0
BITMAP
3E00
0000
1E00
2100
4080
8040
8040
8040
8040
8040
4080
2100
1E00
ENDCHAR
STARTCHAR 0x014D
ENCODING 333
SWIDTH 360 0
DWIDTH 6 0
BBX 5 9 1 0
BITMAP
F8
00
70
88
88
88
88
88
70
ENDCHAR
STARTCHAR 0x014E
ENCODING 334
SWIDTH 720 0
DWIDTH 12 0
BBX 10 14 1 0
BITMAP
2100
1E00
0000
1E00
2100
4080
8040
8040
8040
8040
8040
4080
2100
1E00
ENDCHAR
STARTCHAR 0x014F
ENCODING 335
SWIDTH 360 0
DWIDTH 6 0
BBX 5 10 1 0
BITMAP
88
70
00
70
88
88
88
88
88
70
ENDCHAR
STARTCHAR 0x0150
ENCODING 336
SWIDTH 720 0
DWIDTH 12 0
BBX 10 16 1 0
BITMAP
0480
0D80
0900
1200
0000
1E00
2100
4080
8040
8040
8040
8040
8040
4080
2100
1E00
ENDCHAR
STARTCHAR 0x0151
ENCODING 337
SWIDTH 360 0
DWIDTH 6 0
BBX 6 12 1 0
BITMAP
24
6C
48
90
00
70
88
88
88
88
88
70
ENDCHAR
STARTCHAR 0x0152
ENCODING 338
SWIDTH 900 0
DWIDTH 15 0
BBX 14 11 1 0
BITMAP
1FF8
6308
4308
8328
8120
81E0
8124
8324
4308
6308
1FF8
ENDCHAR
STARTCHAR 0x0153
ENCODING 339
SWIDTH 720 0
DWIDTH 12 0
BBX 11 7 1 0
BITMAP
31C0
4A20
87E0
8400
8400
4A20
31C0
ENDCHAR
STARTCHAR 0x0154
ENCODING 340
SWIDTH 660 0
DWIDTH 11 0
BBX 11 16 1 0
BITMAP
0400
0C00
0800
1000
0000
FE00
2100
2080
2080
2100
3E00
2300
2100
2100
2100
F8E0
ENDCHAR
STARTCHAR 0x0155
ENCODING 341
SWIDTH 360 0
DWIDTH 6 0
BBX 5 12 1 0
BITMAP
10
30
20
40
00
D0
68
40
40
40
40
F0
ENDCHAR
STARTCHAR 0x0156
ENCODING 342
SWIDTH 660 0
DWIDTH 11 0
BBX 11 14 1 -3
BITMAP
FE00
2100
2080
2080
2100
3E00
2300
2100
2100
2100
F8E0
1000
0800
3800
ENDCHAR
STARTCHAR 0x0157
ENCODING 343
SWIDTH 360 0
DWIDTH 6 0
BBX 5 10 1 -3
BITMAP
D0
68
40
40
40
40
F0
20
10
70
ENDCHAR
STARTCHAR 0x0158
ENCODING 344
SWIDTH 660 0
DWIDTH 11 0
BBX 11 15 1 0
BITMAP
2200
1C00
0800
0000
FE00
2100
2080
2080
2100
3E00
2300
2100
2100
2100
F8E0
ENDCHAR
STARTCHAR 0x0159
ENCODING 345
SWIDTH 360 0
DWIDTH 6 0
BBX 5 11 1 0
BITMAP
88
70
20
00
D0
68
40
40
40
40
F0
ENDCHAR
STARTCHAR 0x015A
ENCODING 346
SWIDTH 480 0
DWIDTH 8 0
BBX 6 16 1 0
BITMAP
10
30
20
40
00
7C
84
84
80
40
30
08
04
84
84
F8
ENDCHAR
STARTCHAR 0x015B
ENCODING 347
SWIDTH 360 0
DWIDTH 6 0
BBX 5 12 1 0
BITMAP
10
30
20
40
00
78
88
80
70
08
88
F0
ENDCHAR
STARTCHAR 0x015C
ENCODING 348
SWIDTH 480 0
DWIDTH 8 0
BBX 6 15 1 0
BITMAP
20
70
88
00
7C
84
84
80
40
30
08
04
84
84
F8
ENDCHAR
STARTCHAR 0x015D
ENCODING 349
SWIDTH 360 0
DWIDTH 6 0
BBX 5 11 1 0
BITMAP
20
70
88
00
78
88
80
70
08
88
F0
ENDCHAR
STARTCHAR 0x015E
ENCODING 350
SWIDTH 480 0
DWIDTH 8 0
BBX 6 14 1 -3
BITMAP
7C
84
84
80
40
30
08
04
84
84
F8
20
10
70
ENDCHAR
STARTCHAR 0x015F
ENCODING 351
SWIDTH 360 0
DWIDTH 6 0
BBX 5 10 1 -3
BITMAP
78
88
80
70
08
88
F0
20
10
70
ENDCHAR
STARTCHAR 0x0160
ENCODING 352
SWIDTH 480 0
DWIDTH 8 0
BBX 6 15 1 0
BITMAP
88
70
20
00
7C
84
84
80
40
30
08
04
84
84
F8
ENDCHAR
STARTCHAR 0x0161
ENCODING 353
SWIDTH 360 0
DWIDTH 6 0
BBX 5 11 1 0
BITMAP
88
70
20
00
78
88
80
70
08
88
F0
ENDCHAR
STARTCHAR 0x0162
ENCODING 354
SWIDTH 660 0
DWIDTH 11 0
BBX 9 14 1 -3
BITMAP
FF80
8880
8880
8880
0800
0800
0800
0800
0800
0800
3E00
0800
0400
1C00
ENDCHAR
STARTCHAR 0x0163
ENCODING 355
SWIDTH 360 0
DWIDTH 6 0
BBX 6 13 0 -3
BITMAP
20
20
20
F8
20
20
20
24
24
18
08
04
1C
ENDCHAR
STARTCHAR 0x0164
ENCODING 356
SWIDTH 660 0
DWIDTH 11 0
BBX 9 15 1 0
BITMAP
2200
1C00
0800
0000
FF80
8880
8880
8880
0800
0800
0800
0800
0800
0800
3E00
ENDCHAR
STARTCHAR 0x0165
ENCODING 357
SWIDTH 360 0
DWIDTH 6 0
BBX 6 14 0 0
BITMAP
88
70
20
00
20
20
20
F8
20
20
20
24
24
18
ENDCHAR
STARTCHAR 0x0166
ENCODING 358
SWIDTH 660 0
DWIDTH 11 0
BBX 9 11 1 0
BITMAP
FF80
8880
8880
8880
0800
FF80
0800
0800
0800
0800
3E00
ENDCHAR
STARTCHAR 0x0167
ENCODING 359
SWIDTH 360 0
DWIDTH 6 0
BBX 6 10 0 0
BITMAP
20
20
20
F8
20
F8
20
24
24
18
ENDCHAR
STARTCHAR 0x0168
ENCODING 360
SWIDTH 720 0
DWIDTH 12 0
BBX 11 15 1 0
BITMAP
0900
1500
1200
0000
FBE0
2080
2080
2080
2080
2080
2080
2080
2080
1100
0E00
ENDCHAR
STARTCHAR 0x0169
ENCODING 361
SWIDTH 480 0
DWIDTH 8 0
BBX 7 11 1 0
BITMAP
24
54
48
00
CC
44
44
44
44
44
3E
ENDCHAR
STARTCHAR 0x016A
ENCODING 362
SWIDTH 720 0
DWIDTH 12 0
BBX 11 13 1 0
BITMAP
1F00
0000
FBE0
2080
2080
2080
2080
2080
2080
2080
2080
1100
0E00
ENDCHAR
STARTCHAR 0x016B
ENCODING 363
SWIDTH 480 0
DWIDTH 8 0
BBX 7 9 1 0
BITMAP
7C
00
CC
44
44
44
44
44
3E
ENDCHAR
STARTCHAR 0x016C
ENCODING 364
SWIDTH 720 0
DWIDTH 12 0
BBX 11 14 1 0
BITMAP
2100
1E00
0000
FBE0
2080
2080
2080
2080
2080
2080
2080
2080
1100
0E00
ENDCHAR
STARTCHAR 0x016D
ENCODING 365
SWIDTH 480 0
DWIDTH 8 0
BBX 7 10 1 0
BITMAP
44
38
00
CC
44
44
44
44
44
3E
ENDCHAR
STARTCHAR 0x016E
ENCODING 366
SWIDTH 720 0
DWIDTH 12 0
BBX 11 16 1 0
BITMAP
0C00
1200
1200
0C00
0000
FBE0
2080
2080
2080
2080
2080
2080
2080
2080
1100
0E00
ENDCHAR
STARTCHAR 0x016F
ENCODING 367
SWIDTH 480 0
DWIDTH 8 0
BBX 7 12 1 0
BITMAP
30
48
48
30
00
CC
44
44
44
44
44
3E
ENDCHAR
STARTCHAR 0x0170
ENCODING 368
SWIDTH 720 0
DWIDTH 12 0
BBX 11 16 1 0
BITMAP
0480
0D80
0900
1200
0000
FBE0
2080
2080
2080
2080
2080
2080
2080
2080
1100
0E00
ENDCHAR
STARTCHAR 0x0171
ENCODING 369
SWIDTH 480 0
DWIDTH 8 0
BBX 7 12 1 0
BITMAP
24
6C
48
90
00
CC
44
44
44
44
44
3E
ENDCHAR
STARTCHAR 0x0172
ENCODING 370
SWIDTH 720 0
DWIDTH 12 0
BBX 11 14 1 -3
BITMAP
FBE0
2080
2080
2080
2080
2080
2080
2080
2080
1100
0E00
0400
0900
0600
ENDCHAR
STARTCHAR 0x0173
ENCODING 371
SWIDTH 480 0
DWIDTH 8 0
BBX 8 10 1 -3
BITMAP
CC
44
44
44
44
44
3E
04
09
06
ENDCHAR
STARTCHAR 0x0174
ENCODING 372
SWIDTH 1020 0
DWIDTH 17 0
BBX 16 15 0 0
BITMAP
0100
0380
0440
0000
F1CF
2184
2184
2244
1248
1248
1248
1428
0C30
0C30
0810
ENDCHAR
STARTCHAR 0x0175
ENCODING 373
SWIDTH 720 0
DWIDTH 12 0
BBX 11 11 0 0
BITMAP
0400
0E00
1100
0000
EEE0
2480
2A80
2A80
2A80
1100
1100
ENDCHAR
STARTCHAR 0x0176
ENCODING 374
SWIDTH 720 0
DWIDTH 12 0
BBX 11 15 0 0
BITMAP
0400
0E00
1100
0000
F1E0
2080
1100
1100
0A00
0E00
0400
0400
0400
0400
1F00
ENDCHAR
STARTCHAR 0x0177
ENCODING 375
SWIDTH 480 0
DWIDTH 8 0
BBX 8 14 1 -3
BITMAP
08
1C
22
00
E7
24
24
24
18
18
18
10
90
E0
ENDCHAR
STARTCHAR 0x0178
ENCODING 376
SWIDTH 720 0
DWIDTH 12 0
BBX 11 14 0 0
BITMAP
1B00
1B00
0000
F1E0
2080
1100
1100
0A00
0E00
0400
0400
0400
0400
1F00
ENDCHAR
STARTCHAR 0x0179
ENCODING 377
SWIDTH 480 0
DWIDTH 8 0
BBX 7 16 1 0
BITMAP
08
18
10
20
00
FE
C4
84
88
08
10
22
22
42
46
FE
ENDCHAR
STARTCHAR 0x017A
ENCODING 378
SWIDTH 360 0
DWIDTH 6 0
BBX 5 12 1 0
BITMAP
10
30
20
40
00
F8
90
90
20
48
48
F8
ENDCHAR
STARTCHAR 0x017B
ENCODING 379
SWIDTH 480 0
DWIDTH 8 0
BBX 7 14 1 0
BITMAP
30
30
00
FE
C4
84
88
08
10
22
22
42
46
FE
ENDCHAR
STARTCHAR 0x017C
ENCODING 380
SWIDTH 360 0
DWIDTH 6 0
BBX 5 10 1 0
BITMAP
60
60
00
F8
90
90
20
48
48
F8
ENDCHAR
STARTCHAR 0x017D
ENCODING 381
SWIDTH 480 0
DWIDTH 8 0
BBX 7 15 1 0
BITMAP
44
38
10
00
FE
C4
84
88
08
10
22
22
42
46
FE
ENDCHAR
STARTCHAR 0x017E
ENCODING 382
SWIDTH 360 0
DWIDTH 6 0
BBX 5 11 1 0
BITMAP
88
70
20
00
F8
90
90
20
48
48
F8
ENDCHAR
STARTCHAR 0x017F
ENCODING 383
SWIDTH 360 0
DWIDTH 6 0
BBX 5 12 1 0
BITMAP
38
48
40
40
40
C0
40
40
40
40
40
E0
ENDCHAR
STARTCHAR 0x0180
ENCODING 384
SWIDTH 420 0
DWIDTH 7 0
BBX 6 12 1 0
BITMAP
C0
40
40
F8
40
78
44
44
44
44
44
78
ENDCHAR
STARTCHAR 0x0181
ENCODING 385
SWIDTH 660 0
DWIDTH 11 0
BBX 11 11 -1 0
BITMAP
FF80
9040
1020
1020
1040
1F80
1040
1020
1020
1040
7F80
ENDCHAR
STARTCHAR 0x0182
ENCODING 386
SWIDTH 600 0
DWIDTH 10 0
BBX 9 11 0 0
BITMAP
FF80
2080
2080
2000
2000
3F00
2080
2080
2080
2080
FF00
ENDCHAR
STARTCHAR 0x0183
ENCODING 387
SWIDTH 420 0
DWIDTH 7 0
BBX 6 12 1 0
BITMAP
FC
44
44
40
40
78
44
44
44
44
44
78
ENDCHAR
STARTCHAR 0x0184
ENCODING 388
SWIDTH 600 0
DWIDTH 10 0
BBX 9 11 0 0
BITMAP
2000
6000
E000
E000
6000
3F00
2080
2080
2080
2080
FF00
ENDCHAR
STARTCHAR 0x0185
ENCODING 389
SWIDTH 480 0
DWIDTH 8 0
BBX 7 12 1 0
BITMAP
20
60
E0
E0
60
3C
22
22
22
22
22
3C
ENDCHAR
STARTCHAR 0x0186
ENCODING 390
SWIDTH 660 0
DWIDTH 11 0
BBX 9 11 1 0
BITMAP
3C00
4200
8100
8080
0080
0080
0080
8080
8100
C200
BC00
ENDCHAR
STARTCHAR 0x0187
ENCODING 391
SWIDTH 660 0
DWIDTH 11 0
BBX 11 13 1 0
BITMAP
0060
00A0
1E80
2180
4080
8080
8000
8000
8000
8080
4080
2100
1E00
ENDCHAR
STARTCHAR 0x0188
ENCODING 392
SWIDTH 420 0
DWIDTH 7 0
BBX 7 9 1 0
BITMAP
06
0A
78
88
80
80
80
88
70
ENDCHAR
STARTCHAR 0x0189
ENCODING 393
SWIDTH 660 0
DWIDTH 11 0
BBX 10 11 0 0
BITMAP
FE00
2180
2080
2040
2040
F840
2040
2040
2080
2180
FE00
ENDCHAR
STARTCHAR 0x018A
ENCODING 394
SWIDTH 720 0
DWIDTH 12 0
BBX 11 11 -1 0
BITMAP
FF00
90C0
1040
1020
1020
1020
1020
1020
1040
10C0
7F00
ENDCHAR
STARTCHAR 0x018B
ENCODING 395
SWIDTH 600 0
DWIDTH 10 0
BBX 9 11 0 0
BITMAP
FF80
8200
8200
0200
0200
7E00
8200
8200
8200
8200
7F80
ENDCHAR
STARTCHAR 0x018C
ENCODING 396
SWIDTH 420 0
DWIDTH 7 0
BBX 6 12 1 0
BITMAP
FC
88
88
08
08
78
88
88
88
88
88
78
ENDCHAR
STARTCHAR 0x018D
ENCODING 397
SWIDTH 360 0
DWIDTH 6 0
BBX 5 11 1 -4
BITMAP
70
88
88
88
88
88
50
30
08
48
30
ENDCHAR
STARTCHAR 0x018E
ENCODING 398
SWIDTH 660 0
DWIDTH 11 0
BBX 10 11 0 0
BITMAP
7FC0
4100
4100
9100
9100
1F00
1100
5100
4100
4100
7FC0
ENDCHAR
STARTCHAR 0x018F
ENCODING 399
SWIDTH 660 0
DWIDTH 11 0
BBX 10 11 1 0
BITMAP
3E00
4180
8080
0040
0040
0040
FFC0
8040
4080
2100
1E00
ENDCHAR
STARTCHAR 0x0190
ENCODING 400
SWIDTH 480 0
DWIDTH 8 0
BBX 7 11 1 0
BITMAP
7A
86
82
82
80
78
80
80
82
82
7C
ENDCHAR
STARTCHAR 0x0191
ENCODING 401
SWIDTH 600 0
DWIDTH 10 0
BBX 10 14 -1 -3
BITMAP
7FC0
1040
1040
1140
1100
1F00
1100
1100
1000
1000
1000
1000
9000
E000
ENDCHAR
STARTCHAR 0x0192
ENCODING 402
SWIDTH 360 0
DWIDTH 6 0
BBX 6 15 0 -3
BITMAP
1C
24
20
20
20
78
20
20
20
20
20
20
20
A0
C0
ENDCHAR
STARTCHAR 0x0193
ENCODING 403
SWIDTH 720 0
DWIDTH 12 0
BBX 11 13 1 0
BITMAP
0060
00A0
1E80
2180
4080
8080
8000
8000
83C0
8080
4080
2080
1F80
ENDCHAR
STARTCHAR 0x0194
ENCODING 404
SWIDTH 720 0
DWIDTH 12 0
BBX 11 11 0 0
BITMAP
F1E0
2080
1100
1100
0A00
0A00
0400
0E00
0A00
0A00
0400
ENDCHAR
STARTCHAR 0x0195
ENCODING 405
SWIDTH 600 0
DWIDTH 10 0
BBX 9 11 1 0
BITMAP
C000
4000
4000
4000
5100
6880
4880
4880
4880
4880
E700
ENDCHAR
STARTCHAR 0x0196
ENCODING 406
SWIDTH 300 0
DWIDTH 5 0
BBX 5 13 1 -2
BITMAP
40
C0
40
40
40
40
40
40
40
40
40
48
30
ENDCHAR
STARTCHAR 0x0197
ENCODING 407
SWIDTH 360 0
DWIDTH 6 0
BBX 5 11 0 0
BITMAP
F8
20
20
20
20
F8
20
20
20
20
F8
ENDCHAR
STARTCHAR 0x0198
ENCODING 408
SWIDTH 720 0
DWIDTH 12 0
BBX 11 11 0 0
BITMAP
F8E0
2120
2240
2400
2C00
2E00
3200
2100
2100
2080
F9E0
ENDCHAR
STARTCHAR 0x0199
ENCODING 409
SWIDTH 480 0
DWIDTH 8 0
BBX 7 13 1 0
BITMAP
30
48
58
40
40
40
5E
48
50
70
58
48
EE
ENDCHAR
STARTCHAR 0x019A
ENCODING 410
SWIDTH 240 0
DWIDTH 4 0
BBX 5 12 0 0
BITMAP
60
20
20
20
20
F8
20
20
20
20
20
70
ENDCHAR
STARTCHAR 0x019B
ENCODING 411
SWIDTH 540 0
DWIDTH 9 0
BBX 8 10 1 0
BITMAP
44
28
10
30
58
98
24
24
42
E7
ENDCHAR
STARTCHAR 0x019C
ENCODING 412
SWIDTH 960 0
DWIDTH 16 0
BBX 15 11 0 0
BITMAP
F39E
2108
2108
2108
2108
2108
2108
2108
2108
2298
1C6E
ENDCHAR
STARTCHAR 0x019D
ENCODING 413
SWIDTH 780 0
DWIDTH 13 0
BBX 12 14 -1 -3
BITMAP
71F0
1840
1840
1440
1440
1240
1140
1140
10C0
10C0
1040
1000
9000
E000
ENDCHAR
STARTCHAR 0x019E
ENCODING 414
SWIDTH 420 0
DWIDTH 7 0
BBX 7 10 1 -3
BITMAP
F8
44
44
44
44
44
E4
04
04
0E
ENDCHAR
STARTCHAR 0x019F
ENCODING 415
SWIDTH 720 0
DWIDTH 12 0
BBX 10 11 1 0
BITMAP
1E00
6180
4080
8040
8040
FFC0
8040
8040
4080
6180
1E00
ENDCHAR
STARTCHAR 0x01A0
ENCODING 416
SWIDTH 720 0
DWIDTH 12 0
BBX 11 12 1 0
BITMAP
0060
1E20
21C0
4080
8040
8040
8040
8040
8040
4080
2100
1E00
ENDCHAR
STARTCHAR 0x01A1
ENCODING 417
SWIDTH 360 0
DWIDTH 6 0
BBX 7 8 1 0
BITMAP
06
72
8C
88
88
88
88
70
ENDCHAR
STARTCHAR 0x01A2
ENCODING 418
SWIDTH 900 0
DWIDTH 15 0
BBX 14 14 1 -3
BITMAP
1E30
2148
4088
8048
8048
8048
8048
8048
4088
2108
1E08
0008
0008
001C
ENDCHAR
STARTCHAR 0x01A3
ENCODING 419
SWIDTH 600 0
DWIDTH 10 0
BBX 9 11 1 -3
BITMAP
0200
7500
8900
8900
8900
8900
8900
7100
0100
0100
0380
ENDCHAR
STARTCHAR 0x01A4
ENCODING 420
SWIDTH 660 0
DWIDTH 11 0
BBX 10 11 -1 0
BITMAP
FF80
90C0
1040
1040
10C0
1F80
1000
1000
1000
1000
7C00
ENDCHAR
STARTCHAR 0x01A5
ENCODING 421
SWIDTH 540 0
DWIDTH 9 0
BBX 8 12 1 -3
BITMAP
03
05
FC
44
44
44
44
44
78
40
40
E0
ENDCHAR
STARTCHAR 0x01A6
ENCODING 422
SWIDTH 720 0
DWIDTH 12 0
BBX 11 13 0 -2
BITMAP
F800
2000
3E00
2100
2080
2080
2100
3E00
2300
2100
F900
0100
00E0
ENDCHAR
STARTCHAR 0x01A7
ENCODING 423
SWIDTH 420 0
DWIDTH 7 0
BBX 6 11 1 0
BITMAP
F8
84
84
04
08
30
40
80
84
84
7C
ENDCHAR
STARTCHAR 0x01A8
ENCODING 424
SWIDTH 360 0
DWIDTH 6 0
BBX 5 7 1 0
BITMAP
F0
88
08
70
80
88
78
ENDCHAR
STARTCHAR 0x01A9
ENCODING 425
SWIDTH 600 0
DWIDTH 10 0
BBX 9 11 1 0
BITMAP
FF80
C180
4080
2080
1000
1800
1000
2080
2080
4180
FF80
ENDCHAR
STARTCHAR 0x01AA
ENCODING 426
SWIDTH 360 0
DWIDTH 6 0
BBX 6 13 1 -2
BITMAP
40
A0
A0
60
20
20
20
20
20
20
20
24
18
ENDCHAR
STARTCHAR 0x01AB
ENCODING 427
SWIDTH 360 0
DWIDTH 6 0
BBX 6 12 0 -2
BITMAP
20
20
20
F8
20
20
20
24
24
1C
44
38
ENDCHAR
STARTCHAR 0x01AC
ENCODING 428
SWIDTH 600 0
DWIDTH 10 0
BBX 9 11 1 0
BITMAP
FF80
8880
0880
0880
0800
0800
0800
0800
0800
0800
3E00
ENDCHAR
STARTCHAR 0x01AD
ENCODING 429
SWIDTH 360 0
DWIDTH 6 0
BBX 6 12 0 0
BITMAP
18
24
20
20
20
F8
20
20
20
24
24
18
ENDCHAR
STARTCHAR 0x01AE
ENCODING 430
SWIDTH 600 0
DWIDTH 10 0
BBX 9 14 1 -3
BITMAP
FF80
8880
8880
8880
0800
0800
0800
0800
0800
0800
0800
0800
0A00
0600
ENDCHAR
STARTCHAR 0x01AF
ENCODING 431
SWIDTH 720 0
DWIDTH 12 0
BBX 12 13 1 0
BITMAP
0030
0010
FBE0
2080
2080
2080
2080
2080
2080
2080
2080
1100
0E00
ENDCHAR
STARTCHAR 0x01B0
ENCODING 432
SWIDTH 480 0
DWIDTH 8 0
BBX 8 9 1 0
BITMAP
03
01
CE
44
44
44
44
44
3E
ENDCHAR
STARTCHAR 0x01B1
ENCODING 433
SWIDTH 720 0
DWIDTH 12 0
BBX 11 11 0 0
BITMAP
F1E0
2080
2080
4040
4040
4040
4040
4040
4040
2080
1F00
ENDCHAR
STARTCHAR 0x01B2
ENCODING 434
SWIDTH 660 0
DWIDTH 11 0
BBX 10 12 0 0
BITMAP
0100
F880
2080
2040
2040
2040
2040
2040
2040
2080
1100
0E00
ENDCHAR
STARTCHAR 0x01B3
ENCODING 435
SWIDTH 720 0
DWIDTH 12 0
BBX 12 11 -1 0
BITMAP
E0F0
9040
0880
0880
0500
0700
0200
0200
0200
0200
0F80
ENDCHAR
STARTCHAR 0x01B4
ENCODING 436
SWIDTH 480 0
DWIDTH 8 0
BBX 8 12 1 -3
BITMAP
03
05
E4
24
24
24
18
18
18
10
90
E0
ENDCHAR
STARTCHAR 0x01B5
ENCODING 437
SWIDTH 480 0
DWIDTH 8 0
BBX 7 11 1 0
BITMAP
FE
C4
84
88
08
FE
20
22
42
46
FE
ENDCHAR
STARTCHAR 0x01B6
ENCODING 438
SWIDTH 360 0
DWIDTH 6 0
BBX 5 7 1 0
BITMAP
F8
90
10
F8
40
48
F8
ENDCHAR
STARTCHAR 0x01B7
ENCODING 439
SWIDTH 420 0
DWIDTH 7 0
BBX 6 11 1 0
BITMAP
FC
08
10
20
70
08
04
04
C4
88
70
ENDCHAR
STARTCHAR 0x01B8
ENCODING 440
SWIDTH 420 0
DWIDTH 7 0
BBX 6 11 1 0
BITMAP
FC
40
20
10
38
40
80
80
8C
44
38
ENDCHAR
STARTCHAR 0x01B9
ENCODING 441
SWIDTH 360 0
DWIDTH 6 0
BBX 5 9 1 -3
BITMAP
F8
40
20
70
80
80
98
88
70
ENDCHAR
STARTCHAR 0x01BA
ENCODING 442
SWIDTH 360 0
DWIDTH 6 0
BBX 5 9 1 -3
BITMAP
F8
10
20
70
08
70
80
88
70
ENDCHAR
STARTCHAR 0x01BB
ENCODING 443
SWIDTH 420 0
DWIDTH 7 0
BBX 6 11 1 0
BITMAP
70
88
88
88
08
FC
10
20
48
48
F8
ENDCHAR
STARTCHAR 0x01BC
ENCODING 444
SWIDTH 420 0
DWIDTH 7 0
BBX 6 11 1 0
BITMAP
FC
40
40
70
08
04
04
04
04
88
70
ENDCHAR
STARTCHAR 0x01BD
ENCODING 445
SWIDTH 360 0
DWIDTH 6 0
BBX 5 7 1 0
BITMAP
F8
40
70
08
08
88
70
ENDCHAR
STARTCHAR 0x01BE
ENCODING 446
SWIDTH 360 0
DWIDTH 6 0
BBX 5 11 1 0
BITMAP
20
20
F8
20
20
30
08
08
C8
88
70
ENDCHAR
STARTCHAR 0x01BF
ENCODING 447
SWIDTH 420 0
DWIDTH 7 0
BBX 6 10 1 -3
BITMAP
F8
44
44
44
44
48
50
60
40
E0
ENDCHAR
STARTCHAR 0x01C0
ENCODING 448
SWIDTH 240 0
DWIDTH 4 0
BBX 1 12 2 0
BITMAP
80
80
80
80
80
80
80
80
80
80
80
80
ENDCHAR
STARTCHAR 0x01C1
ENCODING 449
SWIDTH 300 0
DWIDTH 5 0
BBX 3 12 2 0
BITMAP
A0
A0
A0
A0
A0
A0
A0
A0
A0
A0
A0
A0
ENDCHAR
STARTCHAR 0x01C2
ENCODING 450
SWIDTH 420 0
DWIDTH 7 0
BBX 5 12 1 0
BITMAP
20
20
20
20
F8
20
F8
20
20
20
20
20
ENDCHAR
STARTCHAR 0x01C3
ENCODING 451
SWIDTH 300 0
DWIDTH 5 0
BBX 2 12 1 0
BITMAP
C0
C0
C0
C0
C0
C0
C0
00
00
00
C0
C0
ENDCHAR
STARTCHAR 0x01C4
ENCODING 452
SWIDTH 1140 0
DWIDTH 19 0
BBX 18 15 0 0
BITMAP
000880
000700
000200
000000
FE1FC0
219880
209080
205100
204100
204200
204440
204440
208840
2188C0
FF1FC0
ENDCHAR
STARTCHAR 0x01C5
ENCODING 453
SWIDTH 1020 0
DWIDTH 17 0
BBX 16 11 0 0
BITMAP
FE11
218E
2084
2040
205F
2052
2052
2044
2089
2189
FF1F
ENDCHAR
STARTCHAR 0x01C6
ENCODING 454
SWIDTH 780 0
DWIDTH 13 0
BBX 12 12 1 0
BITMAP
1800
0910
08E0
0840
0800
79F0
4920
8920
8840
8890
4890
7DF0
ENDCHAR
STARTCHAR 0x01C7
ENCODING 455
SWIDTH 960 0
DWIDTH 16 0
BBX 15 11 0 0
BITMAP
F83E
2008
2008
2008
2008
2008
2108
2108
2108
2348
FF70
ENDCHAR
STARTCHAR 0x01C8
ENCODING 456
SWIDTH 780 0
DWIDTH 13 0
BBX 12 14 0 -3
BITMAP
F830
2030
2000
2000
2030
2010
2110
2110
2110
2310
FF10
0010
0090
00E0
ENDCHAR
STARTCHAR 0x01C9
ENCODING 457
SWIDTH 480 0
DWIDTH 8 0
BBX 7 15 1 -3
BITMAP
C0
46
46
40
40
46
42
42
42
42
42
E2
02
12
1C
ENDCHAR
STARTCHAR 0x01CA
ENCODING 458
SWIDTH 1080 0
DWIDTH 18 0
BBX 17 11 0 0
BITMAP
E3EF80
308200
308200
288200
288200
248200
228200
228200
218200
219200
F89C00
ENDCHAR
STARTCHAR 0x01CB
ENCODING 459
SWIDTH 960 0
DWIDTH 16 0
BBX 15 14 0 -3
BITMAP
E3E6
3086
3080
2880
2886
2482
2282
2282
2182
2182
F882
0002
0012
001C
ENDCHAR
STARTCHAR 0x01CC
ENCODING 460
SWIDTH 660 0
DWIDTH 11 0
BBX 10 14 1 -3
BITMAP
00C0
00C0
0000
0000
F8C0
4440
4440
4440
4440
4440
EE40
0040
0240
0380
ENDCHAR
STARTCHAR 0x01CD
ENCODING 461
SWIDTH 660 0
DWIDTH 11 0
BBX 11 15 0 0
BITMAP
1100
0E00
0400
0000
0400
0400
0A00
0A00
0A00
1100
1100
1F00
2080
2080
F1E0
ENDCHAR
STARTCHAR 0x01CE
ENCODING 462
SWIDTH 420 0
DWIDTH 7 0
BBX 6 11 1 0
BITMAP
88
70
20
00
70
88
08
78
88
88
7C
ENDCHAR
STARTCHAR 0x01CF
ENCODING 463
SWIDTH 360 0
DWIDTH 6 0
BBX 5 15 1 0
BITMAP
88
70
20
00
F8
20
20
20
20
20
20
20
20
20
F8
ENDCHAR
STARTCHAR 0x01D0
ENCODING 464
SWIDTH 240 0
DWIDTH 4 0
BBX 5 11 0 0
BITMAP
88
70
20
00
60
20
20
20
20
20
70
ENDCHAR
STARTCHAR 0x01D1
ENCODING 465
SWIDTH 720 0
DWIDTH 12 0
BBX 10 15 1 0
BITMAP
2200
1C00
0800
0000
1E00
2100
4080
8040
8040
8040
8040
8040
4080
2100
1E00
ENDCHAR
STARTCHAR 0x01D2
ENCODING 466
SWIDTH 360 0
DWIDTH 6 0
BBX 5 11 1 0
BITMAP
88
70
20
00
70
88
88
88
88
88
70
ENDCHAR
STARTCHAR 0x01D3
ENCODING 467
SWIDTH 720 0
DWIDTH 12 0
BBX 11 15 1 0
BITMAP
1100
0E00
0400
0000
FBE0
2080
2080
2080
2080
2080
2080
2080
2080
1100
0E00
ENDCHAR
STARTCHAR 0x01D4
ENCODING 468
SWIDTH 480 0
DWIDTH 8 0
BBX 7 11 1 0
BITMAP
44
38
10
00
CC
44
44
44
44
44
3E
ENDCHAR
STARTCHAR 0x01D5
ENCODING 469
SWIDTH 720 0
DWIDTH 12 0
BBX 11 16 1 0
BITMAP
1F00
0000
1B00
1B00
0000
FBE0
2080
2080
2080
2080
2080
2080
2080
2080
1100
0E00
ENDCHAR
STARTCHAR 0x01D6
ENCODING 470
SWIDTH 480 0
DWIDTH 8 0
BBX 7 12 1 0
BITMAP
7C
00
6C
6C
00
CC
44
44
44
44
44
3E
ENDCHAR
STARTCHAR 0x01D7
ENCODING 471
SWIDTH 720 0
DWIDTH 12 0
BBX 11 19 1 0
BITMAP
0200
0600
0400
0800
0000
1B00
1B00
0000
FBE0
2080
2080
2080
2080
2080
2080
2080
2080
1100
0E00
ENDCHAR
STARTCHAR 0x01D8
ENCODING 472
SWIDTH 480 0
DWIDTH 8 0
BBX 7 15 1 0
BITMAP
08
18
10
20
00
6C
6C
00
CC
44
44
44
44
44
3E
ENDCHAR
STARTCHAR 0x01D9
ENCODING 473
SWIDTH 720 0
DWIDTH 12 0
BBX 11 18 1 0
BITMAP
1100
0E00
0400
0000
1B00
1B00
0000
FBE0
2080
2080
2080
2080
2080
2080
2080
2080
1100
0E00
ENDCHAR
STARTCHAR 0x01DA
ENCODING 474
SWIDTH 480 0
DWIDTH 8 0
BBX 7 14 1 0
BITMAP
44
38
10
00
6C
6C
00
CC
44
44
44
44
44
3E
ENDCHAR
STARTCHAR 0x01DB
ENCODING 475
SWIDTH 720 0
DWIDTH 12 0
BBX 11 19 1 0
BITMAP
0800
0C00
0400
0200
0000
1B00
1B00
0000
FBE0
2080
2080
2080
2080
2080
2080
2080
2080
1100
0E00
ENDCHAR
STARTCHAR 0x01DC
ENCODING 476
SWIDTH 480 0
DWIDTH 8 0
BBX 7 15 1 0
BITMAP
40
60
20
10
00
6C
6C
00
CC
44
44
44
44
44
3E
ENDCHAR
STARTCHAR 0x01DD
ENCODING 477
SWIDTH 360 0
DWIDTH 6 0
BBX 5 7 1 0
BITMAP
70
88
08
08
F8
88
70
ENDCHAR
STARTCHAR 0x01DE
ENCODING 478
SWIDTH 660 0
DWIDTH 11 0
BBX 11 16 0 0
BITMAP
1F00
0000
1B00
1B00
0000
0400
0400
0A00
0A00
0A00
1100
1100
1F00
2080
2080
F1E0
ENDCHAR
STARTCHAR 0x01DF
ENCODING 479
SWIDTH 420 0
DWIDTH 7 0
BBX 6 12 1 0
BITMAP
F8
00
D8
D8
00
70
88
08
78
88
88
7C
ENDCHAR
STARTCHAR 0x01E0
ENCODING 480
SWIDTH 660 0
DWIDTH 11 0
BBX 11 16 0 0
BITMAP
1F00
0000
0C00
0C00
0000
0400
0400
0A00
0A00
0A00
1100
1100
1F00
2080
2080
F1E0
ENDCHAR
STARTCHAR 0x01E1
ENCODING 481
SWIDTH 420 0
DWIDTH 7 0
BBX 6 12 1 0
BITMAP
F8
00
60
60
00
70
88
08
78
88
88
7C
ENDCHAR
STARTCHAR 0x01E2
ENCODING 482
SWIDTH 900 0
DWIDTH 15 0
BBX 14 13 0 0
BITMAP
03E0
0000
0FF8
0A18
0A08
0A28
1220
1FE0
1224
1224
2208
2208
F7F8
ENDCHAR
STARTCHAR 0x01E3
ENCODING 483
SWIDTH 660 0
DWIDTH 11 0
BBX 10 9 1 0
BITMAP
1F00
0000
7380
8C40
0FC0
7800
8800
8C40
7380
ENDCHAR
STARTCHAR 0x01E4
ENCODING 484
SWIDTH 660 0
DWIDTH 11 0
BBX 10 11 1 0
BITMAP
1E80
2180
4080
8080
8000
8000
83C0
8080
47C0
2080
1F80
ENDCHAR
STARTCHAR 0x01E5
ENCODING 485
SWIDTH 480 0
DWIDTH 8 0
BBX 8 11 1 -4
BITMAP
3E
44
44
44
78
40
7C
82
9F
82
7C
ENDCHAR
STARTCHAR 0x01E6
ENCODING 486
SWIDTH 660 0
DWIDTH 11 0
BBX 10 15 1 0
BITMAP
2200
1C00
0800
0000
1E80
2180
4080
8080
8000
8000
83C0
8080
4080
2080
1F80
ENDCHAR
STARTCHAR 0x01E7
ENCODING 487
SWIDTH 480 0
DWIDTH 8 0
BBX 7 15 1 -4
BITMAP
44
38
10
00
3E
44
44
44
78
40
7C
82
82
82
7C
ENDCHAR
STARTCHAR 0x01E8
ENCODING 488
SWIDTH 720 0
DWIDTH 12 0
BBX 11 15 1 0
BITMAP
1100
0E00
0400
0000
F9E0
2180
2300
2600
2C00
2E00
3200
2100
2100
2080
F9E0
ENDCHAR
STARTCHAR 0x01E9
ENCODING 489
SWIDTH 480 0
DWIDTH 8 0
BBX 7 16 1 0
BITMAP
44
38
10
00
C0
40
40
40
40
5E
48
50
70
58
48
EE
ENDCHAR
STARTCHAR 0x01EA
ENCODING 490
SWIDTH 720 0
DWIDTH 12 0
BBX 10 14 1 -3
BITMAP
1E00
2100
4080
8040
8040
8040
8040
8040
4080
2100
1E00
0800
1200
0C00
ENDCHAR
STARTCHAR 0x01EB
ENCODING 491
SWIDTH 360 0
DWIDTH 6 0
BBX 5 10 1 -3
BITMAP
70
88
88
88
88
88
70
40
90
60
ENDCHAR
STARTCHAR 0x01EC
ENCODING 492
SWIDTH 720 0
DWIDTH 12 0
BBX 10 16 1 -3
BITMAP
3E00
0000
1E00
2100
4080
8040
8040
8040
8040
8040
4080
2100
1E00
0800
1200
0C00
ENDCHAR
STARTCHAR 0x01ED
ENCODING 493
SWIDTH 360 0
DWIDTH 6 0
BBX 5 12 1 -3
BITMAP
F8
00
70
88
88
88
88
88
70
40
90
60
ENDCHAR
STARTCHAR 0x01EE
ENCODING 494
SWIDTH 420 0
DWIDTH 7 0
BBX 6 15 1 0
BITMAP
88
70
20
00
FC
08
10
20
70
08
04
04
C4
88
70
ENDCHAR
STARTCHAR 0x01EF
ENCODING 495
SWIDTH 360 0
DWIDTH 6 0
BBX 5 13 1 -3
BITMAP
88
70
20
00
F8
10
20
70
08
08
C8
88
70
ENDCHAR
STARTCHAR 0x01F0
ENCODING 496
SWIDTH 360 0
DWIDTH 6 0
BBX 6 14 0 -3
BITMAP
44
38
10
00
30
10
10
10
10
10
10
10
90
E0
ENDCHAR
STARTCHAR 0x01F1
ENCODING 497
SWIDTH 1140 0
DWIDTH 19 0
BBX 18 11 0 0
BITMAP
FE1FC0
219880
209080
205100
204100
204200
204440
204440
208840
2188C0
FF1FC0
ENDCHAR
STARTCHAR 0x01F2
ENCODING 498
SWIDTH 1020 0
DWIDTH 17 0
BBX 16 11 0 0
BITMAP
FE00
2180
2080
2040
205F
2052
2052
2044
2089
2189
FF1F
ENDCHAR
STARTCHAR 0x01F3
ENCODING 499
SWIDTH 780 0
DWIDTH 13 0
BBX 12 12 1 0
BITMAP
1800
0800
0800
0800
0800
79F0
8920
8920
8840
8890
8890
7DF0
ENDCHAR
STARTCHAR 0x01F4
ENCODING 500
SWIDTH 660 0
DWIDTH 11 0
BBX 10 16 1 0
BITMAP
0400
0C00
0800
1000
0000
1E80
2180
4080
8080
8000
8000
83C0
8080
4080
2080
1F80
ENDCHAR
STARTCHAR 0x01F5
ENCODING 501
SWIDTH 480 0
DWIDTH 8 0
BBX 7 16 1 -4
BITMAP
04
0C
08
10
00
3E
44
44
44
78
40
7C
82
82
82
7C
ENDCHAR
STARTCHAR 0x0124
ENCODING 502
SWIDTH 840 0
DWIDTH 14 0
BBX 14 11 0 0
BITMAP
FBE0
2080
2080
2080
2080
3F9C
2084
2084
2084
2084
F878
ENDCHAR
STARTCHAR C080
ENCODING 503
SWIDTH 540 0
DWIDTH 9 0
BBX 9 11 1 0
BITMAP
6F00
B180
2080
2080
2100
2600
2800
3000
2000
2000
F800
ENDCHAR
STARTCHAR C078
ENCODING 504
SWIDTH 660 0
DWIDTH 11 0
BBX 11 16 1 0
BITMAP
2000
3000
1000
0800
0000
E3E0
3080
3080
2880
2880
2480
2280
2280
2180
2180
F880
ENDCHAR
STARTCHAR 0x006E
ENCODING 505
SWIDTH 480 0
DWIDTH 8 0
BBX 7 12 1 0
BITMAP
40
60
20
10
00
F8
44
44
44
44
44
EE
ENDCHAR
STARTCHAR 0x01FA
ENCODING 506
SWIDTH 660 0
DWIDTH 11 0
BBX 11 20 0 0
BITMAP
0200
0600
0400
0800
0000
0600
0900
0900
0600
0400
0400
0A00
0A00
0A00
1100
1100
1F00
2080
2080
F1E0
ENDCHAR
STARTCHAR 0x01FB
ENCODING 507
SWIDTH 420 0
DWIDTH 7 0
BBX 6 16 1 0
BITMAP
10
30
20
40
00
60
90
90
60
70
88
08
78
88
88
7C
ENDCHAR
STARTCHAR 0x01FC
ENCODING 508
SWIDTH 900 0
DWIDTH 15 0
BBX 14 16 0 0
BITMAP
0040
00C0
0080
0100
0000
0FF8
0A18
0A08
0A28
1220
1FE0
1224
1224
2208
2208
F7F8
ENDCHAR
STARTCHAR 0x01FD
ENCODING 509
SWIDTH 660 0
DWIDTH 11 0
BBX 10 12 1 0
BITMAP
0200
0600
0400
0800
0000
7380
8C40
0FC0
7800
8800
8C40
7380
ENDCHAR
STARTCHAR 0x01FE
ENCODING 510
SWIDTH 720 0
DWIDTH 12 0
BBX 10 17 1 -1
BITMAP
0200
0600
0400
0800
0080
1F00
2100
4280
8240
8440
8C40
8840
9040
5080
2100
3E00
4000
ENDCHAR
STARTCHAR 0x01FF
ENCODING 511
SWIDTH 360 0
DWIDTH 6 0
BBX 5 14 1 -2
BITMAP
10
30
20
48
10
70
98
A8
A8
A8
C8
70
40
80
ENDCHAR
STARTCHAR 0x0200
ENCODING 512
SWIDTH 660 0
DWIDTH 11 0
BBX 11 16 0 0
BITMAP
2400
3600
1200
0900
0000
0400
0400
0A00
0A00
0A00
1100
1100
1F00
2080
2080
F1E0
ENDCHAR
STARTCHAR 0x0201
ENCODING 513
SWIDTH 420 0
DWIDTH 7 0
BBX 7 12 0 0
BITMAP
90
D8
48
24
00
38
44
04
3C
44
44
3E
ENDCHAR
STARTCHAR 0x0202
ENCODING 514
SWIDTH 660 0
DWIDTH 11 0
BBX 11 14 0 0
BITMAP
1E00
2100
0000
0400
0400
0A00
0A00
0A00
1100
1100
1F00
2080
2080
F1E0
ENDCHAR
STARTCHAR 0x0203
ENCODING 515
SWIDTH 420 0
DWIDTH 7 0
BBX 6 10 1 0
BITMAP
70
88
00
70
88
08
78
88
88
7C
ENDCHAR
STARTCHAR 0x0204
ENCODING 516
SWIDTH 660 0
DWIDTH 11 0
BBX 10 16 0 0
BITMAP
4800
6C00
2400
1200
0000
FF80
2080
2080
2280
2200
3E00
2240
2240
2080
2080
FF80
ENDCHAR
STARTCHAR 0x0205
ENCODING 517
SWIDTH 360 0
DWIDTH 6 0
BBX 6 12 0 0
BITMAP
90
D8
48
24
00
38
44
7C
40
40
44
38
ENDCHAR
STARTCHAR 0x0206
ENCODING 518
SWIDTH 660 0
DWIDTH 11 0
BBX 10 14 0 0
BITMAP
1E00
2100
0000
FF80
2080
2080
2280
2200
3E00
2240
2240
2080
2080
FF80
ENDCHAR
STARTCHAR 0x0207
ENCODING 519
SWIDTH 360 0
DWIDTH 6 0
BBX 5 10 1 0
BITMAP
70
88
00
70
88
F8
80
80
88
70
ENDCHAR
STARTCHAR 0x0208
ENCODING 520
SWIDTH 360 0
DWIDTH 6 0
BBX 6 16 0 0
BITMAP
90
D8
48
24
00
7C
10
10
10
10
10
10
10
10
10
7C
ENDCHAR
STARTCHAR 0x0209
ENCODING 521
SWIDTH 240 0
DWIDTH 4 0
BBX 6 12 -1 0
BITMAP
90
D8
48
24
00
30
10
10
10
10
10
38
ENDCHAR
STARTCHAR 0x020A
ENCODING 522
SWIDTH 360 0
DWIDTH 6 0
BBX 6 14 0 0
BITMAP
78
84
00
7C
10
10
10
10
10
10
10
10
10
7C
ENDCHAR
STARTCHAR 0x020B
ENCODING 523
SWIDTH 240 0
DWIDTH 4 0
BBX 6 10 -1 0
BITMAP
78
84
00
30
10
10
10
10
10
38
ENDCHAR
STARTCHAR 0x020C
ENCODING 524
SWIDTH 720 0
DWIDTH 12 0
BBX 10 16 1 0
BITMAP
4800
6C00
2400
1200
0000
1E00
2100
4080
8040
8040
8040
8040
8040
4080
2100
1E00
ENDCHAR
STARTCHAR 0x020D
ENCODING 525
SWIDTH 360 0
DWIDTH 6 0
BBX 6 12 0 0
BITMAP
90
D8
48
24
00
38
44
44
44
44
44
38
ENDCHAR
STARTCHAR 0x020E
ENCODING 526
SWIDTH 720 0
DWIDTH 12 0
BBX 10 14 1 0
BITMAP
1E00
2100
0000
1E00
2100
4080
8040
8040
8040
8040
8040
4080
2100
1E00
ENDCHAR
STARTCHAR 0x020F
ENCODING 527
SWIDTH 360 0
DWIDTH 6 0
BBX 5 10 1 0
BITMAP
70
88
00
70
88
88
88
88
88
70
ENDCHAR
STARTCHAR 0x0210
ENCODING 528
SWIDTH 660 0
DWIDTH 11 0
BBX 11 16 1 0
BITMAP
4800
6C00
2400
1200
0000
FE00
2100
2080
2080
2100
3E00
2300
2100
2100
2100
F8E0
ENDCHAR
STARTCHAR 0x0211
ENCODING 529
SWIDTH 420 0
DWIDTH 7 0
BBX 6 12 0 0
BITMAP
90
D8
48
24
00
68
34
20
20
20
20
78
ENDCHAR
STARTCHAR 0x0212
ENCODING 530
SWIDTH 660 0
DWIDTH 11 0
BBX 11 14 1 0
BITMAP
3C00
4200
0000
FE00
2100
2080
2080
2100
3E00
2300
2100
2100
2100
F8E0
ENDCHAR
STARTCHAR 0x0213
ENCODING 531
SWIDTH 420 0
DWIDTH 7 0
BBX 6 10 1 0
BITMAP
78
84
00
D0
68
40
40
40
40
F0
ENDCHAR
STARTCHAR 0x0214
ENCODING 532
SWIDTH 720 0
DWIDTH 12 0
BBX 11 16 1 0
BITMAP
2400
3600
1200
0900
0000
FBE0
2080
2080
2080
2080
2080
2080
2080
2080
1100
0E00
ENDCHAR
STARTCHAR 0x0215
ENCODING 533
SWIDTH 480 0
DWIDTH 8 0
BBX 8 12 0 0
BITMAP
90
D8
48
24
00
66
22
22
22
22
22
1F
ENDCHAR
STARTCHAR 0x0216
ENCODING 534
SWIDTH 720 0
DWIDTH 12 0
BBX 11 14 1 0
BITMAP
1E00
2100
0000
FBE0
2080
2080
2080
2080
2080
2080
2080
2080
1100
0E00
ENDCHAR
STARTCHAR 0x0217
ENCODING 535
SWIDTH 480 0
DWIDTH 8 0
BBX 7 10 1 0
BITMAP
38
44
00
CC
44
44
44
44
44
3E
ENDCHAR
STARTCHAR 0x0218
ENCODING 536
SWIDTH 480 0
DWIDTH 8 0
BBX 6 17 1 -6
BITMAP
7C
84
84
80
40
30
08
04
84
84
F8
00
30
30
10
10
20
ENDCHAR
STARTCHAR 0x0219
ENCODING 537
SWIDTH 360 0
DWIDTH 6 0
BBX 5 13 1 -6
BITMAP
78
88
80
70
08
88
F0
00
30
30
10
10
20
ENDCHAR
STARTCHAR 0x021A
ENCODING 538
SWIDTH 660 0
DWIDTH 11 0
BBX 9 17 1 -6
BITMAP
FF80
8880
8880
8880
0800
0800
0800
0800
0800
0800
3E00
0000
0C00
0C00
0400
0400
0800
ENDCHAR
STARTCHAR 0x021B
ENCODING 539
SWIDTH 360 0
DWIDTH 6 0
BBX 6 16 0 -6
BITMAP
20
20
20
F8
20
20
20
24
24
18
00
30
30
10
10
20
ENDCHAR
STARTCHAR 0x0033
ENCODING 540
SWIDTH 360 0
DWIDTH 6 0
BBX 5 11 1 0
BITMAP
B0
C8
88
08
10
30
48
08
08
10
E0
ENDCHAR
STARTCHAR 0x0292
ENCODING 541
SWIDTH 360 0
DWIDTH 6 0
BBX 5 9 1 0
BITMAP
B0
C8
88
10
30
48
08
10
E0
ENDCHAR
STARTCHAR 0x021E
ENCODING 542
SWIDTH 720 0
DWIDTH 12 0
BBX 11 15 0 0
BITMAP
1100
0E00
0400
0000
FBE0
2080
2080
2080
2080
3F80
2080
2080
2080
2080
FBE0
ENDCHAR
STARTCHAR 0x021F
ENCODING 543
SWIDTH 480 0
DWIDTH 8 0
BBX 7 16 1 0
BITMAP
44
38
10
00
C0
40
40
40
40
78
44
44
44
44
44
EE
ENDCHAR
STARTCHAR 0x022E
ENCODING 546
SWIDTH 540 0
DWIDTH 9 0
BBX 8 10 1 0
BITMAP
66
81
81
42
3C
42
81
81
42
3C
ENDCHAR
STARTCHAR 0x022E
ENCODING 547
SWIDTH 420 0
DWIDTH 7 0
BBX 6 10 1 0
BITMAP
48
84
84
48
30
48
84
84
48
30
ENDCHAR
STARTCHAR C090
ENCODING 548
SWIDTH 420 0
DWIDTH 7 0
BBX 7 15 1 -4
BITMAP
FE
C4
84
88
08
10
22
22
42
46
FE
02
02
14
18
ENDCHAR
STARTCHAR 0x007A
ENCODING 549
SWIDTH 360 0
DWIDTH 6 0
BBX 5 10 1 -3
BITMAP
F8
90
90
20
48
48
F8
08
28
30
ENDCHAR
STARTCHAR 0x0226
ENCODING 550
SWIDTH 660 0
DWIDTH 11 0
BBX 11 14 0 0
BITMAP
0C00
0C00
0000
0400
0400
0A00
0A00
0A00
1100
1100
1F00
2080
2080
F1E0
ENDCHAR
STARTCHAR 0x0227
ENCODING 551
SWIDTH 420 0
DWIDTH 7 0
BBX 6 10 1 0
BITMAP
60
60
00
70
88
08
78
88
88
7C
ENDCHAR
STARTCHAR 0x0228
ENCODING 552
SWIDTH 660 0
DWIDTH 11 0
BBX 10 14 0 -3
BITMAP
FF80
2080
2080
2280
2200
3E00
2240
2240
2080
2080
FF80
0800
0400
1C00
ENDCHAR
STARTCHAR 0x0229
ENCODING 553
SWIDTH 360 0
DWIDTH 6 0
BBX 5 10 1 -3
BITMAP
70
88
F8
80
80
88
70
20
10
70
ENDCHAR
STARTCHAR 0x022A
ENCODING 554
SWIDTH 720 0
DWIDTH 12 0
BBX 10 16 1 0
BITMAP
3E00
0000
3600
3600
0000
1E00
2100
4080
8040
8040
8040
8040
8040
4080
2100
1E00
ENDCHAR
STARTCHAR 0x022B
ENCODING 555
SWIDTH 360 0
DWIDTH 6 0
BBX 5 12 1 0
BITMAP
F8
00
D8
D8
00
70
88
88
88
88
88
70
ENDCHAR
STARTCHAR 0x022C
ENCODING 556
SWIDTH 720 0
DWIDTH 12 0
BBX 10 17 1 0
BITMAP
3E00
0000
1200
2A00
2400
0000
1E00
2100
4080
8040
8040
8040
8040
8040
4080
2100
1E00
ENDCHAR
STARTCHAR 0x022D
ENCODING 557
SWIDTH 360 0
DWIDTH 6 0
BBX 5 13 1 0
BITMAP
F8
00
48
A8
90
00
70
88
88
88
88
88
70
ENDCHAR
STARTCHAR 0x022E
ENCODING 558
SWIDTH 720 0
DWIDTH 12 0
BBX 10 14 1 0
BITMAP
0C00
0C00
0000
1E00
2100
4080
8040
8040
8040
8040
8040
4080
2100
1E00
ENDCHAR
STARTCHAR 0x022F
ENCODING 559
SWIDTH 360 0
DWIDTH 6 0
BBX 5 10 1 0
BITMAP
30
30
00
70
88
88
88
88
88
70
ENDCHAR
STARTCHAR 0x0230
ENCODING 560
SWIDTH 720 0
DWIDTH 12 0
BBX 10 16 1 0
BITMAP
1E00
0000
0C00
0C00
0000
1E00
2100
4080
8040
8040
8040
8040
8040
4080
2100
1E00
ENDCHAR
STARTCHAR 0x0231
ENCODING 561
SWIDTH 360 0
DWIDTH 6 0
BBX 5 12 1 0
BITMAP
78
00
30
30
00
70
88
88
88
88
88
70
ENDCHAR
STARTCHAR 0x0232
ENCODING 562
SWIDTH 720 0
DWIDTH 12 0
BBX 11 14 0 0
BITMAP
1F00
0000
0000
F1E0
2080
1100
1100
0A00
0E00
0400
0400
0400
0400
1F00
ENDCHAR
STARTCHAR 0x0233
ENCODING 563
SWIDTH 480 0
DWIDTH 8 0
BBX 8 12 1 -3
BITMAP
3E
00
E7
24
24
24
18
18
18
10
90
E0
ENDCHAR
STARTCHAR 0x0250
ENCODING 592
SWIDTH 420 0
DWIDTH 7 0
BBX 6 7 1 0
BITMAP
F8
44
44
78
40
44
38
ENDCHAR
STARTCHAR 0x0251
ENCODING 593
SWIDTH 480 0
DWIDTH 8 0
BBX 7 7 1 0
BITMAP
68
98
88
88
88
9A
6C
ENDCHAR
STARTCHAR 0x0252
ENCODING 594
SWIDTH 480 0
DWIDTH 8 0
BBX 7 7 1 0
BITMAP
6C
B2
22
22
22
32
2C
ENDCHAR
STARTCHAR 0x0253
ENCODING 595
SWIDTH 360 0
DWIDTH 6 0
BBX 5 13 1 0
BITMAP
60
90
80
80
80
80
F0
88
88
88
88
88
F0
ENDCHAR
STARTCHAR 0x0254
ENCODING 596
SWIDTH 360 0
DWIDTH 6 0
BBX 5 7 1 0
BITMAP
70
88
08
08
08
88
70
ENDCHAR
STARTCHAR 0x0255
ENCODING 597
SWIDTH 360 0
DWIDTH 6 0
BBX 5 8 1 -1
BITMAP
70
88
80
80
90
A8
70
80
ENDCHAR
STARTCHAR 0x0256
ENCODING 598
SWIDTH 360 0
DWIDTH 6 0
BBX 8 15 1 -3
BITMAP
18
08
08
08
08
78
88
88
88
88
88
78
08
09
07
ENDCHAR
STARTCHAR 0x0257
ENCODING 599
SWIDTH 360 0
DWIDTH 6 0
BBX 8 13 1 0
BITMAP
07
09
08
08
08
08
78
88
88
88
88
88
7C
ENDCHAR
STARTCHAR 0x0258
ENCODING 600
SWIDTH 360 0
DWIDTH 6 0
BBX 5 7 1 0
BITMAP
70
88
F8
08
08
88
70
ENDCHAR
STARTCHAR 0x0259
ENCODING 601
SWIDTH 360 0
DWIDTH 6 0
BBX 5 7 1 0
BITMAP
70
88
08
08
F8
88
70
ENDCHAR
STARTCHAR 0x025A
ENCODING 602
SWIDTH 480 0
DWIDTH 8 0
BBX 7 7 1 0
BITMAP
68
94
36
50
90
90
60
ENDCHAR
STARTCHAR 0x025B
ENCODING 603
SWIDTH 360 0
DWIDTH 6 0
BBX 5 7 1 0
BITMAP
60
90
80
60
80
88
70
ENDCHAR
STARTCHAR 0x025C
ENCODING 604
SWIDTH 360 0
DWIDTH 6 0
BBX 5 7 1 0
BITMAP
30
48
08
30
08
88
70
ENDCHAR
STARTCHAR 0x025D
ENCODING 605
SWIDTH 600 0
DWIDTH 10 0
BBX 9 7 1 0
BITMAP
3600
4A80
0900
3000
0800
8800
7000
ENDCHAR
STARTCHAR 0x025E
ENCODING 606
SWIDTH 480 0
DWIDTH 8 0
BBX 7 7 1 0
BITMAP
3C
42
82
9C
82
42
3C
ENDCHAR
STARTCHAR 0x025F
ENCODING 607
SWIDTH 360 0
DWIDTH 6 0
BBX 5 10 0 -3
BITMAP
30
10
10
10
10
10
38
10
90
E0
ENDCHAR
STARTCHAR 0x0260
ENCODING 608
SWIDTH 420 0
DWIDTH 7 0
BBX 7 12 1 -3
BITMAP
06
0A
78
88
88
88
88
88
78
08
88
F0
ENDCHAR
STARTCHAR 0x0261
ENCODING 609
SWIDTH 360 0
DWIDTH 6 0
BBX 5 10 1 -3
BITMAP
78
88
88
88
88
88
78
08
88
F0
ENDCHAR
STARTCHAR 0x0262
ENCODING 610
SWIDTH 480 0
DWIDTH 8 0
BBX 7 7 1 0
BITMAP
34
4C
84
80
8E
44
3C
ENDCHAR
STARTCHAR 0x0263
ENCODING 611
SWIDTH 720 0
DWIDTH 12 0
BBX 11 11 0 0
BITMAP
F1E0
2080
1100
1100
0A00
0A00
0400
0E00
0A00
0A00
0400
ENDCHAR
STARTCHAR 0x0264
ENCODING 612
SWIDTH 540 0
DWIDTH 9 0
BBX 8 7 0 0
BITMAP
E7
24
24
18
18
24
18
ENDCHAR
STARTCHAR 0x0265
ENCODING 613
SWIDTH 480 0
DWIDTH 8 0
BBX 7 10 1 -3
BITMAP
EE
44
44
44
44
44
3C
04
04
06
ENDCHAR
STARTCHAR 0x0266
ENCODING 614
SWIDTH 480 0
DWIDTH 8 0
BBX 7 13 1 0
BITMAP
38
48
40
40
40
40
78
44
44
44
44
44
EE
ENDCHAR
STARTCHAR 0x0267
ENCODING 615
SWIDTH 420 0
DWIDTH 7 0
BBX 6 16 1 -3
BITMAP
38
48
40
40
40
40
78
44
44
44
44
44
E4
04
24
38
ENDCHAR
STARTCHAR 0x0268
ENCODING 616
SWIDTH 240 0
DWIDTH 4 0
BBX 5 12 0 0
BITMAP
60
60
00
00
00
60
20
20
F8
20
20
70
ENDCHAR
STARTCHAR 0x0269
ENCODING 617
SWIDTH 300 0
DWIDTH 5 0
BBX 4 7 1 0
BITMAP
C0
40
40
40
40
50
70
ENDCHAR
STARTCHAR 0x026A
ENCODING 618
SWIDTH 240 0
DWIDTH 4 0
BBX 3 7 1 0
BITMAP
E0
40
40
40
40
40
E0
ENDCHAR
STARTCHAR 0x026B
ENCODING 619
SWIDTH 300 0
DWIDTH 5 0
BBX 5 12 1 0
BITMAP
60
20
20
20
20
68
B0
20
20
20
20
70
ENDCHAR
STARTCHAR 0x026C
ENCODING 620
SWIDTH 420 0
DWIDTH 7 0
BBX 6 12 1 0
BITMAP
30
10
10
10
50
B0
7C
10
10
10
10
38
ENDCHAR
STARTCHAR 0x026D
ENCODING 621
SWIDTH 240 0
DWIDTH 4 0
BBX 5 15 1 -3
BITMAP
C0
40
40
40
40
40
40
40
40
40
40
40
40
48
38
ENDCHAR
STARTCHAR 0x026E
ENCODING 622
SWIDTH 420 0
DWIDTH 7 0
BBX 7 15 1 -3
BITMAP
C0
40
40
40
40
78
44
44
44
44
44
E4
04
22
1C
ENDCHAR
STARTCHAR 0x026F
ENCODING 623
SWIDTH 720 0
DWIDTH 12 0
BBX 11 7 1 0
BITMAP
EEE0
4440
4440
4440
4440
4440
3BE0
ENDCHAR
STARTCHAR 0x0270
ENCODING 624
SWIDTH 720 0
DWIDTH 12 0
BBX 11 10 1 -3
BITMAP
EEE0
4440
4440
4440
4440
4440
3BC0
0040
0040
0060
ENDCHAR
STARTCHAR 0x0271
ENCODING 625
SWIDTH 660 0
DWIDTH 11 0
BBX 10 10 1 -3
BITMAP
FB80
4440
4440
4440
4440
4440
EE40
0040
0240
0380
ENDCHAR
STARTCHAR 0x0272
ENCODING 626
SWIDTH 480 0
DWIDTH 8 0
BBX 9 10 -1 -3
BITMAP
3E00
1100
1100
1100
1100
1100
1380
1000
9000
E000
ENDCHAR
STARTCHAR 0x0273
ENCODING 627
SWIDTH 480 0
DWIDTH 8 0
BBX 9 10 1 -3
BITMAP
F800
4400
4400
4400
4400
4400
E400
0400
0480
0380
ENDCHAR
STARTCHAR 0x0274
ENCODING 628
SWIDTH 480 0
DWIDTH 8 0
BBX 7 7 1 0
BITMAP
CE
64
64
54
4C
4C
E4
ENDCHAR
STARTCHAR 0x0275
ENCODING 629
SWIDTH 360 0
DWIDTH 6 0
BBX 5 7 1 0
BITMAP
70
88
88
F8
88
88
70
ENDCHAR
STARTCHAR 0x0276
ENCODING 630
SWIDTH 600 0
DWIDTH 10 0
BBX 9 7 1 0
BITMAP
3F00
4900
8A00
8E00
8A80
4900
3F00
ENDCHAR
STARTCHAR 0x0277
ENCODING 631
SWIDTH 480 0
DWIDTH 8 0
BBX 7 7 1 0
BITMAP
38
44
82
92
92
92
6C
ENDCHAR
STARTCHAR 0x0278
ENCODING 632
SWIDTH 360 0
DWIDTH 6 0
BBX 5 11 0 0
BITMAP
F8
20
20
70
A8
A8
A8
70
20
20
F8
ENDCHAR
STARTCHAR 0x0279
ENCODING 633
SWIDTH 360 0
DWIDTH 6 0
BBX 5 7 1 0
BITMAP
78
10
10
10
10
B0
58
ENDCHAR
STARTCHAR 0x027A
ENCODING 634
SWIDTH 360 0
DWIDTH 6 0
BBX 5 11 1 0
BITMAP
78
10
10
10
10
10
10
10
10
B0
58
ENDCHAR
STARTCHAR 0x027B
ENCODING 635
SWIDTH 420 0
DWIDTH 7 0
BBX 7 10 1 -3
BITMAP
78
10
10
10
10
B0
50
10
12
0E
ENDCHAR
STARTCHAR 0x027C
ENCODING 636
SWIDTH 360 0
DWIDTH 6 0
BBX 5 11 1 -3
BITMAP
D0
68
40
40
40
40
40
40
40
40
F0
ENDCHAR
STARTCHAR 0x027D
ENCODING 637
SWIDTH 360 0
DWIDTH 6 0
BBX 5 10 1 -3
BITMAP
D0
68
40
40
40
40
40
40
48
38
ENDCHAR
STARTCHAR 0x027E
ENCODING 638
SWIDTH 360 0
DWIDTH 6 0
BBX 5 7 1 0
BITMAP
30
48
40
40
40
40
F0
ENDCHAR
STARTCHAR 0x027F
ENCODING 639
SWIDTH 360 0
DWIDTH 6 0
BBX 5 7 1 0
BITMAP
60
90
10
10
10
10
78
ENDCHAR
STARTCHAR 0x0280
ENCODING 640
SWIDTH 480 0
DWIDTH 8 0
BBX 7 7 1 0
BITMAP
F0
48
48
70
50
48
E6
ENDCHAR
STARTCHAR 0x0281
ENCODING 641
SWIDTH 480 0
DWIDTH 8 0
BBX 7 7 1 0
BITMAP
E6
48
50
70
48
48
F0
ENDCHAR
STARTCHAR 0x0282
ENCODING 642
SWIDTH 360 0
DWIDTH 6 0
BBX 5 10 1 -3
BITMAP
78
88
80
70
08
88
F0
80
A0
60
ENDCHAR
STARTCHAR 0x0283
ENCODING 643
SWIDTH 360 0
DWIDTH 6 0
BBX 7 14 -1 -3
BITMAP
0E
12
10
10
10
10
10
10
10
10
10
10
90
E0
ENDCHAR
STARTCHAR 0x0284
ENCODING 644
SWIDTH 480 0
DWIDTH 8 0
BBX 7 14 -1 -3
BITMAP
0E
12
10
10
7C
10
10
10
10
7C
10
10
90
E0
ENDCHAR
STARTCHAR 0x0285
ENCODING 645
SWIDTH 420 0
DWIDTH 7 0
BBX 7 14 -1 -3
BITMAP
E0
90
10
10
10
10
10
10
10
10
10
10
12
0E
ENDCHAR
STARTCHAR 0x0286
ENCODING 646
SWIDTH 360 0
DWIDTH 6 0
BBX 7 14 -1 -3
BITMAP
0E
12
10
10
10
10
10
10
10
10
10
78
94
74
ENDCHAR
STARTCHAR 0x0287
ENCODING 647
SWIDTH 360 0
DWIDTH 6 0
BBX 5 10 1 0
BITMAP
40
A0
A0
20
20
20
F8
30
20
20
ENDCHAR
STARTCHAR 0x0288
ENCODING 648
SWIDTH 420 0
DWIDTH 7 0
BBX 6 13 1 -3
BITMAP
20
20
20
F8
20
20
20
20
20
20
20
24
1C
ENDCHAR
STARTCHAR 0x0289
ENCODING 649
SWIDTH 420 0
DWIDTH 7 0
BBX 6 7 1 0
BITMAP
D8
48
48
FC
48
48
3C
ENDCHAR
STARTCHAR 0x028A
ENCODING 650
SWIDTH 420 0
DWIDTH 7 0
BBX 6 7 1 0
BITMAP
CC
48
48
84
84
84
78
ENDCHAR
STARTCHAR 0x028B
ENCODING 651
SWIDTH 480 0
DWIDTH 8 0
BBX 7 8 1 0
BITMAP
08
E4
42
42
42
42
44
38
ENDCHAR
STARTCHAR 0x028C
ENCODING 652
SWIDTH 540 0
DWIDTH 9 0
BBX 8 7 1 0
BITMAP
18
18
18
24
24
24
E7
ENDCHAR
STARTCHAR 0x028D
ENCODING 653
SWIDTH 720 0
DWIDTH 12 0
BBX 11 7 0 0
BITMAP
1100
1100
2A80
2A80
2A80
2480
EEE0
ENDCHAR
STARTCHAR 0x028E
ENCODING 654
SWIDTH 540 0
DWIDTH 9 0
BBX 8 10 0 0
BITMAP
07
09
08
18
18
18
24
24
24
E7
ENDCHAR
STARTCHAR 0x028F
ENCODING 655
SWIDTH 480 0
DWIDTH 8 0
BBX 7 7 1 0
BITMAP
EE
44
28
38
10
10
38
ENDCHAR
STARTCHAR 0x0290
ENCODING 656
SWIDTH 480 0
DWIDTH 8 0
BBX 8 10 1 -3
BITMAP
F8
90
90
20
48
48
F8
08
09
07
ENDCHAR
STARTCHAR 0x0291
ENCODING 657
SWIDTH 420 0
DWIDTH 7 0
BBX 6 8 1 -1
BITMAP
F8
90
90
20
48
54
FC
20
ENDCHAR
STARTCHAR 0x0292
ENCODING 658
SWIDTH 360 0
DWIDTH 6 0
BBX 5 9 1 0
BITMAP
F8
10
20
70
08
08
C8
88
70
ENDCHAR
STARTCHAR 0x0293
ENCODING 659
SWIDTH 360 0
DWIDTH 6 0
BBX 5 10 1 -1
BITMAP
F8
10
20
70
08
08
C8
A8
70
08
ENDCHAR
STARTCHAR 0x0294
ENCODING 660
SWIDTH 360 0
DWIDTH 6 0
BBX 5 11 1 0
BITMAP
70
88
08
08
08
70
40
40
40
40
40
ENDCHAR
STARTCHAR 0x0295
ENCODING 661
SWIDTH 360 0
DWIDTH 6 0
BBX 5 11 1 0
BITMAP
70
88
80
80
80
70
10
10
10
10
10
ENDCHAR
STARTCHAR 0x0296
ENCODING 662
SWIDTH 360 0
DWIDTH 6 0
BBX 5 11 1 0
BITMAP
40
40
40
40
40
70
08
08
08
88
70
ENDCHAR
STARTCHAR 0x0297
ENCODING 663
SWIDTH 360 0
DWIDTH 6 0
BBX 5 11 1 0
BITMAP
70
88
80
80
80
80
80
80
80
88
70
ENDCHAR
STARTCHAR 0x0298
ENCODING 664
SWIDTH 420 0
DWIDTH 7 0
BBX 6 6 1 1
BITMAP
30
48
B4
B4
48
30
ENDCHAR
STARTCHAR 0x0299
ENCODING 665
SWIDTH 420 0
DWIDTH 7 0
BBX 6 7 1 0
BITMAP
F8
44
44
78
44
44
F8
ENDCHAR
STARTCHAR 0x029A
ENCODING 666
SWIDTH 480 0
DWIDTH 8 0
BBX 7 7 1 0
BITMAP
78
84
82
72
82
84
78
ENDCHAR
STARTCHAR 0x029B
ENCODING 667
SWIDTH 540 0
DWIDTH 9 0
BBX 8 8 1 0
BITMAP
03
35
4C
84
80
8E
44
3C
ENDCHAR
STARTCHAR 0x029C
ENCODING 668
SWIDTH 480 0
DWIDTH 8 0
BBX 7 7 1 0
BITMAP
EE
44
44
7C
44
44
EE
ENDCHAR
STARTCHAR 0x029D
ENCODING 669
SWIDTH 240 0
DWIDTH 4 0
BBX 6 15 -1 -3
BITMAP
30
30
00
00
00
30
10
10
10
10
10
10
7C
90
60
ENDCHAR
STARTCHAR 0x029E
ENCODING 670
SWIDTH 480 0
DWIDTH 8 0
BBX 7 12 1 0
BITMAP
EE
24
34
1C
14
24
F4
04
04
04
04
06
ENDCHAR
STARTCHAR 0x029F
ENCODING 671
SWIDTH 420 0
DWIDTH 7 0
BBX 6 7 1 0
BITMAP
E0
40
40
40
44
4C
FC
ENDCHAR
STARTCHAR 0x02A0
ENCODING 672
SWIDTH 480 0
DWIDTH 8 0
BBX 7 12 1 -3
BITMAP
06
0A
78
48
88
88
88
48
78
08
08
1C
ENDCHAR
STARTCHAR 0x02A1
ENCODING 673
SWIDTH 420 0
DWIDTH 7 0
BBX 6 11 0 0
BITMAP
38
44
04
04
04
38
20
F8
20
20
20
ENDCHAR
STARTCHAR 0x02A2
ENCODING 674
SWIDTH 420 0
DWIDTH 7 0
BBX 6 11 1 0
BITMAP
70
88
80
80
80
70
10
7C
10
10
10
ENDCHAR
STARTCHAR 0x02A3
ENCODING 675
SWIDTH 660 0
DWIDTH 11 0
BBX 10 12 1 0
BITMAP
1800
0800
0800
0800
0800
7FC0
8C80
8880
8900
8A40
8A40
7FC0
ENDCHAR
STARTCHAR 0x02A4
ENCODING 676
SWIDTH 660 0
DWIDTH 11 0
BBX 10 14 1 -2
BITMAP
1800
0800
0800
0800
0800
7FC0
8880
8900
8B80
8840
8840
7E40
0440
0380
ENDCHAR
STARTCHAR 0x02A5
ENCODING 677
SWIDTH 720 0
DWIDTH 12 0
BBX 11 13 1 -1
BITMAP
1800
0800
0800
0800
0800
7FC0
8C80
8880
8900
8A40
8AA0
7FC0
0100
ENDCHAR
STARTCHAR 0x02A6
ENCODING 678
SWIDTH 600 0
DWIDTH 10 0
BBX 9 10 0 0
BITMAP
2000
2000
2000
F380
2480
2400
2300
2080
2080
1F00
ENDCHAR
STARTCHAR 0x02A7
ENCODING 679
SWIDTH 540 0
DWIDTH 9 0
BBX 10 14 0 -3
BITMAP
01C0
2240
2200
2200
FA00
2200
2200
2200
2200
2600
1A00
0200
1200
1C00
ENDCHAR
STARTCHAR 0x02A8
ENCODING 680
SWIDTH 720 0
DWIDTH 12 0
BBX 11 11 0 -1
BITMAP
2000
2000
2000
F9C0
2220
2200
2200
2240
26A0
19C0
0200
ENDCHAR
STARTCHAR 0x0066
ENCODING 681
SWIDTH 660 0
DWIDTH 11 0
BBX 10 15 1 -3
BITMAP
3800
4800
4000
4000
4000
FF80
4440
4440
4440
4440
4440
EE40
0040
0140
0180
ENDCHAR
STARTCHAR 0x006C
ENCODING 682
SWIDTH 480 0
DWIDTH 8 0
BBX 7 12 1 0
BITMAP
C0
40
40
40
40
5E
62
60
5C
42
62
FC
ENDCHAR
STARTCHAR 0x006C
ENCODING 683
SWIDTH 480 0
DWIDTH 8 0
BBX 7 12 1 0
BITMAP
C0
40
40
40
40
7E
64
64
48
52
52
FE
ENDCHAR
STARTCHAR 0x0077
ENCODING 684
SWIDTH 600 0
DWIDTH 10 0
BBX 9 11 1 0
BITMAP
DD80
4900
5500
5500
2200
0000
DD80
4900
5500
5500
2200
ENDCHAR
STARTCHAR 0x0077
ENCODING 685
SWIDTH 480 0
DWIDTH 8 0
BBX 7 11 1 0
BITMAP
FE
82
82
82
00
00
00
FE
82
82
82
ENDCHAR
STARTCHAR 0x02B0
ENCODING 688
SWIDTH 480 0
DWIDTH 8 0
BBX 7 12 1 6
BITMAP
C0
40
40
40
40
78
44
44
44
44
44
EE
ENDCHAR
STARTCHAR 0x02B1
ENCODING 689
SWIDTH 480 0
DWIDTH 8 0
BBX 7 12 1 6
BITMAP
38
48
40
40
40
78
44
44
44
44
44
EE
ENDCHAR
STARTCHAR 0x02B2
ENCODING 690
SWIDTH 240 0
DWIDTH 4 0
BBX 3 13 0 3
BITMAP
60
60
00
60
20
20
20
20
20
20
20
A0
C0
ENDCHAR
STARTCHAR 0x02B3
ENCODING 691
SWIDTH 360 0
DWIDTH 6 0
BBX 5 7 1 6
BITMAP
D0
68
40
40
40
40
E0
ENDCHAR
STARTCHAR 0x02B4
ENCODING 692
SWIDTH 360 0
DWIDTH 6 0
BBX 5 7 1 6
BITMAP
38
10
10
10
10
B0
58
ENDCHAR
STARTCHAR 0x02B5
ENCODING 693
SWIDTH 420 0
DWIDTH 7 0
BBX 6 9 1 4
BITMAP
38
10
10
10
10
B0
50
14
08
ENDCHAR
STARTCHAR 0x02B6
ENCODING 694
SWIDTH 480 0
DWIDTH 8 0
BBX 7 7 1 6
BITMAP
E6
48
50
70
48
48
F0
ENDCHAR
STARTCHAR 0x02B7
ENCODING 695
SWIDTH 660 0
DWIDTH 11 0
BBX 11 7 0 6
BITMAP
EEE0
2480
2A80
2A80
2A80
1100
1100
ENDCHAR
STARTCHAR 0x02B8
ENCODING 696
SWIDTH 480 0
DWIDTH 8 0
BBX 8 10 0 3
BITMAP
E7
24
24
24
18
18
18
10
90
E0
ENDCHAR
STARTCHAR 0x02B9
ENCODING 697
SWIDTH 300 0
DWIDTH 5 0
BBX 4 5 1 9
BITMAP
30
30
60
40
80
ENDCHAR
STARTCHAR 0x02BA
ENCODING 698
SWIDTH 540 0
DWIDTH 9 0
BBX 8 5 1 9
BITMAP
33
33
66
44
88
ENDCHAR
STARTCHAR 0x02BB
ENCODING 699
SWIDTH 300 0
DWIDTH 5 0
BBX 2 5 1 7
BITMAP
40
80
80
C0
C0
ENDCHAR
STARTCHAR 0x02BC
ENCODING 700
SWIDTH 300 0
DWIDTH 5 0
BBX 2 5 1 7
BITMAP
C0
C0
40
40
80
ENDCHAR
STARTCHAR 0x02BD
ENCODING 701
SWIDTH 300 0
DWIDTH 5 0
BBX 2 5 1 7
BITMAP
C0
C0
80
80
40
ENDCHAR
STARTCHAR 0x02BE
ENCODING 702
SWIDTH 240 0
DWIDTH 4 0
BBX 2 5 1 7
BITMAP
80
40
40
40
80
ENDCHAR
STARTCHAR 0x02BF
ENCODING 703
SWIDTH 240 0
DWIDTH 4 0
BBX 2 5 1 7
BITMAP
40
80
80
80
40
ENDCHAR
STARTCHAR 0x02C0
ENCODING 704
SWIDTH 360 0
DWIDTH 6 0
BBX 5 10 1 6
BITMAP
70
88
08
08
08
70
40
40
40
40
ENDCHAR
STARTCHAR 0x02C1
ENCODING 705
SWIDTH 360 0
DWIDTH 6 0
BBX 5 10 1 6
BITMAP
70
88
80
80
80
70
10
10
10
10
ENDCHAR
STARTCHAR 0x02C2
ENCODING 706
SWIDTH 540 0
DWIDTH 9 0
BBX 8 7 1 6
BITMAP
03
0C
30
C0
30
0C
03
ENDCHAR
STARTCHAR 0x02C3
ENCODING 707
SWIDTH 540 0
DWIDTH 9 0
BBX 8 7 1 6
BITMAP
C0
30
0C
03
0C
30
C0
ENDCHAR
STARTCHAR 0x02C4
ENCODING 708
SWIDTH 480 0
DWIDTH 8 0
BBX 7 8 2 6
BITMAP
82
82
44
44
28
28
10
10
ENDCHAR
STARTCHAR 0x02C5
ENCODING 709
SWIDTH 480 0
DWIDTH 8 0
BBX 7 8 2 6
BITMAP
10
10
28
28
44
44
82
82
ENDCHAR
STARTCHAR 0x02C6
ENCODING 710
SWIDTH 360 0
DWIDTH 6 0
BBX 5 3 1 10
BITMAP
20
70
88
ENDCHAR
STARTCHAR 0x02C7
ENCODING 711
SWIDTH 360 0
DWIDTH 6 0
BBX 5 3 1 10
BITMAP
88
70
20
ENDCHAR
STARTCHAR 0x02C8
ENCODING 712
SWIDTH 120 0
DWIDTH 2 0
BBX 1 3 1 10
BITMAP
80
80
80
ENDCHAR
STARTCHAR 0x02C9
ENCODING 713
SWIDTH 360 0
DWIDTH 6 0
BBX 5 1 1 12
BITMAP
F8
ENDCHAR
STARTCHAR 0x02CA
ENCODING 714
SWIDTH 300 0
DWIDTH 5 0
BBX 3 4 1 11
BITMAP
20
60
40
80
ENDCHAR
STARTCHAR 0x02CB
ENCODING 715
SWIDTH 300 0
DWIDTH 5 0
BBX 3 4 1 11
BITMAP
80
C0
40
20
ENDCHAR
STARTCHAR 0x02CC
ENCODING 716
SWIDTH 120 0
DWIDTH 2 0
BBX 1 3 1 -3
BITMAP
80
80
80
ENDCHAR
STARTCHAR 0x02CD
ENCODING 717
SWIDTH 360 0
DWIDTH 6 0
BBX 5 1 1 -1
BITMAP
F8
ENDCHAR
STARTCHAR 0x02CE
ENCODING 718
SWIDTH 300 0
DWIDTH 5 0
BBX 3 4 1 -2
BITMAP
80
C0
40
20
ENDCHAR
STARTCHAR 0x02CF
ENCODING 719
SWIDTH 300 0
DWIDTH 5 0
BBX 3 4 1 -2
BITMAP
20
60
40
80
ENDCHAR
STARTCHAR 0x02D0
ENCODING 720
SWIDTH 240 0
DWIDTH 4 0
BBX 3 9 1 0
BITMAP
E0
E0
40
00
00
00
40
E0
E0
ENDCHAR
STARTCHAR 0x02D1
ENCODING 721
SWIDTH 240 0
DWIDTH 4 0
BBX 3 3 1 6
BITMAP
E0
E0
40
ENDCHAR
STARTCHAR 0x02D2
ENCODING 722
SWIDTH 240 0
DWIDTH 4 0
BBX 2 5 1 4
BITMAP
80
40
40
40
80
ENDCHAR
STARTCHAR 0x02D3
ENCODING 723
SWIDTH 240 0
DWIDTH 4 0
BBX 2 5 1 4
BITMAP
40
80
80
80
40
ENDCHAR
STARTCHAR 0x02D4
ENCODING 724
SWIDTH 360 0
DWIDTH 6 0
BBX 5 4 1 6
BITMAP
20
20
20
F8
ENDCHAR
STARTCHAR 0x02D5
ENCODING 725
SWIDTH 360 0
DWIDTH 6 0
BBX 5 4 1 3
BITMAP
F8
20
20
20
ENDCHAR
STARTCHAR 0x02D6
ENCODING 726
SWIDTH 360 0
DWIDTH 6 0
BBX 5 5 1 2
BITMAP
20
20
F8
20
20
ENDCHAR
STARTCHAR 0x02D7
ENCODING 727
SWIDTH 360 0
DWIDTH 6 0
BBX 5 1 1 4
BITMAP
F8
ENDCHAR
STARTCHAR 0x02D8
ENCODING 728
SWIDTH 360 0
DWIDTH 6 0
BBX 5 2 1 10
BITMAP
88
70
ENDCHAR
STARTCHAR 0x02D9
ENCODING 729
SWIDTH 180 0
DWIDTH 3 0
BBX 2 2 1 10
BITMAP
C0
C0
ENDCHAR
STARTCHAR 0x02DA
ENCODING 730
SWIDTH 300 0
DWIDTH 5 0
BBX 4 4 1 10
BITMAP
60
90
90
60
ENDCHAR
STARTCHAR 0x02DB
ENCODING 731
SWIDTH 300 0
DWIDTH 5 0
BBX 4 3 1 -3
BITMAP
40
90
60
ENDCHAR
STARTCHAR 0x02DC
ENCODING 732
SWIDTH 360 0
DWIDTH 6 0
BBX 5 3 1 10
BITMAP
48
A8
90
ENDCHAR
STARTCHAR 0x02DD
ENCODING 733
SWIDTH 480 0
DWIDTH 8 0
BBX 6 4 1 11
BITMAP
24
6C
48
90
ENDCHAR
STARTCHAR 0x02DE
ENCODING 734
SWIDTH 360 0
DWIDTH 6 0
BBX 5 4 1 4
BITMAP
40
A0
28
10
ENDCHAR
STARTCHAR 0x00D7
ENCODING 735
SWIDTH 420 0
DWIDTH 7 0
BBX 5 5 1 4
BITMAP
88
50
20
50
88
ENDCHAR
STARTCHAR 0x02E0
ENCODING 736
SWIDTH 600 0
DWIDTH 10 0
BBX 9 10 1 6
BITMAP
E380
4100
2200
2200
1400
1400
0800
1400
1400
0800
ENDCHAR
STARTCHAR 0x02E1
ENCODING 737
SWIDTH 240 0
DWIDTH 4 0
BBX 3 12 1 6
BITMAP
C0
40
40
40
40
40
40
40
40
40
40
E0
ENDCHAR
STARTCHAR 0x02E2
ENCODING 738
SWIDTH 360 0
DWIDTH 6 0
BBX 5 7 1 6
BITMAP
78
88
80
70
08
88
F0
ENDCHAR
STARTCHAR 0x02E3
ENCODING 739
SWIDTH 420 0
DWIDTH 7 0
BBX 6 7 1 6
BITMAP
CC
48
30
30
30
48
CC
ENDCHAR
STARTCHAR 0x02E4
ENCODING 740
SWIDTH 360 0
DWIDTH 6 0
BBX 5 12 1 4
BITMAP
70
88
80
80
80
70
10
10
10
10
10
10
ENDCHAR
STARTCHAR 0x02E5
ENCODING 741
SWIDTH 360 0
DWIDTH 6 0
BBX 5 9 1 4
BITMAP
F8
08
08
08
08
08
08
08
08
ENDCHAR
STARTCHAR 0x02E6
ENCODING 742
SWIDTH 360 0
DWIDTH 6 0
BBX 5 9 1 4
BITMAP
08
08
F8
08
08
08
08
08
08
ENDCHAR
STARTCHAR 0x02E7
ENCODING 743
SWIDTH 360 0
DWIDTH 6 0
BBX 5 9 1 4
BITMAP
08
08
08
08
F8
08
08
08
08
ENDCHAR
STARTCHAR 0x02E8
ENCODING 744
SWIDTH 360 0
DWIDTH 6 0
BBX 5 9 1 4
BITMAP
08
08
08
08
08
08
F8
08
08
ENDCHAR
STARTCHAR 0x02E9
ENCODING 745
SWIDTH 360 0
DWIDTH 6 0
BBX 5 9 1 4
BITMAP
08
08
08
08
08
08
08
08
F8
ENDCHAR
STARTCHAR char746
ENCODING 746
SWIDTH 300 0
DWIDTH 5 0
BBX 3 4 1 6
BITMAP
80
80
80
E0
ENDCHAR
STARTCHAR char746
ENCODING 747
SWIDTH 300 0
DWIDTH 5 0
BBX 3 5 1 5
BITMAP
80
80
E0
80
80
ENDCHAR
STARTCHAR char748
ENCODING 748
SWIDTH 420 0
DWIDTH 7 0
BBX 5 4 1 0
BITMAP
88
50
70
20
ENDCHAR
STARTCHAR 0x02CD
ENCODING 749
SWIDTH 480 0
DWIDTH 8 0
BBX 6 3 1 9
BITMAP
FC
00
FC
ENDCHAR
STARTCHAR 0x0022
ENCODING 750
SWIDTH 480 0
DWIDTH 8 0
BBX 5 5 1 7
BITMAP
D8
D8
48
48
90
ENDCHAR
STARTCHAR 0x0300
ENCODING 768
SWIDTH 0 0
DWIDTH 0 0
BBX 3 4 0 12
BITMAP
80
C0
40
20
ENDCHAR
STARTCHAR 0x0301
ENCODING 769
SWIDTH 0 0
DWIDTH 0 0
BBX 3 4 0 12
BITMAP
20
60
40
80
ENDCHAR
STARTCHAR 0x0302
ENCODING 770
SWIDTH 0 0
DWIDTH 0 0
BBX 5 3 0 12
BITMAP
20
70
88
ENDCHAR
STARTCHAR 0x0303
ENCODING 771
SWIDTH 0 0
DWIDTH 0 0
BBX 5 3 0 12
BITMAP
48
A8
90
ENDCHAR
STARTCHAR 0x0304
ENCODING 772
SWIDTH 0 0
DWIDTH 0 0
BBX 5 1 0 12
BITMAP
F8
ENDCHAR
STARTCHAR 0x0305
ENCODING 773
SWIDTH 0 0
DWIDTH 0 0
BBX 10 1 0 12
BITMAP
FFC0
ENDCHAR
STARTCHAR 0x0306
ENCODING 774
SWIDTH 0 0
DWIDTH 0 0
BBX 5 2 0 12
BITMAP
88
70
ENDCHAR
STARTCHAR 0x0307
ENCODING 775
SWIDTH 0 0
DWIDTH 0 0
BBX 2 2 0 12
BITMAP
C0
C0
ENDCHAR
STARTCHAR 0x0308
ENCODING 776
SWIDTH 0 0
DWIDTH 0 0
BBX 5 2 0 12
BITMAP
D8
D8
ENDCHAR
STARTCHAR 0x0309
ENCODING 777
SWIDTH 0 0
DWIDTH 0 0
BBX 3 5 0 12
BITMAP
40
A0
20
40
40
ENDCHAR
STARTCHAR 0x030A
ENCODING 778
SWIDTH 0 0
DWIDTH 0 0
BBX 4 4 0 12
BITMAP
60
90
90
60
ENDCHAR
STARTCHAR 0x030B
ENCODING 779
SWIDTH 0 0
DWIDTH 0 0
BBX 6 4 0 12
BITMAP
24
6C
48
90
ENDCHAR
STARTCHAR 0x030C
ENCODING 780
SWIDTH 0 0
DWIDTH 0 0
BBX 5 3 0 12
BITMAP
88
70
20
ENDCHAR
STARTCHAR 0x030D
ENCODING 781
SWIDTH 0 0
DWIDTH 0 0
BBX 1 4 0 12
BITMAP
80
80
80
80
ENDCHAR
STARTCHAR 0x030E
ENCODING 782
SWIDTH 120 0
DWIDTH 2 0
BBX 3 4 0 12
BITMAP
A0
A0
A0
A0
ENDCHAR
STARTCHAR 0x030F
ENCODING 783
SWIDTH 0 0
DWIDTH 0 0
BBX 6 4 0 12
BITMAP
90
D8
48
24
ENDCHAR
STARTCHAR 0x0310
ENCODING 784
SWIDTH 0 0
DWIDTH 0 0
BBX 6 4 0 12
BITMAP
30
30
84
78
ENDCHAR
STARTCHAR 0x0311
ENCODING 785
SWIDTH 0 0
DWIDTH 0 0
BBX 5 2 0 12
BITMAP
70
88
ENDCHAR
STARTCHAR 0x0312
ENCODING 786
SWIDTH 0 0
DWIDTH 0 0
BBX 2 5 0 12
BITMAP
40
80
80
C0
C0
ENDCHAR
STARTCHAR 0x0313
ENCODING 787
SWIDTH 0 0
DWIDTH 0 0
BBX 2 5 0 12
BITMAP
C0
C0
40
40
80
ENDCHAR
STARTCHAR 0x0314
ENCODING 788
SWIDTH 0 0
DWIDTH 0 0
BBX 2 5 0 12
BITMAP
C0
C0
80
80
40
ENDCHAR
STARTCHAR 0x0315
ENCODING 789
SWIDTH 0 0
DWIDTH 0 0
BBX 2 5 0 12
BITMAP
C0
C0
40
40
80
ENDCHAR
STARTCHAR 0x0316
ENCODING 790
SWIDTH 0 0
DWIDTH 0 0
BBX 3 4 0 -4
BITMAP
80
C0
40
20
ENDCHAR
STARTCHAR 0x0317
ENCODING 791
SWIDTH 0 0
DWIDTH 0 0
BBX 3 4 0 -4
BITMAP
20
60
40
80
ENDCHAR
STARTCHAR 0x0318
ENCODING 792
SWIDTH 180 0
DWIDTH 3 0
BBX 3 5 0 -5
BITMAP
20
20
E0
20
20
ENDCHAR
STARTCHAR 0x0319
ENCODING 793
SWIDTH 0 0
DWIDTH 0 0
BBX 3 5 0 -5
BITMAP
80
80
E0
80
80
ENDCHAR
STARTCHAR 0x031A
ENCODING 794
SWIDTH 300 0
DWIDTH 5 0
BBX 5 3 0 12
BITMAP
F8
08
08
ENDCHAR
STARTCHAR 0x031B
ENCODING 795
SWIDTH 0 0
DWIDTH 0 0
BBX 3 4 0 9
BITMAP
60
60
20
C0
ENDCHAR
STARTCHAR 0x031C
ENCODING 796
SWIDTH 120 0
DWIDTH 2 0
BBX 2 5 0 -5
BITMAP
40
80
80
80
40
ENDCHAR
STARTCHAR 0x031D
ENCODING 797
SWIDTH 300 0
DWIDTH 5 0
BBX 5 3 0 -3
BITMAP
20
20
F8
ENDCHAR
STARTCHAR 0x031E
ENCODING 798
SWIDTH 300 0
DWIDTH 5 0
BBX 5 3 0 -3
BITMAP
F8
20
20
ENDCHAR
STARTCHAR 0x031F
ENCODING 799
SWIDTH 300 0
DWIDTH 5 0
BBX 5 5 0 -5
BITMAP
20
20
F8
20
20
ENDCHAR
STARTCHAR 0x0320
ENCODING 800
SWIDTH 0 0
DWIDTH 0 0
BBX 4 1 0 -1
BITMAP
F0
ENDCHAR
STARTCHAR 0x0321
ENCODING 801
SWIDTH 0 0
DWIDTH 0 0
BBX 3 5 0 -5
BITMAP
20
20
20
A0
C0
ENDCHAR
STARTCHAR 0x0322
ENCODING 802
SWIDTH 0 0
DWIDTH 0 0
BBX 3 5 0 -5
BITMAP
80
80
80
A0
60
ENDCHAR
STARTCHAR 0x0323
ENCODING 803
SWIDTH 0 0
DWIDTH 0 0
BBX 2 2 0 -2
BITMAP
C0
C0
ENDCHAR
STARTCHAR 0x0324
ENCODING 804
SWIDTH 0 0
DWIDTH 0 0
BBX 5 2 0 -2
BITMAP
D8
D8
ENDCHAR
STARTCHAR 0x0325
ENCODING 805
SWIDTH 0 0
DWIDTH 0 0
BBX 4 4 0 -4
BITMAP
60
90
90
60
ENDCHAR
STARTCHAR 0x0326
ENCODING 806
SWIDTH 0 0
DWIDTH 0 0
BBX 2 5 0 -5
BITMAP
C0
C0
40
40
80
ENDCHAR
STARTCHAR 0x0327
ENCODING 807
SWIDTH 420 0
DWIDTH 7 0
BBX 3 3 2 -3
BITMAP
40
20
E0
ENDCHAR
STARTCHAR 0x0328
ENCODING 808
SWIDTH 0 0
DWIDTH 0 0
BBX 4 3 0 -3
BITMAP
40
90
60
ENDCHAR
STARTCHAR 0x0329
ENCODING 809
SWIDTH 0 0
DWIDTH 0 0
BBX 1 4 0 -4
BITMAP
80
80
80
80
ENDCHAR
STARTCHAR 0x032A
ENCODING 810
SWIDTH 0 0
DWIDTH 0 0
BBX 5 2 0 -2
BITMAP
F8
88
ENDCHAR
STARTCHAR 0x032B
ENCODING 811
SWIDTH 0 0
DWIDTH 0 0
BBX 5 3 0 -3
BITMAP
A8
A8
50
ENDCHAR
STARTCHAR 0x032C
ENCODING 812
SWIDTH 0 0
DWIDTH 0 0
BBX 5 3 0 -3
BITMAP
88
70
20
ENDCHAR
STARTCHAR 0x032D
ENCODING 813
SWIDTH 0 0
DWIDTH 0 0
BBX 5 3 0 -3
BITMAP
20
70
88
ENDCHAR
STARTCHAR 0x032E
ENCODING 814
SWIDTH 0 0
DWIDTH 0 0
BBX 5 2 0 -2
BITMAP
88
70
ENDCHAR
STARTCHAR 0x032F
ENCODING 815
SWIDTH 0 0
DWIDTH 0 0
BBX 5 2 0 -2
BITMAP
70
88
ENDCHAR
STARTCHAR 0x0330
ENCODING 816
SWIDTH 0 0
DWIDTH 0 0
BBX 5 3 0 -3
BITMAP
48
A8
90
ENDCHAR
STARTCHAR 0x0331
ENCODING 817
SWIDTH 0 0
DWIDTH 0 0
BBX 5 1 0 -1
BITMAP
F8
ENDCHAR
STARTCHAR 0x0332
ENCODING 818
SWIDTH 0 0
DWIDTH 0 0
BBX 10 1 0 -1
BITMAP
FFC0
ENDCHAR
STARTCHAR 0x0333
ENCODING 819
SWIDTH 0 0
DWIDTH 0 0
BBX 10 3 0 -3
BITMAP
FFC0
0000
FFC0
ENDCHAR
STARTCHAR 0x0334
ENCODING 820
SWIDTH 0 0
DWIDTH 0 0
BBX 5 3 0 6
BITMAP
48
A8
90
ENDCHAR
STARTCHAR 0x0335
ENCODING 821
SWIDTH 0 0
DWIDTH 0 0
BBX 5 1 0 6
BITMAP
F8
ENDCHAR
STARTCHAR 0x0336
ENCODING 822
SWIDTH 0 0
DWIDTH 0 0
BBX 10 1 0 6
BITMAP
FFC0
ENDCHAR
STARTCHAR 0x0337
ENCODING 823
SWIDTH 0 0
DWIDTH 0 0
BBX 3 6 0 6
BITMAP
20
20
40
40
80
80
ENDCHAR
STARTCHAR 0x0338
ENCODING 824
SWIDTH 0 0
DWIDTH 0 0
BBX 3 12 0 1
BITMAP
20
20
20
20
40
40
40
40
80
80
80
80
ENDCHAR
STARTCHAR 0x0339
ENCODING 825
SWIDTH 120 0
DWIDTH 2 0
BBX 2 5 0 -5
BITMAP
80
40
40
40
80
ENDCHAR
STARTCHAR 0x033A
ENCODING 826
SWIDTH 0 0
DWIDTH 0 0
BBX 5 2 0 -2
BITMAP
88
F8
ENDCHAR
STARTCHAR 0x033B
ENCODING 827
SWIDTH 0 0
DWIDTH 0 0
BBX 3 3 0 -3
BITMAP
E0
A0
E0
ENDCHAR
STARTCHAR 0x033C
ENCODING 828
SWIDTH 0 0
DWIDTH 0 0
BBX 5 3 0 -3
BITMAP
D8
20
20
ENDCHAR
STARTCHAR 0x033D
ENCODING 829
SWIDTH 0 0
DWIDTH 0 0
BBX 4 3 0 12
BITMAP
90
60
90
ENDCHAR
STARTCHAR 0x033E
ENCODING 830
SWIDTH 0 0
DWIDTH 0 0
BBX 3 5 0 12
BITMAP
40
80
40
20
40
ENDCHAR
STARTCHAR 0x033F
ENCODING 831
SWIDTH 0 0
DWIDTH 0 0
BBX 10 3 0 12
BITMAP
FFC0
0000
FFC0
ENDCHAR
STARTCHAR 0x0340
ENCODING 832
SWIDTH 0 0
DWIDTH 0 0
BBX 3 4 0 12
BITMAP
80
C0
40
20
ENDCHAR
STARTCHAR 0x0341
ENCODING 833
SWIDTH 0 0
DWIDTH 0 0
BBX 3 4 0 12
BITMAP
20
60
40
80
ENDCHAR
STARTCHAR 0x0342
ENCODING 834
SWIDTH 0 0
DWIDTH 0 0
BBX 5 3 0 12
BITMAP
48
A8
90
ENDCHAR
STARTCHAR 0x0343
ENCODING 835
SWIDTH 0 0
DWIDTH 0 0
BBX 2 5 0 12
BITMAP
C0
C0
40
40
80
ENDCHAR
STARTCHAR 0x0385
ENCODING 836
SWIDTH 540 0
DWIDTH 9 0
BBX 6 4 3 12
BITMAP
10
10
EC
CC
ENDCHAR
STARTCHAR 0x0345
ENCODING 837
SWIDTH 300 0
DWIDTH 5 0
BBX 4 3 1 -3
BITMAP
40
90
60
ENDCHAR
STARTCHAR char838
ENCODING 838
SWIDTH 0 0
DWIDTH 0 0
BBX 5 2 1 12
BITMAP
F8
88
ENDCHAR
STARTCHAR 0x0333
ENCODING 839
SWIDTH 0 0
DWIDTH 0 0
BBX 5 3 1 -3
BITMAP
F8
00
F8
ENDCHAR
STARTCHAR char840
ENCODING 840
SWIDTH 0 0
DWIDTH 0 0
BBX 3 4 1 -4
BITMAP
A0
A0
A0
A0
ENDCHAR
STARTCHAR char840
ENCODING 841
SWIDTH 0 0
DWIDTH 0 0
BBX 3 4 1 -4
BITMAP
E0
20
20
20
ENDCHAR
STARTCHAR 0x0342
ENCODING 842
SWIDTH 0 0
DWIDTH 0 0
BBX 7 3 0 12
BITMAP
6A
92
AC
ENDCHAR
STARTCHAR 0x0342
ENCODING 843
SWIDTH 0 0
DWIDTH 0 0
BBX 7 5 0 11
BITMAP
08
62
92
8C
20
ENDCHAR
STARTCHAR 0x0342
ENCODING 844
SWIDTH 0 0
DWIDTH 0 0
BBX 5 6 0 12
BITMAP
48
A8
90
48
A8
90
ENDCHAR
STARTCHAR 0x0333
ENCODING 845
SWIDTH 0 0
DWIDTH 0 0
BBX 7 3 1 -3
BITMAP
44
FE
44
ENDCHAR
STARTCHAR char840
ENCODING 846
SWIDTH 0 0
DWIDTH 0 0
BBX 3 5 1 -5
BITMAP
40
E0
40
40
40
ENDCHAR
STARTCHAR 0x0360
ENCODING 864
SWIDTH 0 0
DWIDTH 0 0
BBX 11 3 0 12
BITMAP
7820
8420
83C0
ENDCHAR
STARTCHAR 0x0361
ENCODING 865
SWIDTH 0 0
DWIDTH 0 0
BBX 11 3 0 12
BITMAP
3F80
4040
8020
ENDCHAR
STARTCHAR 0x0333
ENCODING 866
SWIDTH 0 0
DWIDTH 0 0
BBX 9 3 1 -3
BITMAP
0100
FF80
0100
ENDCHAR
STARTCHAR 0x0374
ENCODING 884
SWIDTH 420 0
DWIDTH 7 0
BBX 3 4 4 12
BITMAP
20
60
40
80
ENDCHAR
STARTCHAR 0x0375
ENCODING 885
SWIDTH 420 0
DWIDTH 7 0
BBX 3 4 4 -2
BITMAP
20
40
C0
80
ENDCHAR
STARTCHAR 0x037A
ENCODING 890
SWIDTH 420 0
DWIDTH 7 0
BBX 4 4 3 -4
BITMAP
C0
40
50
20
ENDCHAR
STARTCHAR 0x037E
ENCODING 894
SWIDTH 300 0
DWIDTH 5 0
BBX 2 10 1 -3
BITMAP
C0
C0
00
00
00
C0
C0
40
40
80
ENDCHAR
STARTCHAR 0x0384
ENCODING 900
SWIDTH 300 0
DWIDTH 5 0
BBX 2 3 3 12
BITMAP
40
40
80
ENDCHAR
STARTCHAR 0x0385
ENCODING 901
SWIDTH 540 0
DWIDTH 9 0
BBX 6 4 3 12
BITMAP
10
10
EC
CC
ENDCHAR
STARTCHAR 0x0386
ENCODING 902
SWIDTH 660 0
DWIDTH 11 0
BBX 11 12 0 0
BITMAP
1000
1400
2400
0A00
0A00
0A00
1100
1100
1F00
2080
2080
F1E0
ENDCHAR
STARTCHAR 0x0387
ENCODING 903
SWIDTH 420 0
DWIDTH 7 0
BBX 2 2 2 5
BITMAP
C0
C0
ENDCHAR
STARTCHAR 0x0388
ENCODING 904
SWIDTH 780 0
DWIDTH 13 0
BBX 12 12 0 0
BITMAP
4000
7FE0
8820
0820
08A0
0880
0F80
0890
0890
0820
0820
3FE0
ENDCHAR
STARTCHAR 0x0389
ENCODING 905
SWIDTH 840 0
DWIDTH 14 0
BBX 13 12 0 0
BITMAP
4000
7EF8
8820
0820
0820
0820
0FE0
0820
0820
0820
0820
3EF8
ENDCHAR
STARTCHAR 0x038A
ENCODING 906
SWIDTH 420 0
DWIDTH 7 0
BBX 7 12 0 0
BITMAP
40
7E
88
08
08
08
08
08
08
08
08
3E
ENDCHAR
STARTCHAR 0x038C
ENCODING 908
SWIDTH 780 0
DWIDTH 13 0
BBX 11 12 0 0
BITMAP
4000
4F00
9080
2040
4020
4020
4020
4020
4020
2040
1080
0F00
ENDCHAR
STARTCHAR 0x038E
ENCODING 910
SWIDTH 840 0
DWIDTH 14 0
BBX 13 12 0 0
BITMAP
4000
7C78
8820
0440
0440
0280
0380
0100
0100
0100
0100
07C0
ENDCHAR
STARTCHAR 0x038F
ENCODING 911
SWIDTH 720 0
DWIDTH 12 0
BBX 11 12 0 0
BITMAP
4000
4F80
9040
2020
2020
2020
2020
1040
1040
0880
28A0
38E0
ENDCHAR
STARTCHAR 0x0390
ENCODING 912
SWIDTH 360 0
DWIDTH 6 0
BBX 6 12 -1 0
BITMAP
10
10
EC
CC
00
20
60
20
20
20
28
10
ENDCHAR
STARTCHAR 0x0391
ENCODING 913
SWIDTH 660 0
DWIDTH 11 0
BBX 11 11 0 0
BITMAP
0400
0400
0A00
0A00
0A00
1100
1100
1F00
2080
2080
F1E0
ENDCHAR
STARTCHAR 0x0392
ENCODING 914
SWIDTH 660 0
DWIDTH 11 0
BBX 10 11 0 0
BITMAP
FF00
2080
2040
2040
2080
3F00
2080
2040
2040
2080
FF00
ENDCHAR
STARTCHAR 0x0393
ENCODING 915
SWIDTH 540 0
DWIDTH 9 0
BBX 8 11 0 0
BITMAP
FF
21
21
21
20
20
20
20
20
20
F8
ENDCHAR
STARTCHAR 0x0394
ENCODING 916
SWIDTH 720 0
DWIDTH 12 0
BBX 11 11 1 0
BITMAP
0400
0A00
0A00
1100
1100
2080
2080
4040
4040
8020
FFE0
ENDCHAR
STARTCHAR 0x0395
ENCODING 917
SWIDTH 660 0
DWIDTH 11 0
BBX 10 11 0 0
BITMAP
FF80
2080
2080
2280
2200
3E00
2240
2240
2080
2080
FF80
ENDCHAR
STARTCHAR 0x0396
ENCODING 918
SWIDTH 480 0
DWIDTH 8 0
BBX 7 11 1 0
BITMAP
FE
C4
84
88
08
10
22
22
42
46
FE
ENDCHAR
STARTCHAR 0x0397
ENCODING 919
SWIDTH 720 0
DWIDTH 12 0
BBX 11 11 0 0
BITMAP
FBE0
2080
2080
2080
2080
3F80
2080
2080
2080
2080
FBE0
ENDCHAR
STARTCHAR 0x0398
ENCODING 920
SWIDTH 720 0
DWIDTH 12 0
BBX 10 11 1 0
BITMAP
1E00
2100
4080
8040
9240
9E40
9240
8040
4080
2100
1E00
ENDCHAR
STARTCHAR 0x0399
ENCODING 921
SWIDTH 360 0
DWIDTH 6 0
BBX 5 11 1 0
BITMAP
F8
20
20
20
20
20
20
20
20
20
F8
ENDCHAR
STARTCHAR 0x039A
ENCODING 922
SWIDTH 720 0
DWIDTH 12 0
BBX 11 11 1 0
BITMAP
F9E0
2080
2100
2200
2400
2E00
3200
2100
2100
2080
F9E0
ENDCHAR
STARTCHAR 0x039B
ENCODING 923
SWIDTH 720 0
DWIDTH 12 0
BBX 11 11 0 0
BITMAP
0400
0400
0A00
0A00
0A00
1100
1100
1100
2080
2080
F1E0
ENDCHAR
STARTCHAR 0x039C
ENCODING 924
SWIDTH 900 0
DWIDTH 15 0
BBX 14 11 0 0
BITMAP
F03C
3030
3030
2850
2850
2890
2490
2490
2310
2310
FB7C
ENDCHAR
STARTCHAR 0x039D
ENCODING 925
SWIDTH 720 0
DWIDTH 12 0
BBX 11 11 0 0
BITMAP
E3E0
3080
3080
2880
2880
2480
2280
2280
2180
2180
F880
ENDCHAR
STARTCHAR 0x039E
ENCODING 926
SWIDTH 540 0
DWIDTH 9 0
BBX 8 11 1 0
BITMAP
FF
81
00
00
42
7E
42
00
81
81
FF
ENDCHAR
STARTCHAR 0x039F
ENCODING 927
SWIDTH 720 0
DWIDTH 12 0
BBX 10 11 1 0
BITMAP
1E00
2100
4080
8040
8040
8040
8040
8040
4080
2100
1E00
ENDCHAR
STARTCHAR 0x03A0
ENCODING 928
SWIDTH 720 0
DWIDTH 12 0
BBX 11 11 0 0
BITMAP
FFE0
2080
2080
2080
2080
2080
2080
2080
2080
2080
FBE0
ENDCHAR
STARTCHAR 0x03A1
ENCODING 929
SWIDTH 600 0
DWIDTH 10 0
BBX 9 11 0 0
BITMAP
FF00
2180
2080
2080
2180
3F00
2000
2000
2000
2000
F800
ENDCHAR
STARTCHAR 0x03A3
ENCODING 931
SWIDTH 600 0
DWIDTH 10 0
BBX 9 11 1 0
BITMAP
FF80
4180
2080
2080
1000
1800
1000
2080
2080
4180
FF80
ENDCHAR
STARTCHAR 0x03A4
ENCODING 932
SWIDTH 600 0
DWIDTH 10 0
BBX 9 11 1 0
BITMAP
FF80
8880
8880
8880
0800
0800
0800
0800
0800
0800
3E00
ENDCHAR
STARTCHAR 0x03A5
ENCODING 933
SWIDTH 720 0
DWIDTH 12 0
BBX 11 11 0 0
BITMAP
F1E0
2080
1100
1100
0A00
0E00
0400
0400
0400
0400
1F00
ENDCHAR
STARTCHAR C070
ENCODING 934
SWIDTH 600 0
DWIDTH 10 0
BBX 9 11 1 0
BITMAP
3E00
0800
0800
3E00
C980
8880
C980
3E00
0800
0800
3E00
ENDCHAR
STARTCHAR 0x03A7
ENCODING 935
SWIDTH 660 0
DWIDTH 11 0
BBX 11 11 1 0
BITMAP
FBC0
1100
1200
0A00
0C00
0400
0A00
1A00
1100
2080
F1E0
ENDCHAR
STARTCHAR 0x03A8
ENCODING 936
SWIDTH 660 0
DWIDTH 11 0
BBX 10 11 1 0
BITMAP
1F00
0400
C4C0
4480
4480
4480
2480
1F00
0400
0400
1F00
ENDCHAR
STARTCHAR 0x03A9
ENCODING 937
SWIDTH 600 0
DWIDTH 10 0
BBX 9 11 1 0
BITMAP
3E00
4100
8080
8080
8080
8080
4100
4100
2200
A280
E380
ENDCHAR
STARTCHAR 0x03AA
ENCODING 938
SWIDTH 360 0
DWIDTH 6 0
BBX 5 14 1 0
BITMAP
D8
D8
00
F8
20
20
20
20
20
20
20
20
20
F8
ENDCHAR
STARTCHAR 0x03AB
ENCODING 939
SWIDTH 720 0
DWIDTH 12 0
BBX 11 14 0 0
BITMAP
1B00
1B00
0000
F1E0
2080
1100
1100
0A00
0E00
0400
0400
0400
0400
1F00
ENDCHAR
STARTCHAR 0x03AC
ENCODING 940
SWIDTH 480 0
DWIDTH 8 0
BBX 7 11 1 0
BITMAP
10
10
20
00
62
92
94
8C
88
98
66
ENDCHAR
STARTCHAR 0x03AD
ENCODING 941
SWIDTH 360 0
DWIDTH 6 0
BBX 5 11 1 0
BITMAP
10
10
20
00
70
90
80
60
80
88
70
ENDCHAR
STARTCHAR 0x03AE
ENCODING 942
SWIDTH 420 0
DWIDTH 7 0
BBX 6 15 1 -4
BITMAP
08
08
10
00
98
64
44
44
44
44
44
04
04
04
04
ENDCHAR
STARTCHAR 0x03AF
ENCODING 943
SWIDTH 300 0
DWIDTH 5 0
BBX 4 11 1 0
BITMAP
20
20
40
00
40
C0
40
40
40
50
20
ENDCHAR
STARTCHAR 0x03B0
ENCODING 944
SWIDTH 420 0
DWIDTH 7 0
BBX 6 12 1 0
BITMAP
10
10
EC
CC
00
C8
44
44
44
44
48
30
ENDCHAR
STARTCHAR 0x03B1
ENCODING 945
SWIDTH 480 0
DWIDTH 8 0
BBX 7 7 1 0
BITMAP
62
92
94
8C
88
98
66
ENDCHAR
STARTCHAR 0x03B2
ENCODING 946
SWIDTH 360 0
DWIDTH 6 0
BBX 5 16 1 -4
BITMAP
70
88
88
88
88
B0
D0
C8
88
88
88
F0
80
80
80
80
ENDCHAR
STARTCHAR 0x03B3
ENCODING 947
SWIDTH 540 0
DWIDTH 9 0
BBX 8 10 1 -3
BITMAP
43
A4
24
14
14
08
08
08
08
08
ENDCHAR
STARTCHAR 0x03B4
ENCODING 948
SWIDTH 360 0
DWIDTH 6 0
BBX 5 12 1 0
BITMAP
60
90
90
40
20
50
88
88
88
88
88
70
ENDCHAR
STARTCHAR 0x03B5
ENCODING 949
SWIDTH 360 0
DWIDTH 6 0
BBX 5 7 1 0
BITMAP
70
90
80
60
80
88
70
ENDCHAR
STARTCHAR 0x03B6
ENCODING 950
SWIDTH 420 0
DWIDTH 7 0
BBX 6 14 2 -2
BITMAP
8C
78
20
40
40
80
80
80
80
80
80
78
04
08
ENDCHAR
STARTCHAR 0x03B7
ENCODING 951
SWIDTH 420 0
DWIDTH 7 0
BBX 6 11 1 -4
BITMAP
98
64
44
44
44
44
44
04
04
04
04
ENDCHAR
STARTCHAR 0x03B8
ENCODING 952
SWIDTH 360 0
DWIDTH 6 0
BBX 5 11 1 0
BITMAP
20
50
88
88
88
F8
88
88
88
50
20
ENDCHAR
STARTCHAR 0x03B9
ENCODING 953
SWIDTH 300 0
DWIDTH 5 0
BBX 4 7 1 0
BITMAP
40
C0
40
40
40
50
20
ENDCHAR
STARTCHAR 0x03BA
ENCODING 954
SWIDTH 480 0
DWIDTH 8 0
BBX 7 7 1 0
BITMAP
EE
48
50
70
48
48
E6
ENDCHAR
STARTCHAR 0x03BB
ENCODING 955
SWIDTH 420 0
DWIDTH 7 0
BBX 6 10 1 0
BITMAP
80
40
20
20
30
30
48
48
84
84
ENDCHAR
STARTCHAR 0x03BC
ENCODING 956
SWIDTH 480 0
DWIDTH 8 0
BBX 7 10 1 -3
BITMAP
88
88
88
88
88
DA
A4
80
80
80
ENDCHAR
STARTCHAR 0x03BD
ENCODING 957
SWIDTH 420 0
DWIDTH 7 0
BBX 5 7 1 0
BITMAP
88
48
48
28
28
30
20
ENDCHAR
STARTCHAR 0x03BE
ENCODING 958
SWIDTH 420 0
DWIDTH 7 0
BBX 6 14 2 -2
BITMAP
98
60
40
40
40
38
60
80
80
80
80
78
04
08
ENDCHAR
STARTCHAR 0x03BF
ENCODING 959
SWIDTH 360 0
DWIDTH 6 0
BBX 5 7 1 0
BITMAP
70
88
88
88
88
88
70
ENDCHAR
STARTCHAR 0x03C0
ENCODING 960
SWIDTH 480 0
DWIDTH 8 0
BBX 7 7 1 0
BITMAP
FC
48
48
48
48
88
86
ENDCHAR
STARTCHAR 0x03C1
ENCODING 961
SWIDTH 360 0
DWIDTH 6 0
BBX 5 11 1 -4
BITMAP
70
88
88
88
88
88
F0
80
80
80
80
ENDCHAR
STARTCHAR 0x03C2
ENCODING 962
SWIDTH 300 0
DWIDTH 5 0
BBX 4 10 1 -3
BITMAP
30
40
80
80
80
80
60
10
10
20
ENDCHAR
STARTCHAR 0x03C3
ENCODING 963
SWIDTH 420 0
DWIDTH 7 0
BBX 6 7 1 0
BITMAP
7C
90
88
88
88
88
70
ENDCHAR
STARTCHAR 0x03C4
ENCODING 964
SWIDTH 420 0
DWIDTH 7 0
BBX 6 7 1 0
BITMAP
7C
90
10
10
10
14
08
ENDCHAR
STARTCHAR 0x03C5
ENCODING 965
SWIDTH 420 0
DWIDTH 7 0
BBX 6 7 1 0
BITMAP
C8
44
44
44
44
48
30
ENDCHAR
STARTCHAR 0x03C6
ENCODING 966
SWIDTH 360 0
DWIDTH 6 0
BBX 5 13 1 -3
BITMAP
20
20
20
70
A8
A8
A8
A8
A8
70
20
20
20
ENDCHAR
STARTCHAR 0x03C7
ENCODING 967
SWIDTH 420 0
DWIDTH 7 0
BBX 6 10 1 -3
BITMAP
C4
A8
28
10
30
30
30
50
54
8C
ENDCHAR
STARTCHAR 0x03C8
ENCODING 968
SWIDTH 600 0
DWIDTH 10 0
BBX 9 14 1 -3
BITMAP
0800
0800
0800
0800
C980
4900
4900
4900
4900
2900
1E00
0800
0800
0800
ENDCHAR
STARTCHAR 0x03C9
ENCODING 969
SWIDTH 600 0
DWIDTH 10 0
BBX 9 7 1 0
BITMAP
2200
4100
8080
8880
8880
8880
7700
ENDCHAR
STARTCHAR 0x03CA
ENCODING 970
SWIDTH 300 0
DWIDTH 5 0
BBX 5 10 0 0
BITMAP
D8
D8
00
20
60
20
20
20
28
10
ENDCHAR
STARTCHAR 0x03CB
ENCODING 971
SWIDTH 420 0
DWIDTH 7 0
BBX 6 10 1 0
BITMAP
6C
6C
00
C8
44
44
44
44
48
30
ENDCHAR
STARTCHAR 0x03CC
ENCODING 972
SWIDTH 360 0
DWIDTH 6 0
BBX 5 11 1 0
BITMAP
10
10
20
00
70
88
88
88
88
88
70
ENDCHAR
STARTCHAR 0x03CD
ENCODING 973
SWIDTH 420 0
DWIDTH 7 0
BBX 6 11 1 0
BITMAP
08
08
10
00
C8
44
44
44
44
48
30
ENDCHAR
STARTCHAR 0x03CE
ENCODING 974
SWIDTH 600 0
DWIDTH 10 0
BBX 9 11 1 0
BITMAP
0400
0400
0800
0000
2200
4100
8080
8880
8880
8880
7700
ENDCHAR
STARTCHAR 0x03D0
ENCODING 976
SWIDTH 420 0
DWIDTH 7 0
BBX 6 12 1 0
BITMAP
70
88
88
88
B0
88
84
84
84
84
84
78
ENDCHAR
STARTCHAR 0x03D1
ENCODING 977
SWIDTH 480 0
DWIDTH 8 0
BBX 7 10 1 0
BITMAP
18
24
1E
C4
44
44
44
44
48
30
ENDCHAR
STARTCHAR 0x03D2
ENCODING 978
SWIDTH 600 0
DWIDTH 10 0
BBX 9 11 1 0
BITMAP
6300
9480
0880
0980
0800
0800
0800
0800
0800
0800
3E00
ENDCHAR
STARTCHAR 0x03D3
ENCODING 979
SWIDTH 660 0
DWIDTH 11 0
BBX 11 12 0 0
BITMAP
4000
58C0
A520
0220
0260
0200
0200
0200
0200
0200
0200
0F80
ENDCHAR
STARTCHAR 0x03D4
ENCODING 980
SWIDTH 600 0
DWIDTH 10 0
BBX 9 14 1 0
BITMAP
3600
3600
0000
6300
9480
0880
0980
0800
0800
0800
0800
0800
0800
3E00
ENDCHAR
STARTCHAR 0x03D5
ENCODING 981
SWIDTH 480 0
DWIDTH 8 0
BBX 7 11 1 -4
BITMAP
4C
92
92
92
92
54
38
10
10
10
10
ENDCHAR
STARTCHAR 0x03D6
ENCODING 982
SWIDTH 600 0
DWIDTH 10 0
BBX 9 7 1 0
BITMAP
FE00
4100
8080
8880
8880
8880
7700
ENDCHAR
STARTCHAR 0x03C7
ENCODING 983
SWIDTH 540 0
DWIDTH 9 0
BBX 8 9 1 -2
BITMAP
C2
A6
2C
34
24
45
42
0A
0C
ENDCHAR
STARTCHAR 0x03DA
ENCODING 986
SWIDTH 480 0
DWIDTH 8 0
BBX 7 13 1 -2
BITMAP
3C
42
80
80
80
80
80
40
38
04
02
02
1C
ENDCHAR
STARTCHAR 0x03C2
ENCODING 987
SWIDTH 300 0
DWIDTH 5 0
BBX 4 10 1 -3
BITMAP
30
40
80
80
80
80
60
10
10
20
ENDCHAR
STARTCHAR 0x03DC
ENCODING 988
SWIDTH 540 0
DWIDTH 9 0
BBX 8 11 0 0
BITMAP
FF
21
21
21
20
3C
24
20
20
20
F8
ENDCHAR
STARTCHAR 0x0066
ENCODING 989
SWIDTH 360 0
DWIDTH 6 0
BBX 6 12 1 0
BITMAP
24
58
40
40
40
70
40
40
40
40
40
E0
ENDCHAR
STARTCHAR 0x03DE
ENCODING 990
SWIDTH 660 0
DWIDTH 11 0
BBX 9 14 1 -3
BITMAP
1C00
2200
4100
8080
8080
8080
8080
8080
4100
2200
1C00
0800
0800
1C00
ENDCHAR
STARTCHAR 0x03DF
ENCODING 991
SWIDTH 360 0
DWIDTH 6 0
BBX 5 10 1 -3
BITMAP
70
88
88
88
88
88
70
20
20
70
ENDCHAR
STARTCHAR 0x03E0
ENCODING 992
SWIDTH 540 0
DWIDTH 9 0
BBX 8 12 1 -1
BITMAP
E0
18
04
0A
12
23
45
89
11
22
E2
04
ENDCHAR
STARTCHAR 0x03E0
ENCODING 993
SWIDTH 420 0
DWIDTH 7 0
BBX 6 7 1 0
BITMAP
F0
18
64
8C
34
44
E8
ENDCHAR
STARTCHAR 0x03E2
ENCODING 994
SWIDTH 840 0
DWIDTH 14 0
BBX 13 14 1 -3
BITMAP
F8F8
2020
4010
8008
8708
8208
8208
8208
8208
4518
38E8
0010
03E0
0600
ENDCHAR
STARTCHAR 0x03E3
ENCODING 995
SWIDTH 600 0
DWIDTH 10 0
BBX 9 10 1 -3
BITMAP
2200
4100
8080
8880
8880
8880
7780
0080
0F00
1800
ENDCHAR
STARTCHAR 0x03E4
ENCODING 996
SWIDTH 600 0
DWIDTH 10 0
BBX 9 11 1 0
BITMAP
6F80
A200
8200
8200
C600
7A00
0200
0200
0200
0200
0F80
ENDCHAR
STARTCHAR 0x03E5
ENCODING 997
SWIDTH 360 0
DWIDTH 6 0
BBX 5 11 1 -4
BITMAP
48
88
88
88
88
48
38
08
08
08
08
ENDCHAR
STARTCHAR 0x03E6
ENCODING 998
SWIDTH 660 0
DWIDTH 11 0
BBX 10 14 0 -3
BITMAP
7C00
1000
1000
1000
1F00
1080
1040
1040
1040
1040
7C40
0080
FF00
8000
ENDCHAR
STARTCHAR 0x03E7
ENCODING 999
SWIDTH 600 0
DWIDTH 10 0
BBX 9 8 1 0
BITMAP
0200
3E00
4900
3080
0080
6080
9180
4F00
ENDCHAR
STARTCHAR 0x03E8
ENCODING 1000
SWIDTH 480 0
DWIDTH 8 0
BBX 6 13 1 -2
BITMAP
78
84
84
C4
04
04
08
08
10
20
C0
70
1C
ENDCHAR
STARTCHAR 0x03E9
ENCODING 1001
SWIDTH 360 0
DWIDTH 6 0
BBX 5 9 1 -2
BITMAP
70
88
88
48
10
20
C0
60
38
ENDCHAR
STARTCHAR 0x03EA
ENCODING 1002
SWIDTH 720 0
DWIDTH 12 0
BBX 11 11 1 0
BITMAP
6180
5100
1200
0A00
0C00
0400
0A00
1A00
1100
2080
FFE0
ENDCHAR
STARTCHAR 0x03EB
ENCODING 1003
SWIDTH 540 0
DWIDTH 9 0
BBX 8 7 1 0
BITMAP
66
B4
18
18
18
24
FF
ENDCHAR
STARTCHAR 0x03EC
ENCODING 1004
SWIDTH 660 0
DWIDTH 11 0
BBX 10 12 1 0
BITMAP
0080
1F00
6000
4000
9F00
A080
8040
8040
8040
8040
4080
3F00
ENDCHAR
STARTCHAR 0x03ED
ENCODING 1005
SWIDTH 420 0
DWIDTH 7 0
BBX 6 8 1 0
BITMAP
04
78
80
B8
84
84
84
78
ENDCHAR
STARTCHAR 0x03EE
ENCODING 1006
SWIDTH 660 0
DWIDTH 11 0
BBX 11 11 0 0
BITMAP
1F00
0400
0400
7FC0
8420
4440
0400
0400
0400
0400
1F00
ENDCHAR
STARTCHAR 0x03EF
ENCODING 1007
SWIDTH 480 0
DWIDTH 8 0
BBX 7 10 1 -3
BITMAP
38
10
10
FE
92
10
10
10
10
38
ENDCHAR
STARTCHAR 0x03C7
ENCODING 1008
SWIDTH 540 0
DWIDTH 9 0
BBX 8 7 1 0
BITMAP
C2
A6
2C
34
24
45
42
ENDCHAR
STARTCHAR 0x03F1
ENCODING 1009
SWIDTH 360 0
DWIDTH 6 0
BBX 5 11 1 -4
BITMAP
70
88
88
88
88
88
F0
80
80
88
70
ENDCHAR
STARTCHAR 0x03F2
ENCODING 1010
SWIDTH 420 0
DWIDTH 7 0
BBX 6 7 1 0
BITMAP
7C
80
80
80
80
84
78
ENDCHAR
STARTCHAR 0x03F3
ENCODING 1011
SWIDTH 300 0
DWIDTH 5 0
BBX 4 14 0 -3
BITMAP
30
30
00
00
30
10
10
10
10
10
10
10
90
E0
ENDCHAR
STARTCHAR 0x0400
ENCODING 1024
SWIDTH 660 0
DWIDTH 11 0
BBX 10 15 0 0
BITMAP
3000
1800
0400
0000
FF80
2080
2080
2280
2200
3E00
2240
2240
2080
2080
FF80
ENDCHAR
STARTCHAR 0x0401
ENCODING 1025
SWIDTH 660 0
DWIDTH 11 0
BBX 10 14 0 0
BITMAP
3600
3600
0000
FF80
2180
2080
2280
2200
3E00
2240
2240
2080
2080
FF80
ENDCHAR
STARTCHAR 0x0402
ENCODING 1026
SWIDTH 720 0
DWIDTH 12 0
BBX 11 14 1 -3
BITMAP
FF80
8880
8880
8880
0800
0BC0
0C20
0820
0820
0820
3E20
0020
0320
01C0
ENDCHAR
STARTCHAR 0x0403
ENCODING 1027
SWIDTH 660 0
DWIDTH 11 0
BBX 9 15 0 0
BITMAP
0600
0C00
1000
0000
FF80
2180
2080
2080
2000
2000
2000
2000
2000
2000
F800
ENDCHAR
STARTCHAR 0x0404
ENCODING 1028
SWIDTH 660 0
DWIDTH 11 0
BBX 9 11 1 0
BITMAP
1E80
2180
4080
8080
8000
FC00
8000
8080
4080
2100
1E00
ENDCHAR
STARTCHAR 0x0405
ENCODING 1029
SWIDTH 540 0
DWIDTH 9 0
BBX 6 11 1 0
BITMAP
7C
84
84
80
40
30
08
04
84
84
F8
ENDCHAR
STARTCHAR 0x0406
ENCODING 1030
SWIDTH 360 0
DWIDTH 6 0
BBX 5 11 1 0
BITMAP
F8
20
20
20
20
20
20
20
20
20
F8
ENDCHAR
STARTCHAR 0x0407
ENCODING 1031
SWIDTH 360 0
DWIDTH 6 0
BBX 5 14 1 0
BITMAP
D8
D8
00
F8
20
20
20
20
20
20
20
20
20
F8
ENDCHAR
STARTCHAR 0x0408
ENCODING 1032
SWIDTH 420 0
DWIDTH 7 0
BBX 6 11 1 0
BITMAP
7C
10
10
10
10
10
10
10
10
90
E0
ENDCHAR
STARTCHAR 0x0409
ENCODING 1033
SWIDTH 960 0
DWIDTH 16 0
BBX 14 11 1 0
BITMAP
7FC0
2100
2100
2100
2100
21F8
2104
2104
2104
A108
C7F0
ENDCHAR
STARTCHAR 0x040A
ENCODING 1034
SWIDTH 900 0
DWIDTH 15 0
BBX 15 11 0 0
BITMAP
FBE0
2080
2080
2080
2080
3FFC
2082
2082
2082
2084
FBF8
ENDCHAR
STARTCHAR 0x040B
ENCODING 1035
SWIDTH 840 0
DWIDTH 14 0
BBX 13 11 1 0
BITMAP
FF80
8880
8880
8880
0800
0BC0
0C20
0820
0820
0820
3EF8
ENDCHAR
STARTCHAR 0x040C
ENCODING 1036
SWIDTH 720 0
DWIDTH 12 0
BBX 11 15 1 0
BITMAP
0300
0600
0800
0000
F9E0
2080
2100
2200
2400
2E00
3200
2100
2100
2080
F9E0
ENDCHAR
STARTCHAR 0x040D
ENCODING 1037
SWIDTH 720 0
DWIDTH 12 0
BBX 11 15 0 0
BITMAP
3000
1800
0400
0000
FBE0
2180
2180
2280
2680
2480
2C80
2880
3080
3080
FBE0
ENDCHAR
STARTCHAR 0x040E
ENCODING 1038
SWIDTH 720 0
DWIDTH 12 0
BBX 11 14 0 0
BITMAP
1100
0E00
0000
F1E0
2080
1080
1100
0900
0900
0A00
0600
4400
4400
3800
ENDCHAR
STARTCHAR 0x040F
ENCODING 1039
SWIDTH 720 0
DWIDTH 12 0
BBX 11 13 0 -2
BITMAP
FBE0
2080
2080
2080
2080
2080
2080
2080
2080
2080
FFE0
0400
0400
ENDCHAR
STARTCHAR 0x0410
ENCODING 1040
SWIDTH 660 0
DWIDTH 11 0
BBX 11 11 0 0
BITMAP
0400
0400
0A00
0A00
0A00
1100
1100
1F00
2080
2080
F1E0
ENDCHAR
STARTCHAR 0x0411
ENCODING 1041
SWIDTH 660 0
DWIDTH 11 0
BBX 10 11 0 0
BITMAP
FF80
2180
2080
2080
2000
3F80
20C0
2040
2040
2080
FF00
ENDCHAR
STARTCHAR 0x0412
ENCODING 1042
SWIDTH 660 0
DWIDTH 11 0
BBX 10 11 0 0
BITMAP
FF00
2080
2040
2040
2080
3F00
2080
2040
2040
2080
FF00
ENDCHAR
STARTCHAR 0x0413
ENCODING 1043
SWIDTH 540 0
DWIDTH 9 0
BBX 9 11 0 0
BITMAP
FF80
2180
2080
2080
2000
2000
2000
2000
2000
2000
F800
ENDCHAR
STARTCHAR 0x0414
ENCODING 1044
SWIDTH 720 0
DWIDTH 12 0
BBX 11 13 0 -2
BITMAP
3FE0
0880
0880
0880
0880
1080
1080
1080
1080
2080
FFE0
8060
8020
ENDCHAR
STARTCHAR 0x0415
ENCODING 1045
SWIDTH 660 0
DWIDTH 11 0
BBX 10 11 0 0
BITMAP
FF80
2180
2080
2280
2200
3E00
2240
2240
2080
2080
FF80
ENDCHAR
STARTCHAR 0x0416
ENCODING 1046
SWIDTH 960 0
DWIDTH 16 0
BBX 15 11 0 0
BITMAP
F39E
3118
1110
0920
0540
0BA0
0920
1110
3118
2108
F39E
ENDCHAR
STARTCHAR 0x0417
ENCODING 1047
SWIDTH 540 0
DWIDTH 9 0
BBX 7 11 1 0
BITMAP
BC
C2
82
02
04
3C
02
02
02
82
7C
ENDCHAR
STARTCHAR 0x0418
ENCODING 1048
SWIDTH 720 0
DWIDTH 12 0
BBX 11 11 0 0
BITMAP
FBE0
2180
2180
2280
2680
2480
2C80
2880
3080
3080
FBE0
ENDCHAR
STARTCHAR 0x0419
ENCODING 1049
SWIDTH 720 0
DWIDTH 12 0
BBX 11 15 0 0
BITMAP
1100
0E00
0000
0000
FBE0
2180
2180
2280
2280
2480
2880
2880
3080
3080
FBE0
ENDCHAR
STARTCHAR 0x041A
ENCODING 1050
SWIDTH 720 0
DWIDTH 12 0
BBX 11 11 1 0
BITMAP
F9E0
2080
2100
2200
2400
2E00
3200
2100
2100
2080
F9E0
ENDCHAR
STARTCHAR 0x041B
ENCODING 1051
SWIDTH 660 0
DWIDTH 11 0
BBX 10 11 1 0
BITMAP
7FC0
2100
2100
2100
2100
2100
2100
2100
2100
A100
C7C0
ENDCHAR
STARTCHAR 0x041C
ENCODING 1052
SWIDTH 900 0
DWIDTH 15 0
BBX 14 11 0 0
BITMAP
F03C
3030
3030
2850
2850
2890
2490
2490
2310
2310
FB7C
ENDCHAR
STARTCHAR 0x041D
ENCODING 1053
SWIDTH 720 0
DWIDTH 12 0
BBX 11 11 0 0
BITMAP
FBE0
2080
2080
2080
2080
3F80
2080
2080
2080
2080
FBE0
ENDCHAR
STARTCHAR 0x041E
ENCODING 1054
SWIDTH 720 0
DWIDTH 12 0
BBX 10 11 1 0
BITMAP
1E00
2100
4080
8040
8040
8040
8040
8040
4080
2100
1E00
ENDCHAR
STARTCHAR 0x041F
ENCODING 1055
SWIDTH 720 0
DWIDTH 12 0
BBX 11 11 0 0
BITMAP
FFE0
2080
2080
2080
2080
2080
2080
2080
2080
2080
FBE0
ENDCHAR
STARTCHAR 0x0420
ENCODING 1056
SWIDTH 660 0
DWIDTH 11 0
BBX 9 11 0 0
BITMAP
FF00
2180
2080
2080
2180
3F00
2000
2000
2000
2000
F800
ENDCHAR
STARTCHAR 0x0421
ENCODING 1057
SWIDTH 660 0
DWIDTH 11 0
BBX 9 11 1 0
BITMAP
1E80
2180
4080
8080
8000
8000
8000
8080
4080
2100
1E00
ENDCHAR
STARTCHAR 0x0422
ENCODING 1058
SWIDTH 660 0
DWIDTH 11 0
BBX 9 11 1 0
BITMAP
FF80
8880
8880
8880
0800
0800
0800
0800
0800
0800
3E00
ENDCHAR
STARTCHAR 0x0423
ENCODING 1059
SWIDTH 720 0
DWIDTH 12 0
BBX 11 11 0 0
BITMAP
F1E0
2080
1080
1100
0900
0900
0A00
0600
4400
4400
3800
ENDCHAR
STARTCHAR 0x0424
ENCODING 1060
SWIDTH 720 0
DWIDTH 12 0
BBX 11 11 0 0
BITMAP
0E00
0400
3F80
4440
8420
8420
8420
4440
3F80
0400
0E00
ENDCHAR
STARTCHAR 0x0425
ENCODING 1061
SWIDTH 660 0
DWIDTH 11 0
BBX 11 11 1 0
BITMAP
F3C0
1100
1200
0A00
0C00
0400
0A00
1A00
1100
2080
F1E0
ENDCHAR
STARTCHAR 0x0426
ENCODING 1062
SWIDTH 720 0
DWIDTH 12 0
BBX 11 13 0 -2
BITMAP
FBE0
2080
2080
2080
2080
2080
2080
2080
2080
2080
FFE0
0060
0020
ENDCHAR
STARTCHAR 0x0427
ENCODING 1063
SWIDTH 720 0
DWIDTH 12 0
BBX 9 11 1 0
BITMAP
E380
4100
4100
4100
4100
4100
3F00
0100
0100
0100
0380
ENDCHAR
STARTCHAR 0x0428
ENCODING 1064
SWIDTH 1020 0
DWIDTH 17 0
BBX 15 11 0 0
BITMAP
F39E
2108
2108
2108
2108
2108
2108
2108
2108
2108
FFFE
ENDCHAR
STARTCHAR 0x0429
ENCODING 1065
SWIDTH 1020 0
DWIDTH 17 0
BBX 15 13 0 -2
BITMAP
F39E
2108
2108
2108
2108
2108
2108
2108
2108
2108
FFFE
0006
0002
ENDCHAR
STARTCHAR 0x042A
ENCODING 1066
SWIDTH 900 0
DWIDTH 15 0
BBX 13 11 0 0
BITMAP
FF00
8400
8400
0400
0400
07F0
0418
0408
0408
0410
1FE0
ENDCHAR
STARTCHAR 0x042B
ENCODING 1067
SWIDTH 1020 0
DWIDTH 17 0
BBX 15 11 1 0
BITMAP
F83E
2008
2008
2008
2008
3F88
20C8
2048
2048
20C8
FF3E
ENDCHAR
STARTCHAR 0x042C
ENCODING 1068
SWIDTH 660 0
DWIDTH 11 0
BBX 10 11 0 0
BITMAP
F800
2000
2000
2000
2000
3F80
20C0
2040
2040
2080
FF00
ENDCHAR
STARTCHAR 0x042D
ENCODING 1069
SWIDTH 660 0
DWIDTH 11 0
BBX 9 11 1 0
BITMAP
BC00
C200
8100
8080
0080
1F80
0080
8080
8100
4200
3C00
ENDCHAR
STARTCHAR 0x042E
ENCODING 1070
SWIDTH 1080 0
DWIDTH 18 0
BBX 17 11 0 0
BITMAP
F87C00
208200
210100
220080
220080
3E0080
220080
220080
210100
208200
F87C00
ENDCHAR
STARTCHAR 0x042F
ENCODING 1071
SWIDTH 720 0
DWIDTH 12 0
BBX 11 11 0 0
BITMAP
1FE0
2080
4080
4080
2080
1F80
0480
0880
1080
2080
E3E0
ENDCHAR
STARTCHAR 0x0430
ENCODING 1072
SWIDTH 420 0
DWIDTH 7 0
BBX 6 7 1 0
BITMAP
70
88
08
78
88
88
7C
ENDCHAR
STARTCHAR 0x0431
ENCODING 1073
SWIDTH 360 0
DWIDTH 6 0
BBX 5 11 1 0
BITMAP
38
40
80
80
F0
88
88
88
88
88
70
ENDCHAR
STARTCHAR 0x0432
ENCODING 1074
SWIDTH 420 0
DWIDTH 7 0
BBX 6 7 1 0
BITMAP
F8
44
44
78
44
44
F8
ENDCHAR
STARTCHAR 0x0433
ENCODING 1075
SWIDTH 420 0
DWIDTH 7 0
BBX 6 7 1 0
BITMAP
FC
44
44
40
40
40
F0
ENDCHAR
STARTCHAR 0x0434
ENCODING 1076
SWIDTH 480 0
DWIDTH 8 0
BBX 7 9 1 -2
BITMAP
7E
14
24
24
24
24
FE
82
82
ENDCHAR
STARTCHAR 0x0435
ENCODING 1077
SWIDTH 360 0
DWIDTH 6 0
BBX 5 7 1 0
BITMAP
70
88
F8
80
80
88
70
ENDCHAR
STARTCHAR 0x0436
ENCODING 1078
SWIDTH 720 0
DWIDTH 12 0
BBX 11 7 1 0
BITMAP
EEE0
2480
1500
0E00
1500
2480
EEE0
ENDCHAR
STARTCHAR 0x0437
ENCODING 1079
SWIDTH 360 0
DWIDTH 6 0
BBX 5 7 1 0
BITMAP
70
48
08
30
08
88
70
ENDCHAR
STARTCHAR 0x0438
ENCODING 1080
SWIDTH 480 0
DWIDTH 8 0
BBX 7 7 1 0
BITMAP
EE
4C
54
54
54
64
EE
ENDCHAR
STARTCHAR 0x0439
ENCODING 1081
SWIDTH 480 0
DWIDTH 8 0
BBX 7 11 1 0
BITMAP
44
38
00
00
EE
4C
54
54
54
64
EE
ENDCHAR
STARTCHAR 0x043A
ENCODING 1082
SWIDTH 480 0
DWIDTH 8 0
BBX 7 7 1 0
BITMAP
EE
48
50
70
48
48
E6
ENDCHAR
STARTCHAR 0x043B
ENCODING 1083
SWIDTH 480 0
DWIDTH 8 0
BBX 7 7 1 0
BITMAP
FE
44
44
44
44
C4
CE
ENDCHAR
STARTCHAR 0x043C
ENCODING 1084
SWIDTH 600 0
DWIDTH 10 0
BBX 9 7 1 0
BITMAP
C180
6300
6300
5500
5500
4900
EB80
ENDCHAR
STARTCHAR 0x043D
ENCODING 1085
SWIDTH 480 0
DWIDTH 8 0
BBX 7 7 1 0
BITMAP
EE
44
44
7C
44
44
EE
ENDCHAR
STARTCHAR 0x043E
ENCODING 1086
SWIDTH 360 0
DWIDTH 6 0
BBX 5 7 1 0
BITMAP
70
88
88
88
88
88
70
ENDCHAR
STARTCHAR 0x043F
ENCODING 1087
SWIDTH 480 0
DWIDTH 8 0
BBX 7 7 1 0
BITMAP
FE
44
44
44
44
44
EE
ENDCHAR
STARTCHAR 0x0440
ENCODING 1088
SWIDTH 420 0
DWIDTH 7 0
BBX 6 10 1 -3
BITMAP
F8
44
44
44
44
44
78
40
40
E0
ENDCHAR
STARTCHAR 0x0441
ENCODING 1089
SWIDTH 360 0
DWIDTH 6 0
BBX 5 7 1 0
BITMAP
70
88
80
80
80
88
70
ENDCHAR
STARTCHAR 0x0442
ENCODING 1090
SWIDTH 480 0
DWIDTH 8 0
BBX 7 7 1 0
BITMAP
FE
92
92
10
10
10
7C
ENDCHAR
STARTCHAR 0x0443
ENCODING 1091
SWIDTH 540 0
DWIDTH 9 0
BBX 8 10 1 -3
BITMAP
E7
24
24
24
18
18
18
10
10
E0
ENDCHAR
STARTCHAR 0x0444
ENCODING 1092
SWIDTH 600 0
DWIDTH 10 0
BBX 9 13 1 -3
BITMAP
0800
1800
0800
6B00
9C80
8880
8880
8880
9C80
6B00
0800
0800
1C00
ENDCHAR
STARTCHAR 0x0445
ENCODING 1093
SWIDTH 540 0
DWIDTH 9 0
BBX 8 7 1 0
BITMAP
E7
24
18
18
18
24
E7
ENDCHAR
STARTCHAR 0x0446
ENCODING 1094
SWIDTH 480 0
DWIDTH 8 0
BBX 7 9 1 -2
BITMAP
EE
44
44
44
44
44
FE
02
02
ENDCHAR
STARTCHAR 0x0447
ENCODING 1095
SWIDTH 480 0
DWIDTH 8 0
BBX 7 7 1 0
BITMAP
EE
44
44
44
3C
04
0E
ENDCHAR
STARTCHAR 0x0448
ENCODING 1096
SWIDTH 720 0
DWIDTH 12 0
BBX 11 7 1 0
BITMAP
EEE0
4440
4440
4440
4440
4440
FFE0
ENDCHAR
STARTCHAR 0x0449
ENCODING 1097
SWIDTH 720 0
DWIDTH 12 0
BBX 11 9 1 -2
BITMAP
EEE0
4440
4440
4440
4440
4440
FFE0
0020
0020
ENDCHAR
STARTCHAR 0x044A
ENCODING 1098
SWIDTH 540 0
DWIDTH 9 0
BBX 8 7 1 0
BITMAP
F8
90
90
1E
11
11
3E
ENDCHAR
STARTCHAR 0x044B
ENCODING 1099
SWIDTH 600 0
DWIDTH 10 0
BBX 9 7 1 0
BITMAP
E380
4100
4100
7900
4500
4500
FB80
ENDCHAR
STARTCHAR 0x044C
ENCODING 1100
SWIDTH 420 0
DWIDTH 7 0
BBX 6 7 1 0
BITMAP
E0
40
40
78
44
44
F8
ENDCHAR
STARTCHAR 0x044D
ENCODING 1101
SWIDTH 420 0
DWIDTH 7 0
BBX 6 7 1 0
BITMAP
70
48
04
3C
04
88
70
ENDCHAR
STARTCHAR 0x044E
ENCODING 1102
SWIDTH 720 0
DWIDTH 12 0
BBX 11 7 1 0
BITMAP
E380
4440
4820
7820
4820
4440
E380
ENDCHAR
STARTCHAR 0x044F
ENCODING 1103
SWIDTH 420 0
DWIDTH 7 0
BBX 6 7 1 0
BITMAP
3C
48
48
38
18
28
CC
ENDCHAR
STARTCHAR 0x0450
ENCODING 1104
SWIDTH 360 0
DWIDTH 6 0
BBX 5 11 1 0
BITMAP
C0
60
10
00
70
88
F8
80
80
88
70
ENDCHAR
STARTCHAR 0x0451
ENCODING 1105
SWIDTH 360 0
DWIDTH 6 0
BBX 5 10 1 0
BITMAP
D8
D8
00
70
88
F8
80
80
88
70
ENDCHAR
STARTCHAR 0x0452
ENCODING 1106
SWIDTH 420 0
DWIDTH 7 0
BBX 6 14 1 -3
BITMAP
C0
40
40
40
F8
40
78
44
44
44
E4
04
34
18
ENDCHAR
STARTCHAR 0x0453
ENCODING 1107
SWIDTH 420 0
DWIDTH 7 0
BBX 6 11 1 0
BITMAP
0C
18
20
00
FC
44
44
40
40
40
F0
ENDCHAR
STARTCHAR 0x0454
ENCODING 1108
SWIDTH 420 0
DWIDTH 7 0
BBX 6 7 1 0
BITMAP
38
48
80
F0
80
44
38
ENDCHAR
STARTCHAR 0x0455
ENCODING 1109
SWIDTH 360 0
DWIDTH 6 0
BBX 5 7 1 0
BITMAP
78
88
80
70
08
88
F0
ENDCHAR
STARTCHAR 0x0456
ENCODING 1110
SWIDTH 240 0
DWIDTH 4 0
BBX 3 11 1 0
BITMAP
C0
C0
00
00
C0
40
40
40
40
40
E0
ENDCHAR
STARTCHAR 0x0457
ENCODING 1111
SWIDTH 240 0
DWIDTH 4 0
BBX 5 10 0 0
BITMAP
D8
D8
00
60
20
20
20
20
20
70
ENDCHAR
STARTCHAR 0x0458
ENCODING 1112
SWIDTH 300 0
DWIDTH 5 0
BBX 4 14 -1 -3
BITMAP
30
30
00
00
30
10
10
10
10
10
10
10
90
E0
ENDCHAR
STARTCHAR 0x0459
ENCODING 1113
SWIDTH 660 0
DWIDTH 11 0
BBX 10 7 1 0
BITMAP
FE00
4400
4400
4780
4440
C440
CF80
ENDCHAR
STARTCHAR 0x045A
ENCODING 1114
SWIDTH 660 0
DWIDTH 11 0
BBX 10 7 1 0
BITMAP
EE00
4400
4400
7F80
4440
4440
EF80
ENDCHAR
STARTCHAR 0x045B
ENCODING 1115
SWIDTH 480 0
DWIDTH 8 0
BBX 7 11 1 0
BITMAP
C0
40
40
40
F8
40
78
44
44
44
EE
ENDCHAR
STARTCHAR 0x045C
ENCODING 1116
SWIDTH 480 0
DWIDTH 8 0
BBX 7 11 1 0
BITMAP
0C
18
20
00
EE
48
50
70
48
48
E6
ENDCHAR
STARTCHAR 0x045D
ENCODING 1117
SWIDTH 480 0
DWIDTH 8 0
BBX 7 11 1 0
BITMAP
C0
60
10
00
EE
4C
54
54
54
64
EE
ENDCHAR
STARTCHAR 0x045E
ENCODING 1118
SWIDTH 540 0
DWIDTH 9 0
BBX 8 13 1 -3
BITMAP
22
1C
00
E7
24
24
24
18
18
18
10
10
E0
ENDCHAR
STARTCHAR 0x045F
ENCODING 1119
SWIDTH 480 0
DWIDTH 8 0
BBX 7 9 1 -2
BITMAP
EE
44
44
44
44
44
FE
10
10
ENDCHAR
STARTCHAR 0x0460
ENCODING 1120
SWIDTH 900 0
DWIDTH 15 0
BBX 13 11 1 0
BITMAP
3060
4010
8008
8008
8708
8208
8208
8208
8208
4510
38E0
ENDCHAR
STARTCHAR 0x0461
ENCODING 1121
SWIDTH 600 0
DWIDTH 10 0
BBX 9 7 1 0
BITMAP
4100
8080
9C80
8880
8880
4900
3600
ENDCHAR
STARTCHAR 0x0462
ENCODING 1122
SWIDTH 720 0
DWIDTH 12 0
BBX 11 11 -1 0
BITMAP
7C00
1000
FE00
9200
1000
1FC0
1060
1020
1020
1040
7F80
ENDCHAR
STARTCHAR 0x0463
ENCODING 1123
SWIDTH 540 0
DWIDTH 9 0
BBX 8 11 -1 0
BITMAP
30
10
10
FE
92
10
10
1E
11
11
3E
ENDCHAR
STARTCHAR 0x0464
ENCODING 1124
SWIDTH 1020 0
DWIDTH 17 0
BBX 15 11 0 0
BITMAP
F87A
2086
2102
2202
2200
3FF0
2200
2202
2102
2084
F878
ENDCHAR
STARTCHAR 0x0465
ENCODING 1125
SWIDTH 660 0
DWIDTH 11 0
BBX 10 7 1 0
BITMAP
E380
4480
4800
7F00
4800
4440
E380
ENDCHAR
STARTCHAR 0x0466
ENCODING 1126
SWIDTH 1020 0
DWIDTH 17 0
BBX 15 11 0 0
BITMAP
0100
0100
0280
0440
0440
0C60
0AA0
1110
1110
2108
F39E
ENDCHAR
STARTCHAR 0x0467
ENCODING 1127
SWIDTH 720 0
DWIDTH 12 0
BBX 11 7 1 0
BITMAP
0400
0E00
1100
1B00
2480
4440
EEE0
ENDCHAR
STARTCHAR 0x0468
ENCODING 1128
SWIDTH 1260 0
DWIDTH 21 0
BBX 20 11 0 0
BITMAP
F80800
200800
201400
202200
202200
3FE300
205500
208880
208880
210840
FB9CF0
ENDCHAR
STARTCHAR 0x0469
ENCODING 1129
SWIDTH 900 0
DWIDTH 15 0
BBX 14 7 1 0
BITMAP
E080
41C0
4220
7F60
4490
4888
FDDC
ENDCHAR
STARTCHAR 0x046A
ENCODING 1130
SWIDTH 1020 0
DWIDTH 17 0
BBX 15 11 0 0
BITMAP
1FF0
0820
0440
0280
0100
0FE0
1110
2108
2108
2108
F39E
ENDCHAR
STARTCHAR 0x046B
ENCODING 1131
SWIDTH 720 0
DWIDTH 12 0
BBX 11 7 1 0
BITMAP
1F00
0A00
0400
3F80
4440
4440
EEE0
ENDCHAR
STARTCHAR 0x046C
ENCODING 1132
SWIDTH 1260 0
DWIDTH 21 0
BBX 20 11 0 0
BITMAP
F8FF80
204100
202200
201400
200800
3FFF00
208880
210840
210840
210840
FB9CF0
ENDCHAR
STARTCHAR 0x046D
ENCODING 1133
SWIDTH 900 0
DWIDTH 15 0
BBX 14 7 1 0
BITMAP
E3E0
4140
4080
7FF0
4888
4888
EDDC
ENDCHAR
STARTCHAR 0x046E
ENCODING 1134
SWIDTH 600 0
DWIDTH 10 0
BBX 8 18 0 -3
BITMAP
22
1C
08
00
5E
61
41
01
02
1E
01
01
01
61
9E
80
7F
01
ENDCHAR
STARTCHAR 0x046F
ENCODING 1135
SWIDTH 360 0
DWIDTH 6 0
BBX 5 14 1 -3
BITMAP
88
70
20
00
70
48
08
30
08
48
B0
80
78
08
ENDCHAR
STARTCHAR 0x0470
ENCODING 1136
SWIDTH 720 0
DWIDTH 12 0
BBX 10 11 1 0
BITMAP
1F00
0400
C4C0
4480
4480
4480
2480
1F00
0400
0400
1F00
ENDCHAR
STARTCHAR 0x0471
ENCODING 1137
SWIDTH 600 0
DWIDTH 10 0
BBX 9 14 1 -3
BITMAP
0800
0800
0800
0800
C980
4900
4900
4900
4900
2900
1E00
0800
0800
0800
ENDCHAR
STARTCHAR 0x0472
ENCODING 1138
SWIDTH 720 0
DWIDTH 12 0
BBX 10 11 1 0
BITMAP
1E00
2100
4080
8040
9840
EDC0
8640
8040
4080
2100
1E00
ENDCHAR
STARTCHAR 0x0473
ENCODING 1139
SWIDTH 360 0
DWIDTH 6 0
BBX 5 7 1 0
BITMAP
70
88
A8
F8
A8
88
70
ENDCHAR
STARTCHAR 0x0474
ENCODING 1140
SWIDTH 780 0
DWIDTH 13 0
BBX 11 11 0 0
BITMAP
F0E0
2160
2100
1100
1100
1200
0A00
0A00
0A00
0400
0400
ENDCHAR
STARTCHAR 0x0475
ENCODING 1141
SWIDTH 540 0
DWIDTH 9 0
BBX 8 7 1 0
BITMAP
E3
25
24
24
18
18
18
ENDCHAR
STARTCHAR 0x0476
ENCODING 1142
SWIDTH 780 0
DWIDTH 13 0
BBX 11 16 0 0
BITMAP
1400
1400
0A00
0A00
0000
F0E0
2160
2100
1100
1100
1200
0A00
0A00
0A00
0400
0400
ENDCHAR
STARTCHAR 0x0477
ENCODING 1143
SWIDTH 540 0
DWIDTH 9 0
BBX 8 12 1 0
BITMAP
28
28
14
14
00
E3
25
24
24
18
18
18
ENDCHAR
STARTCHAR 0x0478
ENCODING 1144
SWIDTH 1140 0
DWIDTH 19 0
BBX 17 14 1 -3
BITMAP
100000
280000
460000
810000
817180
811280
811200
811200
620C00
140C00
080C00
000400
000800
000800
ENDCHAR
STARTCHAR 0x0479
ENCODING 1145
SWIDTH 840 0
DWIDTH 14 0
BBX 13 10 1 -3
BITMAP
6718
9128
8920
8920
88C0
48C0
30C0
0040
0080
0080
ENDCHAR
STARTCHAR 0x047A
ENCODING 1146
SWIDTH 840 0
DWIDTH 14 0
BBX 12 13 1 -1
BITMAP
0600
1F80
2640
4020
8010
8010
8010
8010
8010
4020
2640
1F80
0600
ENDCHAR
STARTCHAR 0x047B
ENCODING 1147
SWIDTH 540 0
DWIDTH 9 0
BBX 8 9 1 -1
BITMAP
18
3C
5A
81
81
81
5A
3C
18
ENDCHAR
STARTCHAR 0x047C
ENCODING 1148
SWIDTH 900 0
DWIDTH 15 0
BBX 13 16 1 0
BITMAP
0F00
1080
2E40
2D30
0000
3060
4010
8008
8008
8708
8208
8208
8208
8208
4510
38E0
ENDCHAR
STARTCHAR 0x047D
ENCODING 1149
SWIDTH 600 0
DWIDTH 10 0
BBX 9 11 1 0
BITMAP
3800
4400
B300
A800
4100
8080
9C80
8880
8880
4900
3600
ENDCHAR
STARTCHAR 0x047E
ENCODING 1150
SWIDTH 900 0
DWIDTH 15 0
BBX 13 14 1 0
BITMAP
1FC0
1240
0000
3060
4010
8008
8008
8708
8208
8208
8208
8208
4510
38E0
ENDCHAR
STARTCHAR 0x047F
ENCODING 1151
SWIDTH 600 0
DWIDTH 10 0
BBX 9 10 1 0
BITMAP
7F00
4900
0000
4100
8080
9C80
8880
8880
4900
3600
ENDCHAR
STARTCHAR 0x0480
ENCODING 1152
SWIDTH 660 0
DWIDTH 11 0
BBX 9 14 1 -3
BITMAP
1E80
2180
4080
8080
8000
8000
8000
8000
4000
3C00
0400
0400
0400
1F00
ENDCHAR
STARTCHAR 0x0481
ENCODING 1153
SWIDTH 360 0
DWIDTH 6 0
BBX 5 10 1 -3
BITMAP
30
48
80
80
80
80
70
10
10
38
ENDCHAR
STARTCHAR 0x0482
ENCODING 1154
SWIDTH 600 0
DWIDTH 10 0
BBX 9 9 1 0
BITMAP
0200
0100
0A80
0400
2A00
1000
A800
4000
2000
ENDCHAR
STARTCHAR 0x0483
ENCODING 1155
SWIDTH 660 0
DWIDTH 11 0
BBX 10 4 1 12
BITMAP
3C00
4200
B900
B4C0
ENDCHAR
STARTCHAR 0x0484
ENCODING 1156
SWIDTH 420 0
DWIDTH 7 0
BBX 6 3 0 12
BITMAP
18
24
C0
ENDCHAR
STARTCHAR 0x0485
ENCODING 1157
SWIDTH 360 0
DWIDTH 6 0
BBX 5 3 0 12
BITMAP
80
F8
80
ENDCHAR
STARTCHAR 0x0486
ENCODING 1158
SWIDTH 360 0
DWIDTH 6 0
BBX 5 3 0 12
BITMAP
08
F8
08
ENDCHAR
STARTCHAR 0x048E
ENCODING 1166
SWIDTH 660 0
DWIDTH 11 0
BBX 9 11 0 0
BITMAP
FF00
2180
2080
2480
2780
3F00
2100
2000
2000
2000
F800
ENDCHAR
STARTCHAR 0x048F
ENCODING 1167
SWIDTH 420 0
DWIDTH 7 0
BBX 6 10 1 -3
BITMAP
F8
44
44
44
54
5C
78
44
40
E0
ENDCHAR
STARTCHAR 0x0490
ENCODING 1168
SWIDTH 540 0
DWIDTH 9 0
BBX 9 14 0 0
BITMAP
0080
0080
0180
FF80
2000
2000
2000
2000
2000
2000
2000
2000
2000
F800
ENDCHAR
STARTCHAR 0x0491
ENCODING 1169
SWIDTH 420 0
DWIDTH 7 0
BBX 6 9 1 0
BITMAP
04
04
FC
40
40
40
40
40
F0
ENDCHAR
STARTCHAR 0x0492
ENCODING 1170
SWIDTH 540 0
DWIDTH 9 0
BBX 9 11 0 0
BITMAP
FF80
2180
2080
2080
2000
FC00
2000
2000
2000
2000
F800
ENDCHAR
STARTCHAR 0x0493
ENCODING 1171
SWIDTH 420 0
DWIDTH 7 0
BBX 6 7 1 0
BITMAP
FC
44
44
F0
40
40
F0
ENDCHAR
STARTCHAR 0x0494
ENCODING 1172
SWIDTH 660 0
DWIDTH 11 0
BBX 9 14 1 -3
BITMAP
FF00
2300
2100
2100
2000
2F00
3080
2080
2080
2080
F880
0080
0C80
0700
ENDCHAR
STARTCHAR 0x0495
ENCODING 1173
SWIDTH 420 0
DWIDTH 7 0
BBX 6 10 1 -3
BITMAP
FC
44
44
78
44
44
E4
04
34
18
ENDCHAR
STARTCHAR 0x0496
ENCODING 1174
SWIDTH 960 0
DWIDTH 16 0
BBX 15 14 0 -3
BITMAP
F39E
3118
1110
0920
0540
0BA0
0920
1110
3118
2108
F39E
0006
0002
0002
ENDCHAR
STARTCHAR 0x0497
ENCODING 1175
SWIDTH 720 0
DWIDTH 12 0
BBX 11 9 1 -2
BITMAP
EEE0
2480
1500
0E00
1500
2480
EEE0
0020
0020
ENDCHAR
STARTCHAR 0x0498
ENCODING 1176
SWIDTH 540 0
DWIDTH 9 0
BBX 7 14 1 -3
BITMAP
BC
C2
82
02
04
3C
02
02
02
82
7C
10
08
38
ENDCHAR
STARTCHAR 0x0499
ENCODING 1177
SWIDTH 360 0
DWIDTH 6 0
BBX 5 10 1 -3
BITMAP
70
48
08
30
08
88
70
20
10
70
ENDCHAR
STARTCHAR 0x049A
ENCODING 1178
SWIDTH 720 0
DWIDTH 12 0
BBX 11 14 1 -3
BITMAP
F9E0
2080
2100
2200
2400
2E00
3200
2100
2100
2080
F9E0
0060
0020
0020
ENDCHAR
STARTCHAR 0x049B
ENCODING 1179
SWIDTH 480 0
DWIDTH 8 0
BBX 7 9 1 -2
BITMAP
EE
48
50
70
48
48
E6
02
02
ENDCHAR
STARTCHAR 0x049C
ENCODING 1180
SWIDTH 720 0
DWIDTH 12 0
BBX 11 11 1 0
BITMAP
F9E0
2080
2900
2A00
2C00
2E00
3A00
2900
2900
2080
F9E0
ENDCHAR
STARTCHAR 0x049D
ENCODING 1181
SWIDTH 480 0
DWIDTH 8 0
BBX 7 7 1 0
BITMAP
E6
54
58
70
58
54
E6
ENDCHAR
STARTCHAR 0x049E
ENCODING 1182
SWIDTH 720 0
DWIDTH 12 0
BBX 11 11 1 0
BITMAP
F9E0
2080
F900
2200
2400
2E00
3200
2100
2100
2080
F9E0
ENDCHAR
STARTCHAR 0x049F
ENCODING 1183
SWIDTH 480 0
DWIDTH 8 0
BBX 7 7 1 0
BITMAP
EE
58
F0
70
48
48
E6
ENDCHAR
STARTCHAR 0x04A0
ENCODING 1184
SWIDTH 840 0
DWIDTH 14 0
BBX 14 11 0 0
BITMAP
FF3C
8410
8420
0440
0480
05C0
0640
0420
0420
0410
1F3C
ENDCHAR
STARTCHAR 0x04A1
ENCODING 1185
SWIDTH 660 0
DWIDTH 11 0
BBX 10 7 1 0
BITMAP
FDC0
8900
0A00
0E00
0900
0900
1CC0
ENDCHAR
STARTCHAR 0x04A2
ENCODING 1186
SWIDTH 780 0
DWIDTH 13 0
BBX 11 14 0 -3
BITMAP
FBE0
2080
2080
2080
2080
3F80
2080
2080
2080
2080
FBE0
0060
0020
0020
ENDCHAR
STARTCHAR 0x04A3
ENCODING 1187
SWIDTH 540 0
DWIDTH 9 0
BBX 7 9 1 -2
BITMAP
EE
44
44
7C
44
44
EE
02
02
ENDCHAR
STARTCHAR 0x04A4
ENCODING 1188
SWIDTH 840 0
DWIDTH 14 0
BBX 14 11 0 0
BITMAP
FBFC
2084
2084
2080
2080
3F80
2080
2080
2080
2080
FBE0
ENDCHAR
STARTCHAR 0x04A5
ENCODING 1189
SWIDTH 660 0
DWIDTH 11 0
BBX 10 7 1 0
BITMAP
EFC0
4440
4400
7C00
4400
4400
EE00
ENDCHAR
STARTCHAR 0x04A6
ENCODING 1190
SWIDTH 1020 0
DWIDTH 17 0
BBX 15 14 0 -3
BITMAP
FFE0
2080
2080
2080
2080
20BC
20C2
2082
2082
2082
FBE2
0002
0032
001C
ENDCHAR
STARTCHAR 0x04A7
ENCODING 1191
SWIDTH 660 0
DWIDTH 11 0
BBX 10 10 1 -3
BITMAP
FE00
4400
4400
4780
4440
4440
EE40
0040
0340
0180
ENDCHAR
STARTCHAR 0x04A8
ENCODING 1192
SWIDTH 780 0
DWIDTH 13 0
BBX 11 11 1 0
BITMAP
1F00
2080
4000
8380
8440
8440
8440
8440
4280
2120
1EC0
ENDCHAR
STARTCHAR 0x04A9
ENCODING 1193
SWIDTH 480 0
DWIDTH 8 0
BBX 7 7 1 0
BITMAP
38
44
88
94
94
4A
3C
ENDCHAR
STARTCHAR 0x04AA
ENCODING 1194
SWIDTH 660 0
DWIDTH 11 0
BBX 9 14 1 -3
BITMAP
1E80
2180
4080
8080
8000
8000
8000
8080
4080
2100
1E00
0800
1200
0C00
ENDCHAR
STARTCHAR 0x04AB
ENCODING 1195
SWIDTH 360 0
DWIDTH 6 0
BBX 5 10 1 -3
BITMAP
70
88
80
80
80
88
70
20
48
30
ENDCHAR
STARTCHAR 0x04AC
ENCODING 1196
SWIDTH 660 0
DWIDTH 11 0
BBX 9 14 1 -3
BITMAP
FF80
8880
8880
8880
0800
0800
0800
0800
0800
0800
3F00
0300
0100
0100
ENDCHAR
STARTCHAR 0x04AD
ENCODING 1197
SWIDTH 480 0
DWIDTH 8 0
BBX 7 9 1 -2
BITMAP
FE
92
92
10
10
10
7C
04
04
ENDCHAR
STARTCHAR 0x04AE
ENCODING 1198
SWIDTH 720 0
DWIDTH 12 0
BBX 11 14 0 -3
BITMAP
F1E0
2080
1100
1100
0A00
0E00
0400
0400
0400
0400
0400
0400
0400
1F00
ENDCHAR
STARTCHAR 0x04AF
ENCODING 1199
SWIDTH 600 0
DWIDTH 10 0
BBX 9 10 1 -3
BITMAP
F780
2200
2200
1400
1400
1400
0800
0800
0800
1C00
ENDCHAR
STARTCHAR 0x04B0
ENCODING 1200
SWIDTH 720 0
DWIDTH 12 0
BBX 11 14 0 -3
BITMAP
F1E0
2080
1100
1100
0A00
0E00
FFE0
0400
0400
0400
0400
0400
0400
1F00
ENDCHAR
STARTCHAR 0x04B1
ENCODING 1201
SWIDTH 600 0
DWIDTH 10 0
BBX 9 10 1 -3
BITMAP
F780
2200
2200
1400
1400
1400
FF80
0800
0800
1C00
ENDCHAR
STARTCHAR 0x04B2
ENCODING 1202
SWIDTH 660 0
DWIDTH 11 0
BBX 11 14 1 -3
BITMAP
F3C0
1100
1200
0A00
0C00
0400
0A00
1A00
1100
2080
F1E0
0060
0020
0020
ENDCHAR
STARTCHAR 0x04B3
ENCODING 1203
SWIDTH 540 0
DWIDTH 9 0
BBX 8 9 1 -2
BITMAP
E7
24
18
18
18
24
E7
01
01
ENDCHAR
STARTCHAR 0x04B4
ENCODING 1204
SWIDTH 1020 0
DWIDTH 17 0
BBX 15 13 0 -2
BITMAP
FFBE
8888
8888
0808
0808
0808
0808
0808
0808
0808
3FFE
0006
0002
ENDCHAR
STARTCHAR 0x04B5
ENCODING 1205
SWIDTH 720 0
DWIDTH 12 0
BBX 11 9 1 -2
BITMAP
FEE0
9240
1040
1040
1040
1040
3FE0
0020
0020
ENDCHAR
STARTCHAR 0x04B6
ENCODING 1206
SWIDTH 720 0
DWIDTH 12 0
BBX 10 14 1 -3
BITMAP
E380
4100
4100
4100
4100
4100
3F00
0100
0100
0100
03C0
00C0
0040
0040
ENDCHAR
STARTCHAR 0x04B7
ENCODING 1207
SWIDTH 480 0
DWIDTH 8 0
BBX 7 9 1 -2
BITMAP
EE
44
44
44
3C
04
0E
02
02
ENDCHAR
STARTCHAR 0x04B8
ENCODING 1208
SWIDTH 660 0
DWIDTH 11 0
BBX 9 11 1 0
BITMAP
E380
4100
4100
4100
4900
4900
3F00
0900
0900
0100
0380
ENDCHAR
STARTCHAR 0x04B9
ENCODING 1209
SWIDTH 480 0
DWIDTH 8 0
BBX 7 7 1 0
BITMAP
EE
44
54
54
3C
14
0E
ENDCHAR
STARTCHAR 0x04BA
ENCODING 1210
SWIDTH 600 0
DWIDTH 10 0
BBX 9 11 1 0
BITMAP
E000
4000
4000
4000
7E00
4100
4100
4100
4100
4100
E380
ENDCHAR
STARTCHAR 0x04BB
ENCODING 1211
SWIDTH 480 0
DWIDTH 8 0
BBX 7 7 1 0
BITMAP
E0
40
78
44
44
44
EE
ENDCHAR
STARTCHAR 0x04BC
ENCODING 1212
SWIDTH 840 0
DWIDTH 14 0
BBX 13 11 0 0
BITMAP
03C0
0420
C810
9008
7FF8
1000
1000
1000
0808
0C10
03E0
ENDCHAR
STARTCHAR 0x04BD
ENCODING 1213
SWIDTH 540 0
DWIDTH 9 0
BBX 8 7 1 0
BITMAP
CE
91
7F
10
10
11
0E
ENDCHAR
STARTCHAR 0x04BE
ENCODING 1214
SWIDTH 840 0
DWIDTH 14 0
BBX 13 14 0 -3
BITMAP
03C0
0420
C810
9008
7FF8
1000
1000
1000
0808
0C10
03E0
0080
0120
00C0
ENDCHAR
STARTCHAR 0x04BF
ENCODING 1215
SWIDTH 540 0
DWIDTH 9 0
BBX 8 10 0 -3
BITMAP
CE
91
7F
10
10
11
0E
08
12
0C
ENDCHAR
STARTCHAR 0x04C0
ENCODING 1216
SWIDTH 360 0
DWIDTH 6 0
BBX 5 11 1 0
BITMAP
F8
20
20
20
20
20
20
20
20
20
F8
ENDCHAR
STARTCHAR 0x04C1
ENCODING 1217
SWIDTH 960 0
DWIDTH 16 0
BBX 15 14 0 0
BITMAP
0440
0380
0000
F39E
3118
1110
0920
0540
0BA0
0920
1110
3118
2108
F39E
ENDCHAR
STARTCHAR 0x04C2
ENCODING 1218
SWIDTH 720 0
DWIDTH 12 0
BBX 11 10 1 0
BITMAP
1100
0E00
0000
EEE0
2480
1500
0E00
1500
2480
EEE0
ENDCHAR
STARTCHAR 0x04C3
ENCODING 1219
SWIDTH 780 0
DWIDTH 13 0
BBX 11 14 0 -3
BITMAP
F9E0
2080
2100
2200
2400
2F00
3080
2080
2080
2080
F880
0080
0C80
0700
ENDCHAR
STARTCHAR 0x04C4
ENCODING 1220
SWIDTH 480 0
DWIDTH 8 0
BBX 7 10 1 -3
BITMAP
EE
58
50
78
44
44
E4
04
34
18
ENDCHAR
STARTCHAR 0x04C5
ENCODING 1221
SWIDTH 720 0
DWIDTH 12 0
BBX 10 13 1 -2
BITMAP
7FC0
2100
2100
2100
2100
2100
2100
2100
2100
A100
C7C0
00C0
0040
ENDCHAR
STARTCHAR 0x04C6
ENCODING 1222
SWIDTH 480 0
DWIDTH 8 0
BBX 7 9 1 -2
BITMAP
FE
44
44
44
44
C4
CE
02
02
ENDCHAR
STARTCHAR 0x04C7
ENCODING 1223
SWIDTH 780 0
DWIDTH 13 0
BBX 11 14 0 -3
BITMAP
FBE0
2080
2080
2080
2080
3F80
2080
2080
2080
2080
F880
0080
0C80
0700
ENDCHAR
STARTCHAR 0x04C8
ENCODING 1224
SWIDTH 540 0
DWIDTH 9 0
BBX 7 10 1 -3
BITMAP
EE
44
44
7C
44
44
E4
04
34
18
ENDCHAR
STARTCHAR 0x04C9
ENCODING 1225
SWIDTH 660 0
DWIDTH 11 0
BBX 11 17 0 -2
BITMAP
1100
0E00
0000
0000
FBE0
2180
2180
2280
2280
2480
2880
2880
3080
3080
FBE0
0060
0020
ENDCHAR
STARTCHAR 0x04CA
ENCODING 1226
SWIDTH 480 0
DWIDTH 8 0
BBX 7 13 1 -2
BITMAP
44
38
00
00
EE
4C
54
54
54
64
EE
02
02
ENDCHAR
STARTCHAR 0x04CB
ENCODING 1227
SWIDTH 660 0
DWIDTH 11 0
BBX 9 14 1 -3
BITMAP
E380
4100
4100
4100
4100
4100
3F00
0100
0100
0100
0780
0600
0400
0400
ENDCHAR
STARTCHAR 0x04CC
ENCODING 1228
SWIDTH 480 0
DWIDTH 8 0
BBX 7 9 1 -2
BITMAP
EE
44
44
44
3C
04
0E
08
08
ENDCHAR
STARTCHAR 0x04CD
ENCODING 1229
SWIDTH 900 0
DWIDTH 15 0
BBX 14 13 0 -2
BITMAP
F03C
3030
3030
2850
2850
2890
2490
2490
2310
2310
FB7C
000C
0004
ENDCHAR
STARTCHAR 0x04CE
ENCODING 1230
SWIDTH 600 0
DWIDTH 10 0
BBX 9 9 1 -2
BITMAP
C180
6300
6300
5500
5500
4900
EB80
0080
0080
ENDCHAR
STARTCHAR 0x04D0
ENCODING 1232
SWIDTH 660 0
DWIDTH 11 0
BBX 11 14 0 0
BITMAP
1100
0E00
0000
0400
0400
0A00
0A00
0A00
1100
1100
1F00
2080
2080
F1E0
ENDCHAR
STARTCHAR 0x04D1
ENCODING 1233
SWIDTH 420 0
DWIDTH 7 0
BBX 6 10 1 0
BITMAP
88
70
00
70
88
08
78
88
88
7C
ENDCHAR
STARTCHAR 0x04D2
ENCODING 1234
SWIDTH 660 0
DWIDTH 11 0
BBX 11 14 0 0
BITMAP
1B00
1B00
0000
0400
0400
0A00
0A00
0A00
1100
1100
1F00
2080
2080
F1E0
ENDCHAR
STARTCHAR 0x04D3
ENCODING 1235
SWIDTH 420 0
DWIDTH 7 0
BBX 6 10 1 0
BITMAP
D8
D8
00
70
88
08
78
88
88
7C
ENDCHAR
STARTCHAR 0x04D4
ENCODING 1236
SWIDTH 900 0
DWIDTH 15 0
BBX 14 11 0 0
BITMAP
0FF8
0A18
0A08
0A28
1220
1FE0
1224
1224
2208
2208
F7F8
ENDCHAR
STARTCHAR 0x04D5
ENCODING 1237
SWIDTH 720 0
DWIDTH 12 0
BBX 10 7 1 0
BITMAP
7380
8C40
0FC0
7800
8800
8C40
7380
ENDCHAR
STARTCHAR 0x04D6
ENCODING 1238
SWIDTH 660 0
DWIDTH 11 0
BBX 10 14 0 0
BITMAP
2100
1E00
0000
FF80
2080
2080
2280
2200
3E00
2240
2240
2080
2080
FF80
ENDCHAR
STARTCHAR 0x04D7
ENCODING 1239
SWIDTH 360 0
DWIDTH 6 0
BBX 5 10 1 0
BITMAP
88
70
00
70
88
F8
80
80
88
70
ENDCHAR
STARTCHAR 0x04D8
ENCODING 1240
SWIDTH 780 0
DWIDTH 13 0
BBX 10 11 1 0
BITMAP
3E00
4180
8080
0040
0040
0040
FFC0
8040
4080
2100
1E00
ENDCHAR
STARTCHAR 0x04D9
ENCODING 1241
SWIDTH 360 0
DWIDTH 6 0
BBX 5 7 1 0
BITMAP
70
88
08
08
F8
88
70
ENDCHAR
STARTCHAR 0x04DA
ENCODING 1242
SWIDTH 780 0
DWIDTH 13 0
BBX 10 14 1 0
BITMAP
3600
3600
0000
3E00
4180
8080
0040
0040
0040
FFC0
8040
4080
2100
1E00
ENDCHAR
STARTCHAR 0x04DB
ENCODING 1243
SWIDTH 360 0
DWIDTH 6 0
BBX 5 10 1 0
BITMAP
D8
D8
00
70
88
08
08
F8
88
70
ENDCHAR
STARTCHAR 0x04DC
ENCODING 1244
SWIDTH 960 0
DWIDTH 16 0
BBX 15 14 0 0
BITMAP
06C0
06C0
0000
F39E
3118
1110
0920
0540
0BA0
0920
1110
3118
2108
F39E
ENDCHAR
STARTCHAR 0x04DD
ENCODING 1245
SWIDTH 720 0
DWIDTH 12 0
BBX 11 10 1 0
BITMAP
1B00
1B00
0000
EEE0
2480
1500
0E00
1500
2480
EEE0
ENDCHAR
STARTCHAR 0x04DE
ENCODING 1246
SWIDTH 540 0
DWIDTH 9 0
BBX 7 14 1 0
BITMAP
6C
6C
00
BC
C2
82
02
04
3C
02
02
02
82
7C
ENDCHAR
STARTCHAR 0x04DF
ENCODING 1247
SWIDTH 360 0
DWIDTH 6 0
BBX 5 10 1 0
BITMAP
D8
D8
00
70
48
08
30
08
88
70
ENDCHAR
STARTCHAR 0x04E0
ENCODING 1248
SWIDTH 420 0
DWIDTH 7 0
BBX 6 11 1 0
BITMAP
FC
08
10
20
70
08
04
04
C4
88
70
ENDCHAR
STARTCHAR 0x04E1
ENCODING 1249
SWIDTH 360 0
DWIDTH 6 0
BBX 5 9 1 -3
BITMAP
F8
10
20
70
08
08
C8
88
70
ENDCHAR
STARTCHAR 0x04E2
ENCODING 1250
SWIDTH 720 0
DWIDTH 12 0
BBX 11 13 0 0
BITMAP
1F00
0000
FBE0
2180
2180
2280
2680
2480
2C80
2880
3080
3080
FBE0
ENDCHAR
STARTCHAR 0x04E3
ENCODING 1251
SWIDTH 480 0
DWIDTH 8 0
BBX 7 9 1 0
BITMAP
7C
00
EE
4C
54
54
54
64
EE
ENDCHAR
STARTCHAR 0x04E4
ENCODING 1252
SWIDTH 720 0
DWIDTH 12 0
BBX 11 14 0 0
BITMAP
1B00
1B00
0000
FBE0
2180
2180
2280
2680
2480
2C80
2880
3080
3080
FBE0
ENDCHAR
STARTCHAR 0x04E5
ENCODING 1253
SWIDTH 540 0
DWIDTH 9 0
BBX 7 10 1 0
BITMAP
6C
6C
00
EE
4C
54
54
54
64
EE
ENDCHAR
STARTCHAR 0x04E6
ENCODING 1254
SWIDTH 720 0
DWIDTH 12 0
BBX 10 14 1 0
BITMAP
3600
3600
0000
1E00
2100
4080
8040
8040
8040
8040
8040
4080
2100
1E00
ENDCHAR
STARTCHAR 0x04E7
ENCODING 1255
SWIDTH 360 0
DWIDTH 6 0
BBX 5 10 1 0
BITMAP
D8
D8
00
70
88
88
88
88
88
70
ENDCHAR
STARTCHAR 0x04E8
ENCODING 1256
SWIDTH 720 0
DWIDTH 12 0
BBX 10 11 1 0
BITMAP
1E00
6180
4080
8040
8040
FFC0
8040
8040
4080
6180
1E00
ENDCHAR
STARTCHAR 0x04E9
ENCODING 1257
SWIDTH 360 0
DWIDTH 6 0
BBX 5 7 1 0
BITMAP
70
88
88
F8
88
88
70
ENDCHAR
STARTCHAR 0x04EA
ENCODING 1258
SWIDTH 720 0
DWIDTH 12 0
BBX 10 14 1 0
BITMAP
3600
3600
0000
1E00
6180
4080
8040
8040
FFC0
8040
8040
4080
6180
1E00
ENDCHAR
STARTCHAR 0x04EB
ENCODING 1259
SWIDTH 360 0
DWIDTH 6 0
BBX 5 10 1 0
BITMAP
D8
D8
00
70
88
88
F8
88
88
70
ENDCHAR
STARTCHAR 0x04EC
ENCODING 1260
SWIDTH 660 0
DWIDTH 11 0
BBX 9 14 1 0
BITMAP
3600
3600
0000
BC00
C200
8100
8080
0080
1F80
0080
8080
8100
4200
3C00
ENDCHAR
STARTCHAR 0x04ED
ENCODING 1261
SWIDTH 420 0
DWIDTH 7 0
BBX 6 10 1 0
BITMAP
D8
D8
00
70
48
04
3C
04
88
70
ENDCHAR
STARTCHAR 0x04EE
ENCODING 1262
SWIDTH 720 0
DWIDTH 12 0
BBX 11 13 0 0
BITMAP
1F00
0000
F1E0
2080
1080
1100
0900
0900
0A00
0600
4400
4400
3800
ENDCHAR
STARTCHAR 0x04EF
ENCODING 1263
SWIDTH 540 0
DWIDTH 9 0
BBX 8 12 1 -3
BITMAP
3E
00
E7
24
24
24
18
18
18
10
10
E0
ENDCHAR
STARTCHAR 0x04F0
ENCODING 1264
SWIDTH 720 0
DWIDTH 12 0
BBX 11 14 0 0
BITMAP
1B00
1B00
0000
F1E0
2080
1080
1100
0900
0900
0A00
0600
4400
4400
3800
ENDCHAR
STARTCHAR 0x04F1
ENCODING 1265
SWIDTH 540 0
DWIDTH 9 0
BBX 8 13 1 -3
BITMAP
36
36
00
E7
24
24
24
18
18
18
10
10
E0
ENDCHAR
STARTCHAR 0x04F2
ENCODING 1266
SWIDTH 720 0
DWIDTH 12 0
BBX 11 15 0 0
BITMAP
06C0
0D80
1200
0000
F1E0
2080
1080
1100
0900
0900
0A00
0600
4400
4400
3800
ENDCHAR
STARTCHAR 0x04F3
ENCODING 1267
SWIDTH 540 0
DWIDTH 9 0
BBX 8 14 1 -3
BITMAP
1B
36
48
00
E7
24
24
24
18
18
18
10
10
E0
ENDCHAR
STARTCHAR 0x04F4
ENCODING 1268
SWIDTH 660 0
DWIDTH 11 0
BBX 9 14 1 0
BITMAP
3600
3600
0000
E380
4100
4100
4100
4100
4100
3F00
0100
0100
0100
0380
ENDCHAR
STARTCHAR 0x04F5
ENCODING 1269
SWIDTH 480 0
DWIDTH 8 0
BBX 7 10 1 0
BITMAP
6C
6C
00
EE
44
44
44
3C
04
0E
ENDCHAR
STARTCHAR 0x04F8
ENCODING 1272
SWIDTH 1020 0
DWIDTH 17 0
BBX 15 14 0 0
BITMAP
06C0
06C0
0000
F83E
2008
2008
2008
2008
3F88
20C8
2048
2048
20C8
FF3E
ENDCHAR
STARTCHAR 0x04F9
ENCODING 1273
SWIDTH 600 0
DWIDTH 10 0
BBX 9 10 1 0
BITMAP
3600
3600
0000
E380
4100
4100
7900
4500
4500
FB80
ENDCHAR
STARTCHAR 0x04FA
ENCODING 1274
SWIDTH 660 0
DWIDTH 11 0
BBX 9 14 1 0
BITMAP
3600
3600
0000
BC00
C200
8100
8080
0080
1F80
0080
8080
8100
4200
3C00
ENDCHAR
STARTCHAR 0x04FB
ENCODING 1275
SWIDTH 420 0
DWIDTH 7 0
BBX 6 10 1 0
BITMAP
D8
D8
00
70
48
04
3C
04
88
70
ENDCHAR
STARTCHAR 0x04FC
ENCODING 1276
SWIDTH 720 0
DWIDTH 12 0
BBX 11 17 0 -2
BITMAP
1100
0E00
0000
0000
FBE0
2180
2180
2280
2280
2480
2880
2880
3080
3080
FBE0
0060
0020
ENDCHAR
STARTCHAR 0x04FD
ENCODING 1277
SWIDTH 480 0
DWIDTH 8 0
BBX 7 13 1 -2
BITMAP
44
38
00
00
EE
4C
54
54
54
64
EE
02
02
ENDCHAR
STARTCHAR 0x04FE
ENCODING 1278
SWIDTH 840 0
DWIDTH 14 0
BBX 14 13 0 -2
BITMAP
F03C
3030
3030
2850
2850
2890
2490
2490
2310
2310
FB7C
000C
0004
ENDCHAR
STARTCHAR 0x04FF
ENCODING 1279
SWIDTH 600 0
DWIDTH 10 0
BBX 9 9 1 -2
BITMAP
C180
6300
6300
5500
5500
4900
EB80
0080
0080
ENDCHAR
STARTCHAR 0x0531
ENCODING 1329
SWIDTH 780 0
DWIDTH 13 0
BBX 12 11 0 0
BITMAP
FBE0
2080
2080
2080
2080
2080
2080
2080
20E0
1130
0E10
ENDCHAR
STARTCHAR 0x0532
ENCODING 1330
SWIDTH 660 0
DWIDTH 11 0
BBX 10 11 0 0
BITMAP
0E00
1100
2080
2080
2000
2000
3F80
20C0
2000
2000
F800
ENDCHAR
STARTCHAR 0x0533
ENCODING 1331
SWIDTH 720 0
DWIDTH 12 0
BBX 11 11 1 0
BITMAP
3800
4400
8200
8200
8200
4200
3FC0
0260
0200
0200
0F80
ENDCHAR
STARTCHAR 0x0534
ENCODING 1332
SWIDTH 780 0
DWIDTH 13 0
BBX 12 11 0 0
BITMAP
1C00
2200
4100
4100
4100
E100
01E0
0130
0110
0100
07C0
ENDCHAR
STARTCHAR 0x0535
ENCODING 1333
SWIDTH 660 0
DWIDTH 11 0
BBX 10 11 0 0
BITMAP
F800
2000
3F80
2040
2040
2000
2000
20C0
2080
2080
1F00
ENDCHAR
STARTCHAR 0x0536
ENCODING 1334
SWIDTH 600 0
DWIDTH 10 0
BBX 9 12 1 -1
BITMAP
1E00
2100
4080
4080
4080
2100
1E00
0400
0800
D000
FE00
C300
ENDCHAR
STARTCHAR 0x0537
ENCODING 1335
SWIDTH 540 0
DWIDTH 9 0
BBX 8 13 0 -2
BITMAP
F8
20
3E
23
21
20
20
20
20
20
3C
06
02
ENDCHAR
STARTCHAR 0x0538
ENCODING 1336
SWIDTH 600 0
DWIDTH 10 0
BBX 9 13 1 -2
BITMAP
3800
4400
8200
8200
8200
8200
8700
8000
8000
8000
FF00
0180
0080
ENDCHAR
STARTCHAR 0x0539
ENCODING 1337
SWIDTH 780 0
DWIDTH 13 0
BBX 12 11 0 0
BITMAP
0E00
1100
2080
23E0
24B0
2490
2480
2300
2000
2000
F800
ENDCHAR
STARTCHAR 0x053A
ENCODING 1338
SWIDTH 720 0
DWIDTH 12 0
BBX 11 11 1 0
BITMAP
0F80
0200
0200
0200
3FC0
4260
8200
8200
8200
4400
3800
ENDCHAR
STARTCHAR 0x053B
ENCODING 1339
SWIDTH 720 0
DWIDTH 12 0
BBX 11 11 0 0
BITMAP
F800
2000
2E00
3100
2080
2080
2080
23E0
2000
2000
F800
ENDCHAR
STARTCHAR 0x053C
ENCODING 1340
SWIDTH 480 0
DWIDTH 8 0
BBX 7 13 0 -2
BITMAP
F0
20
20
20
20
20
20
20
20
20
3C
02
02
ENDCHAR
STARTCHAR 0x053D
ENCODING 1341
SWIDTH 720 0
DWIDTH 12 0
BBX 12 11 0 0
BITMAP
F800
2000
2000
3C70
2420
2420
2420
2420
2420
23C0
F800
ENDCHAR
STARTCHAR 0x053E
ENCODING 1342
SWIDTH 780 0
DWIDTH 13 0
BBX 12 12 0 0
BITMAP
8000
C000
7FE0
1130
2090
4040
4040
4040
4040
4040
2080
1F00
ENDCHAR
STARTCHAR 0x053F
ENCODING 1343
SWIDTH 660 0
DWIDTH 11 0
BBX 10 11 0 0
BITMAP
F800
2000
2000
2000
2300
2100
2100
1300
0D00
0100
07C0
ENDCHAR
STARTCHAR 0x0540
ENCODING 1344
SWIDTH 660 0
DWIDTH 11 0
BBX 10 11 1 0
BITMAP
2000
3E00
0200
0400
0800
1000
2000
4000
FF00
0080
0040
ENDCHAR
STARTCHAR 0x0541
ENCODING 1345
SWIDTH 540 0
DWIDTH 9 0
BBX 8 11 1 0
BITMAP
38
44
82
82
82
46
3A
04
64
99
66
ENDCHAR
STARTCHAR 0x0542
ENCODING 1346
SWIDTH 780 0
DWIDTH 13 0
BBX 12 13 0 -2
BITMAP
0E00
1100
2080
2080
2080
2080
F880
0080
0080
0080
00E0
0030
0010
ENDCHAR
STARTCHAR 0x0543
ENCODING 1347
SWIDTH 660 0
DWIDTH 11 0
BBX 10 11 1 0
BITMAP
1F00
2180
F800
4400
4200
4200
4100
4100
4100
2300
1DC0
ENDCHAR
STARTCHAR 0x0544
ENCODING 1348
SWIDTH 780 0
DWIDTH 13 0
BBX 12 11 0 0
BITMAP
F8E0
20B0
2090
2080
2080
2080
2080
2080
2080
1100
0E00
ENDCHAR
STARTCHAR 0x0545
ENCODING 1349
SWIDTH 540 0
DWIDTH 9 0
BBX 8 11 1 0
BITMAP
7C
C2
02
84
FC
86
01
81
81
42
3C
ENDCHAR
STARTCHAR 0x0546
ENCODING 1350
SWIDTH 660 0
DWIDTH 11 0
BBX 10 11 1 0
BITMAP
4000
8000
8000
6000
2000
21C0
2080
2080
2080
1100
0E00
ENDCHAR
STARTCHAR 0x0547
ENCODING 1351
SWIDTH 600 0
DWIDTH 10 0
BBX 9 11 1 0
BITMAP
7C00
8200
3D00
4380
8080
8000
8080
8080
8100
4100
3E00
ENDCHAR
STARTCHAR 0x0548
ENCODING 1352
SWIDTH 720 0
DWIDTH 12 0
BBX 11 11 0 0
BITMAP
0E00
1100
2080
2080
2080
2080
2080
2080
2080
2080
FBE0
ENDCHAR
STARTCHAR 0x0549
ENCODING 1353
SWIDTH 480 0
DWIDTH 8 0
BBX 7 13 1 -2
BITMAP
38
44
84
82
82
02
02
02
04
E8
70
1C
04
ENDCHAR
STARTCHAR 0x054A
ENCODING 1354
SWIDTH 780 0
DWIDTH 13 0
BBX 12 11 0 0
BITMAP
1F00
2480
4440
4440
4440
E440
0440
0E40
0040
0040
01F0
ENDCHAR
STARTCHAR 0x054B
ENCODING 1355
SWIDTH 600 0
DWIDTH 10 0
BBX 9 13 1 -2
BITMAP
7C00
8200
8100
8100
6100
1100
0A00
0A00
0C00
C800
FF00
C180
0080
ENDCHAR
STARTCHAR 0x054C
ENCODING 1356
SWIDTH 840 0
DWIDTH 14 0
BBX 13 11 0 0
BITMAP
0E00
1100
2080
2080
2080
2080
20F0
2098
2088
2080
FBE0
ENDCHAR
STARTCHAR 0x054D
ENCODING 1357
SWIDTH 720 0
DWIDTH 12 0
BBX 11 11 0 0
BITMAP
FBE0
2080
2080
2080
2080
2080
2080
2080
2080
1100
0E00
ENDCHAR
STARTCHAR 0x054E
ENCODING 1358
SWIDTH 780 0
DWIDTH 13 0
BBX 12 13 0 -2
BITMAP
07C0
0100
0100
0100
E100
2100
2100
2300
1D00
0100
01E0
0030
0010
ENDCHAR
STARTCHAR 0x054F
ENCODING 1359
SWIDTH 480 0
DWIDTH 8 0
BBX 7 11 1 0
BITMAP
3A
46
82
82
40
38
04
82
82
C4
B8
ENDCHAR
STARTCHAR 0x0550
ENCODING 1360
SWIDTH 660 0
DWIDTH 11 0
BBX 10 11 0 0
BITMAP
0E00
1100
2080
2080
2080
2080
21C0
2000
2000
2000
F800
ENDCHAR
STARTCHAR 0x0551
ENCODING 1361
SWIDTH 540 0
DWIDTH 9 0
BBX 8 11 1 0
BITMAP
3C
42
42
3C
42
81
01
81
81
42
3C
ENDCHAR
STARTCHAR 0x0552
ENCODING 1362
SWIDTH 720 0
DWIDTH 12 0
BBX 11 11 0 0
BITMAP
F800
2000
3E00
2100
2080
2080
2060
2000
2000
2000
F800
ENDCHAR
STARTCHAR 0x0553
ENCODING 1363
SWIDTH 600 0
DWIDTH 10 0
BBX 9 11 1 0
BITMAP
3E00
0800
3E00
4900
8880
8880
8880
4900
3E00
0800
3E00
ENDCHAR
STARTCHAR 0x0554
ENCODING 1364
SWIDTH 660 0
DWIDTH 11 0
BBX 10 11 1 0
BITMAP
0700
0880
1080
1080
1080
1F00
9000
7F80
10C0
1000
7C00
ENDCHAR
STARTCHAR 0x0555
ENCODING 1365
SWIDTH 600 0
DWIDTH 10 0
BBX 9 11 1 0
BITMAP
3E00
4100
8080
8080
8080
8080
8080
8080
8080
4100
3E00
ENDCHAR
STARTCHAR 0x0556
ENCODING 1366
SWIDTH 600 0
DWIDTH 10 0
BBX 9 11 1 0
BITMAP
7800
8800
8800
7800
0E00
0900
0880
0880
C880
4900
3E00
ENDCHAR
STARTCHAR 0x0559
ENCODING 1369
SWIDTH 120 0
DWIDTH 2 0
BBX 2 4 0 12
BITMAP
40
80
80
40
ENDCHAR
STARTCHAR 0x055A
ENCODING 1370
SWIDTH 120 0
DWIDTH 2 0
BBX 2 4 0 12
BITMAP
80
40
40
80
ENDCHAR
STARTCHAR 0x055B
ENCODING 1371
SWIDTH 180 0
DWIDTH 3 0
BBX 3 4 0 12
BITMAP
20
60
40
80
ENDCHAR
STARTCHAR 0x055C
ENCODING 1372
SWIDTH 420 0
DWIDTH 7 0
BBX 7 2 0 12
BITMAP
72
9C
ENDCHAR
STARTCHAR 0x055D
ENCODING 1373
SWIDTH 180 0
DWIDTH 3 0
BBX 3 4 0 12
BITMAP
80
C0
40
20
ENDCHAR
STARTCHAR 0x055E
ENCODING 1374
SWIDTH 360 0
DWIDTH 6 0
BBX 6 3 0 12
BITMAP
38
4C
8C
ENDCHAR
STARTCHAR 0x055F
ENCODING 1375
SWIDTH 300 0
DWIDTH 5 0
BBX 5 5 0 12
BITMAP
60
E0
80
80
78
ENDCHAR
STARTCHAR 0x0561
ENCODING 1377
SWIDTH 720 0
DWIDTH 12 0
BBX 11 7 1 0
BITMAP
CCC0
4440
4440
4440
4440
4440
3BE0
ENDCHAR
STARTCHAR 0x0562
ENCODING 1378
SWIDTH 420 0
DWIDTH 7 0
BBX 6 10 1 -3
BITMAP
D8
64
44
44
44
40
7C
40
40
E0
ENDCHAR
STARTCHAR 0x0563
ENCODING 1379
SWIDTH 480 0
DWIDTH 8 0
BBX 7 10 1 -3
BITMAP
38
44
84
84
84
44
3E
04
04
0E
ENDCHAR
STARTCHAR 0x0564
ENCODING 1380
SWIDTH 540 0
DWIDTH 9 0
BBX 8 10 1 -3
BITMAP
D8
64
44
44
44
44
E7
04
04
0E
ENDCHAR
STARTCHAR 0x0565
ENCODING 1381
SWIDTH 480 0
DWIDTH 8 0
BBX 7 11 1 0
BITMAP
C0
40
40
40
78
40
44
44
44
4C
36
ENDCHAR
STARTCHAR 0x0566
ENCODING 1382
SWIDTH 480 0
DWIDTH 8 0
BBX 8 10 1 -3
BITMAP
34
4C
84
84
84
4C
34
04
04
07
ENDCHAR
STARTCHAR 0x0567
ENCODING 1383
SWIDTH 360 0
DWIDTH 6 0
BBX 6 12 1 -1
BITMAP
C0
40
40
40
70
40
40
40
40
40
78
0C
ENDCHAR
STARTCHAR 0x0568
ENCODING 1384
SWIDTH 480 0
DWIDTH 8 0
BBX 7 10 1 -3
BITMAP
D8
64
44
44
44
44
4E
40
40
7E
ENDCHAR
STARTCHAR 0x0569
ENCODING 1385
SWIDTH 540 0
DWIDTH 9 0
BBX 8 10 1 -3
BITMAP
DC
62
42
5F
62
62
5C
40
40
E0
ENDCHAR
STARTCHAR 0x056A
ENCODING 1386
SWIDTH 540 0
DWIDTH 9 0
BBX 8 11 1 0
BITMAP
0C
04
04
04
3F
44
84
84
84
48
30
ENDCHAR
STARTCHAR 0x056B
ENCODING 1387
SWIDTH 480 0
DWIDTH 8 0
BBX 7 14 1 -3
BITMAP
C0
40
40
40
58
64
44
44
44
44
4E
40
40
E0
ENDCHAR
STARTCHAR 0x056C
ENCODING 1388
SWIDTH 240 0
DWIDTH 4 0
BBX 4 11 1 -3
BITMAP
C0
40
40
40
40
40
40
40
40
40
70
ENDCHAR
STARTCHAR 0x056D
ENCODING 1389
SWIDTH 660 0
DWIDTH 11 0
BBX 10 14 1 -3
BITMAP
C000
4000
4000
4000
5180
6880
4880
4880
4880
4880
47C0
4000
4000
E000
ENDCHAR
STARTCHAR 0x056E
ENCODING 1390
SWIDTH 480 0
DWIDTH 8 0
BBX 7 10 1 0
BITMAP
40
20
10
3E
48
84
84
84
48
30
ENDCHAR
STARTCHAR 0x056F
ENCODING 1391
SWIDTH 480 0
DWIDTH 8 0
BBX 7 14 1 -3
BITMAP
C0
40
40
40
4C
44
44
44
44
4C
34
04
04
0E
ENDCHAR
STARTCHAR 0x0570
ENCODING 1392
SWIDTH 480 0
DWIDTH 8 0
BBX 7 11 1 0
BITMAP
C0
40
40
40
58
64
44
44
44
44
EE
ENDCHAR
STARTCHAR 0x0571
ENCODING 1393
SWIDTH 480 0
DWIDTH 8 0
BBX 7 11 1 0
BITMAP
08
10
18
10
30
48
84
84
84
4C
36
ENDCHAR
STARTCHAR 0x0572
ENCODING 1394
SWIDTH 480 0
DWIDTH 8 0
BBX 7 10 1 -3
BITMAP
D8
64
44
44
44
44
E4
04
04
06
ENDCHAR
STARTCHAR 0x0573
ENCODING 1395
SWIDTH 480 0
DWIDTH 8 0
BBX 7 11 1 0
BITMAP
0E
16
20
20
F0
48
84
84
84
8C
76
ENDCHAR
STARTCHAR 0x0574
ENCODING 1396
SWIDTH 480 0
DWIDTH 8 0
BBX 7 11 1 0
BITMAP
0C
16
10
08
C4
44
44
44
44
4C
36
ENDCHAR
STARTCHAR 0x0575
ENCODING 1397
SWIDTH 300 0
DWIDTH 5 0
BBX 4 10 0 -3
BITMAP
30
10
10
10
10
10
10
10
90
E0
ENDCHAR
STARTCHAR 0x0576
ENCODING 1398
SWIDTH 420 0
DWIDTH 7 0
BBX 6 11 1 0
BITMAP
30
58
80
80
98
88
88
88
88
98
6C
ENDCHAR
STARTCHAR 0x0577
ENCODING 1399
SWIDTH 360 0
DWIDTH 6 0
BBX 5 10 1 -3
BITMAP
60
90
10
10
20
20
40
80
80
F8
ENDCHAR
STARTCHAR 0x0578
ENCODING 1400
SWIDTH 480 0
DWIDTH 8 0
BBX 7 7 1 0
BITMAP
D8
64
44
44
44
44
EE
ENDCHAR
STARTCHAR 0x0579
ENCODING 1401
SWIDTH 300 0
DWIDTH 5 0
BBX 4 10 1 -3
BITMAP
20
40
60
10
10
20
40
40
80
70
ENDCHAR
STARTCHAR 0x057A
ENCODING 1402
SWIDTH 720 0
DWIDTH 12 0
BBX 11 10 1 -3
BITMAP
CCC0
4440
4440
4440
4440
4440
3BC0
0040
0040
00E0
ENDCHAR
STARTCHAR 0x057B
ENCODING 1403
SWIDTH 360 0
DWIDTH 6 0
BBX 5 10 1 -3
BITMAP
70
88
88
48
50
20
20
40
40
78
ENDCHAR
STARTCHAR 0x057C
ENCODING 1404
SWIDTH 480 0
DWIDTH 8 0
BBX 7 7 1 0
BITMAP
D8
64
44
44
44
48
EE
ENDCHAR
STARTCHAR 0x057D
ENCODING 1405
SWIDTH 480 0
DWIDTH 8 0
BBX 7 7 1 0
BITMAP
CC
44
44
44
44
4C
36
ENDCHAR
STARTCHAR 0x057E
ENCODING 1406
SWIDTH 480 0
DWIDTH 8 0
BBX 7 14 1 -3
BITMAP
0C
04
04
04
C4
44
44
44
44
4C
34
04
04
06
ENDCHAR
STARTCHAR 0x057F
ENCODING 1407
SWIDTH 720 0
DWIDTH 12 0
BBX 11 7 1 0
BITMAP
CD80
4640
4440
4440
4440
4C40
36E0
ENDCHAR
STARTCHAR 0x0580
ENCODING 1408
SWIDTH 480 0
DWIDTH 8 0
BBX 7 10 1 -3
BITMAP
D8
64
44
44
44
44
4E
40
40
E0
ENDCHAR
STARTCHAR 0x0581
ENCODING 1409
SWIDTH 420 0
DWIDTH 7 0
BBX 6 10 1 -3
BITMAP
34
4C
84
84
84
4C
34
04
C8
70
ENDCHAR
STARTCHAR 0x0582
ENCODING 1410
SWIDTH 300 0
DWIDTH 5 0
BBX 4 7 1 0
BITMAP
C0
40
40
40
40
40
70
ENDCHAR
STARTCHAR 0x0583
ENCODING 1411
SWIDTH 720 0
DWIDTH 12 0
BBX 11 14 1 -3
BITMAP
0C00
0400
0400
0400
C580
4640
4440
4440
4440
4C40
34E0
0400
0400
0E00
ENDCHAR
STARTCHAR 0x0584
ENCODING 1412
SWIDTH 480 0
DWIDTH 8 0
BBX 7 10 1 -3
BITMAP
D8
64
42
42
42
64
58
FE
40
E0
ENDCHAR
STARTCHAR 0x0585
ENCODING 1413
SWIDTH 480 0
DWIDTH 8 0
BBX 7 7 1 0
BITMAP
38
44
82
82
82
44
38
ENDCHAR
STARTCHAR 0x0586
ENCODING 1414
SWIDTH 480 0
DWIDTH 8 0
BBX 7 14 1 -3
BITMAP
70
90
90
90
78
14
12
12
92
92
7C
10
10
38
ENDCHAR
STARTCHAR 0x0587
ENCODING 1415
SWIDTH 540 0
DWIDTH 9 0
BBX 8 11 1 0
BITMAP
C0
40
40
40
40
44
44
44
44
4C
37
ENDCHAR
STARTCHAR 0x0589
ENCODING 1417
SWIDTH 300 0
DWIDTH 5 0
BBX 2 7 1 1
BITMAP
C0
C0
00
00
00
C0
C0
ENDCHAR
STARTCHAR 0x058A
ENCODING 1418
SWIDTH 540 0
DWIDTH 9 0
BBX 7 3 2 2
BITMAP
C0
C2
7C
ENDCHAR
STARTCHAR 0x0591
ENCODING 1425
SWIDTH 0 0
DWIDTH 0 0
BBX 5 4 0 -5
BITMAP
20
20
70
88
ENDCHAR
STARTCHAR 0x0592
ENCODING 1426
SWIDTH 0 0
DWIDTH 0 0
BBX 6 4 0 10
BITMAP
30
30
CC
CC
ENDCHAR
STARTCHAR 0x0593
ENCODING 1427
SWIDTH 0 0
DWIDTH 0 0
BBX 3 7 0 10
BITMAP
20
40
E0
40
E0
40
80
ENDCHAR
STARTCHAR 0x0594
ENCODING 1428
SWIDTH 0 0
DWIDTH 0 0
BBX 2 5 0 10
BITMAP
C0
C0
00
C0
C0
ENDCHAR
STARTCHAR 0x0595
ENCODING 1429
SWIDTH 0 0
DWIDTH 0 0
BBX 4 5 0 10
BITMAP
B0
B0
80
B0
B0
ENDCHAR
STARTCHAR 0x0596
ENCODING 1430
SWIDTH 0 0
DWIDTH 0 0
BBX 3 3 0 -3
BITMAP
80
80
60
ENDCHAR
STARTCHAR 0x0597
ENCODING 1431
SWIDTH 300 0
DWIDTH 5 0
BBX 5 5 0 10
BITMAP
20
70
F8
70
20
ENDCHAR
STARTCHAR 0x0598
ENCODING 1432
SWIDTH 0 0
DWIDTH 0 0
BBX 7 4 0 9
BITMAP
64
92
92
4C
ENDCHAR
STARTCHAR 0x0599
ENCODING 1433
SWIDTH 0 0
DWIDTH 0 0
BBX 3 3 0 10
BITMAP
C0
20
20
ENDCHAR
STARTCHAR 0x059A
ENCODING 1434
SWIDTH 0 0
DWIDTH 0 0
BBX 3 5 0 -6
BITMAP
20
40
C0
40
20
ENDCHAR
STARTCHAR 0x059B
ENCODING 1435
SWIDTH 0 0
DWIDTH 0 0
BBX 3 3 0 -3
BITMAP
A0
20
C0
ENDCHAR
STARTCHAR 0x059C
ENCODING 1436
SWIDTH 0 0
DWIDTH 0 0
BBX 3 3 0 10
BITMAP
60
80
80
ENDCHAR
STARTCHAR 0x059D
ENCODING 1437
SWIDTH 0 0
DWIDTH 0 0
BBX 3 3 0 10
BITMAP
60
80
80
ENDCHAR
STARTCHAR 0x059E
ENCODING 1438
SWIDTH 0 0
DWIDTH 0 0
BBX 6 3 0 10
BITMAP
6C
90
90
ENDCHAR
STARTCHAR 0x059F
ENCODING 1439
SWIDTH 0 0
DWIDTH 0 0
BBX 7 4 0 10
BITMAP
44
AA
44
28
ENDCHAR
STARTCHAR 0x05A0
ENCODING 1440
SWIDTH 0 0
DWIDTH 0 0
BBX 3 4 0 10
BITMAP
40
A0
40
80
ENDCHAR
STARTCHAR 0x05A1
ENCODING 1441
SWIDTH 0 0
DWIDTH 0 0
BBX 5 3 0 10
BITMAP
28
70
80
ENDCHAR
STARTCHAR 0x05A3
ENCODING 1443
SWIDTH 0 0
DWIDTH 0 0
BBX 3 3 0 -4
BITMAP
20
20
E0
ENDCHAR
STARTCHAR 0x05A4
ENCODING 1444
SWIDTH 0 0
DWIDTH 0 0
BBX 3 5 0 -6
BITMAP
20
40
C0
40
20
ENDCHAR
STARTCHAR 0x05A5
ENCODING 1445
SWIDTH 0 0
DWIDTH 0 0
BBX 3 3 0 -3
BITMAP
20
20
C0
ENDCHAR
STARTCHAR 0x05A6
ENCODING 1446
SWIDTH 0 0
DWIDTH 0 0
BBX 6 3 0 -4
BITMAP
24
24
D8
ENDCHAR
STARTCHAR 0x05A7
ENCODING 1447
SWIDTH 0 0
DWIDTH 0 0
BBX 4 5 0 -6
BITMAP
60
80
60
10
60
ENDCHAR
STARTCHAR 0x05A8
ENCODING 1448
SWIDTH 0 0
DWIDTH 0 0
BBX 3 3 0 10
BITMAP
C0
20
20
ENDCHAR
STARTCHAR 0x05A9
ENCODING 1449
SWIDTH 0 0
DWIDTH 0 0
BBX 3 4 0 10
BITMAP
40
A0
40
20
ENDCHAR
STARTCHAR 0x05AA
ENCODING 1450
SWIDTH 0 0
DWIDTH 0 0
BBX 5 4 0 -5
BITMAP
88
70
20
20
ENDCHAR
STARTCHAR 0x05AB
ENCODING 1451
SWIDTH 0 0
DWIDTH 0 0
BBX 3 5 0 10
BITMAP
20
40
C0
40
20
ENDCHAR
STARTCHAR 0x05AC
ENCODING 1452
SWIDTH 0 0
DWIDTH 0 0
BBX 3 3 0 10
BITMAP
20
20
E0
ENDCHAR
STARTCHAR 0x05AD
ENCODING 1453
SWIDTH 0 0
DWIDTH 0 0
BBX 3 3 0 -3
BITMAP
80
80
60
ENDCHAR
STARTCHAR 0x05AE
ENCODING 1454
SWIDTH 0 0
DWIDTH 0 0
BBX 7 4 0 9
BITMAP
64
92
92
4C
ENDCHAR
STARTCHAR 0x05AF
ENCODING 1455
SWIDTH 0 0
DWIDTH 0 0
BBX 3 3 0 10
BITMAP
40
A0
40
ENDCHAR
STARTCHAR 0x05B0
ENCODING 1456
SWIDTH 120 0
DWIDTH 2 0
BBX 1 5 1 -6
BITMAP
80
80
00
80
80
ENDCHAR
STARTCHAR 0x05B1
ENCODING 1457
SWIDTH 480 0
DWIDTH 8 0
BBX 6 5 1 -6
BITMAP
A4
A4
00
44
44
ENDCHAR
STARTCHAR 0x05B2
ENCODING 1458
SWIDTH 300 0
DWIDTH 5 0
BBX 5 5 0 -6
BITMAP
E8
08
00
08
08
ENDCHAR
STARTCHAR 0x05B3
ENCODING 1459
SWIDTH 300 0
DWIDTH 5 0
BBX 5 5 0 -6
BITMAP
E8
48
40
48
08
ENDCHAR
STARTCHAR 0x05B4
ENCODING 1460
SWIDTH 120 0
DWIDTH 2 0
BBX 1 2 1 -3
BITMAP
80
80
ENDCHAR
STARTCHAR 0x05B5
ENCODING 1461
SWIDTH 240 0
DWIDTH 4 0
BBX 3 2 1 -3
BITMAP
A0
A0
ENDCHAR
STARTCHAR 0x05B6
ENCODING 1462
SWIDTH 240 0
DWIDTH 4 0
BBX 3 5 1 -6
BITMAP
A0
A0
00
40
40
ENDCHAR
STARTCHAR 0x05B7
ENCODING 1463
SWIDTH 300 0
DWIDTH 5 0
BBX 5 1 0 -2
BITMAP
F8
ENDCHAR
STARTCHAR 0x05B8
ENCODING 1464
SWIDTH 300 0
DWIDTH 5 0
BBX 5 3 0 -4
BITMAP
F8
20
20
ENDCHAR
STARTCHAR 0x05B9
ENCODING 1465
SWIDTH 120 0
DWIDTH 2 0
BBX 1 2 1 10
BITMAP
80
80
ENDCHAR
STARTCHAR 0x05BB
ENCODING 1467
SWIDTH 360 0
DWIDTH 6 0
BBX 5 4 1 -5
BITMAP
80
A0
28
08
ENDCHAR
STARTCHAR 0x05BC
ENCODING 1468
SWIDTH 120 0
DWIDTH 2 0
BBX 1 2 1 4
BITMAP
80
80
ENDCHAR
STARTCHAR 0x05BD
ENCODING 1469
SWIDTH 0 0
DWIDTH 0 0
BBX 1 4 0 -5
BITMAP
80
80
80
80
ENDCHAR
STARTCHAR 0x05BE
ENCODING 1470
SWIDTH 420 0
DWIDTH 7 0
BBX 6 2 0 6
BITMAP
7C
F8
ENDCHAR
STARTCHAR 0x05BF
ENCODING 1471
SWIDTH 0 0
DWIDTH 0 0
BBX 4 1 0 10
BITMAP
F0
ENDCHAR
STARTCHAR 0x05C0
ENCODING 1472
SWIDTH 120 0
DWIDTH 2 0
BBX 1 8 0 0
BITMAP
80
80
80
80
80
80
80
80
ENDCHAR
STARTCHAR 0x05C1
ENCODING 1473
SWIDTH 120 0
DWIDTH 2 0
BBX 1 2 1 10
BITMAP
80
80
ENDCHAR
STARTCHAR 0x05C2
ENCODING 1474
SWIDTH 120 0
DWIDTH 2 0
BBX 1 2 1 10
BITMAP
80
80
ENDCHAR
STARTCHAR 0x05C3
ENCODING 1475
SWIDTH 180 0
DWIDTH 3 0
BBX 2 6 1 1
BITMAP
C0
C0
00
00
C0
C0
ENDCHAR
STARTCHAR 0x05C4
ENCODING 1476
SWIDTH 120 0
DWIDTH 2 0
BBX 1 2 1 10
BITMAP
80
80
ENDCHAR
STARTCHAR 0x05D0
ENCODING 1488
SWIDTH 540 0
DWIDTH 9 0
BBX 8 9 1 0
BITMAP
81
81
61
39
4A
44
42
41
E1
ENDCHAR
STARTCHAR 0x05D1
ENCODING 1489
SWIDTH 480 0
DWIDTH 8 0
BBX 7 9 1 0
BITMAP
80
FC
04
04
04
04
04
04
FE
ENDCHAR
STARTCHAR 0x05D2
ENCODING 1490
SWIDTH 360 0
DWIDTH 6 0
BBX 5 9 1 0
BITMAP
40
F0
10
10
10
18
28
48
88
ENDCHAR
STARTCHAR 0x05D3
ENCODING 1491
SWIDTH 480 0
DWIDTH 8 0
BBX 7 9 1 0
BITMAP
40
FE
08
08
08
08
08
08
08
ENDCHAR
STARTCHAR 0x05D4
ENCODING 1492
SWIDTH 540 0
DWIDTH 9 0
BBX 8 9 1 0
BITMAP
40
FE
03
01
41
41
41
41
41
ENDCHAR
STARTCHAR 0x05D5
ENCODING 1493
SWIDTH 240 0
DWIDTH 4 0
BBX 3 9 1 0
BITMAP
40
E0
20
20
20
20
20
20
20
ENDCHAR
STARTCHAR 0x05D6
ENCODING 1494
SWIDTH 300 0
DWIDTH 5 0
BBX 4 10 1 0
BITMAP
80
C0
60
50
40
40
40
60
20
20
ENDCHAR
STARTCHAR 0x05D7
ENCODING 1495
SWIDTH 480 0
DWIDTH 8 0
BBX 7 9 1 0
BITMAP
40
FC
86
82
82
82
82
82
82
ENDCHAR
STARTCHAR 0x05D8
ENCODING 1496
SWIDTH 600 0
DWIDTH 10 0
BBX 9 9 1 0
BITMAP
0700
C980
4080
4080
4080
2080
2100
3600
1C00
ENDCHAR
STARTCHAR 0x05D9
ENCODING 1497
SWIDTH 300 0
DWIDTH 5 0
BBX 4 7 1 2
BITMAP
40
E0
30
10
10
10
20
ENDCHAR
STARTCHAR 0x05DA
ENCODING 1498
SWIDTH 480 0
DWIDTH 8 0
BBX 7 13 1 -4
BITMAP
40
FE
04
04
04
04
04
04
04
04
04
04
04
ENDCHAR
STARTCHAR 0x05DB
ENCODING 1499
SWIDTH 420 0
DWIDTH 7 0
BBX 6 9 1 0
BITMAP
80
F8
0C
04
04
04
04
0C
F8
ENDCHAR
STARTCHAR 0x05DC
ENCODING 1500
SWIDTH 420 0
DWIDTH 7 0
BBX 6 11 1 0
BITMAP
80
80
80
F8
0C
04
04
04
08
10
60
ENDCHAR
STARTCHAR 0x05DD
ENCODING 1501
SWIDTH 600 0
DWIDTH 10 0
BBX 9 9 1 0
BITMAP
4000
FF00
4180
4080
4080
4080
4080
4180
7F00
ENDCHAR
STARTCHAR 0x05DE
ENCODING 1502
SWIDTH 540 0
DWIDTH 9 0
BBX 8 9 1 0
BITMAP
4E
D3
71
21
21
41
41
43
1E
ENDCHAR
STARTCHAR 0x05DF
ENCODING 1503
SWIDTH 300 0
DWIDTH 5 0
BBX 4 12 1 -3
BITMAP
40
E0
30
10
10
10
10
10
10
10
10
10
ENDCHAR
STARTCHAR 0x05E0
ENCODING 1504
SWIDTH 300 0
DWIDTH 5 0
BBX 4 9 1 0
BITMAP
40
60
30
10
10
10
10
30
E0
ENDCHAR
STARTCHAR 0x05E1
ENCODING 1505
SWIDTH 540 0
DWIDTH 9 0
BBX 8 9 1 0
BITMAP
80
FF
81
81
41
41
42
64
38
ENDCHAR
STARTCHAR 0x05E2
ENCODING 1506
SWIDTH 420 0
DWIDTH 7 0
BBX 6 10 1 -1
BITMAP
84
8C
44
44
24
28
28
30
60
80
ENDCHAR
STARTCHAR 0x05E3
ENCODING 1507
SWIDTH 480 0
DWIDTH 8 0
BBX 7 12 1 -3
BITMAP
70
CC
84
82
82
E2
42
02
02
02
02
02
ENDCHAR
STARTCHAR 0x05E4
ENCODING 1508
SWIDTH 480 0
DWIDTH 8 0
BBX 7 9 1 0
BITMAP
30
6C
44
42
62
02
02
06
FC
ENDCHAR
STARTCHAR 0x05E5
ENCODING 1509
SWIDTH 480 0
DWIDTH 8 0
BBX 7 12 1 -3
BITMAP
40
C4
46
44
24
14
08
04
04
02
02
02
ENDCHAR
STARTCHAR 0x05E6
ENCODING 1510
SWIDTH 480 0
DWIDTH 8 0
BBX 7 9 1 0
BITMAP
44
C2
22
14
08
04
04
04
FC
ENDCHAR
STARTCHAR 0x05E7
ENCODING 1511
SWIDTH 540 0
DWIDTH 9 0
BBX 8 12 1 -3
BITMAP
40
FE
03
01
41
42
42
44
58
40
40
40
ENDCHAR
STARTCHAR 0x05E8
ENCODING 1512
SWIDTH 480 0
DWIDTH 8 0
BBX 7 9 1 0
BITMAP
40
FC
06
02
02
02
02
02
02
ENDCHAR
STARTCHAR 0x05E9
ENCODING 1513
SWIDTH 540 0
DWIDTH 9 0
BBX 8 9 1 0
BITMAP
89
8B
89
49
49
51
62
24
38
ENDCHAR
STARTCHAR 0x05EA
ENCODING 1514
SWIDTH 540 0
DWIDTH 9 0
BBX 8 9 1 0
BITMAP
40
FE
23
21
21
21
21
21
E1
ENDCHAR
STARTCHAR 0x05F0
ENCODING 1520
SWIDTH 480 0
DWIDTH 8 0
BBX 7 9 1 0
BITMAP
44
EE
22
22
22
22
22
22
22
ENDCHAR
STARTCHAR 0x05F1
ENCODING 1521
SWIDTH 540 0
DWIDTH 9 0
BBX 8 9 1 0
BITMAP
44
EE
23
21
21
21
22
20
20
ENDCHAR
STARTCHAR 0x05F2
ENCODING 1522
SWIDTH 540 0
DWIDTH 9 0
BBX 8 7 1 2
BITMAP
44
EE
33
11
11
11
22
ENDCHAR
STARTCHAR 0x05F3
ENCODING 1523
SWIDTH 180 0
DWIDTH 3 0
BBX 2 4 1 7
BITMAP
40
40
80
80
ENDCHAR
STARTCHAR 0x05F4
ENCODING 1524
SWIDTH 360 0
DWIDTH 6 0
BBX 5 4 1 7
BITMAP
48
48
90
90
ENDCHAR
STARTCHAR 0x060C
ENCODING 1548
SWIDTH 180 0
DWIDTH 3 0
BBX 2 4 1 0
BITMAP
40
80
C0
C0
ENDCHAR
STARTCHAR 0x061B
ENCODING 1563
SWIDTH 240 0
DWIDTH 4 0
BBX 2 7 1 0
BITMAP
40
80
C0
C0
00
C0
C0
ENDCHAR
STARTCHAR 0x061F
ENCODING 1567
SWIDTH 480 0
DWIDTH 8 0
BBX 5 10 1 0
BITMAP
70
88
88
40
20
20
00
00
20
20
ENDCHAR
STARTCHAR 0x0621
ENCODING 1569
SWIDTH 300 0
DWIDTH 5 0
BBX 4 6 1 0
BITMAP
70
80
80
70
C0
80
ENDCHAR
STARTCHAR 0x0622
ENCODING 1570
SWIDTH 300 0
DWIDTH 5 0
BBX 6 14 0 0
BITMAP
04
78
80
20
20
30
20
20
20
20
20
20
20
20
ENDCHAR
STARTCHAR 0x0623
ENCODING 1571
SWIDTH 300 0
DWIDTH 5 0
BBX 3 17 1 0
BITMAP
60
80
60
80
00
00
40
40
60
40
40
40
40
40
40
40
40
ENDCHAR
STARTCHAR 0x0624
ENCODING 1572
SWIDTH 480 0
DWIDTH 8 0
BBX 7 14 1 -3
BITMAP
06
08
06
08
00
00
04
0A
0A
0E
02
02
84
78
ENDCHAR
STARTCHAR 0x0625
ENCODING 1573
SWIDTH 360 0
DWIDTH 6 0
BBX 3 17 1 -6
BITMAP
40
40
60
40
40
40
40
40
40
40
40
00
00
60
80
60
80
ENDCHAR
STARTCHAR 0x0626
ENCODING 1574
SWIDTH 660 0
DWIDTH 11 0
BBX 10 13 1 -3
BITMAP
1800
2000
1800
2000
0000
01C0
4200
4400
8700
8080
8080
8300
7C00
ENDCHAR
STARTCHAR 0x0627
ENCODING 1575
SWIDTH 300 0
DWIDTH 5 0
BBX 2 11 2 0
BITMAP
80
80
C0
80
80
80
80
80
80
80
80
ENDCHAR
STARTCHAR 0x0628
ENCODING 1576
SWIDTH 840 0
DWIDTH 14 0
BBX 12 10 1 -5
BITMAP
0020
8010
8010
8010
4060
3F80
0000
0000
0400
0400
ENDCHAR
STARTCHAR 0x0629
ENCODING 1577
SWIDTH 480 0
DWIDTH 8 0
BBX 5 10 1 0
BITMAP
50
50
00
00
20
30
50
98
88
78
ENDCHAR
STARTCHAR 0x062A
ENCODING 1578
SWIDTH 840 0
DWIDTH 14 0
BBX 12 9 1 -1
BITMAP
0A00
0A00
0000
0020
8010
8010
8010
4060
3F80
ENDCHAR
STARTCHAR 0x062B
ENCODING 1579
SWIDTH 840 0
DWIDTH 14 0
BBX 12 12 1 -1
BITMAP
0400
0400
0000
0A00
0A00
0000
0020
8010
8010
8010
4060
3F80
ENDCHAR
STARTCHAR 0x062C
ENCODING 1580
SWIDTH 600 0
DWIDTH 10 0
BBX 8 11 1 -6
BITMAP
7E
B0
40
C0
80
88
88
80
C0
61
3E
ENDCHAR
STARTCHAR 0x062D
ENCODING 1581
SWIDTH 600 0
DWIDTH 10 0
BBX 8 11 1 -6
BITMAP
7E
B0
40
C0
80
80
80
80
C0
61
3E
ENDCHAR
STARTCHAR 0x062E
ENCODING 1582
SWIDTH 600 0
DWIDTH 10 0
BBX 8 15 1 -6
BITMAP
10
10
00
00
7E
B0
40
C0
80
80
80
80
C0
61
3E
ENDCHAR
STARTCHAR 0x062F
ENCODING 1583
SWIDTH 420 0
DWIDTH 7 0
BBX 5 6 1 -1
BITMAP
10
10
08
08
88
78
ENDCHAR
STARTCHAR 0x0630
ENCODING 1584
SWIDTH 420 0
DWIDTH 7 0
BBX 5 10 1 -1
BITMAP
20
20
00
00
10
10
08
08
88
78
ENDCHAR
STARTCHAR 0x0631
ENCODING 1585
SWIDTH 540 0
DWIDTH 9 0
BBX 7 8 1 -4
BITMAP
04
06
02
02
02
04
8C
78
ENDCHAR
STARTCHAR 0x0632
ENCODING 1586
SWIDTH 540 0
DWIDTH 9 0
BBX 7 12 1 -4
BITMAP
08
08
00
00
04
06
02
02
02
04
8C
78
ENDCHAR
STARTCHAR 0x0633
ENCODING 1587
SWIDTH 960 0
DWIDTH 16 0
BBX 14 7 1 -4
BITMAP
0004
4124
8124
81FC
8100
4200
3C00
ENDCHAR
STARTCHAR 0x0634
ENCODING 1588
SWIDTH 960 0
DWIDTH 16 0
BBX 14 14 1 -4
BITMAP
0020
0020
0000
0050
0050
0000
0000
0004
4124
8124
81FC
8100
4200
3C00
ENDCHAR
STARTCHAR 0x0635
ENCODING 1589
SWIDTH 1260 0
DWIDTH 21 0
BBX 19 7 1 -4
BITMAP
000380
410C40
811020
81FFE0
810000
420000
3C0000
ENDCHAR
STARTCHAR 0x0636
ENCODING 1590
SWIDTH 1260 0
DWIDTH 21 0
BBX 19 11 1 -4
BITMAP
000800
000800
000000
000000
000380
410C40
811020
81FFE0
810000
420000
3C0000
ENDCHAR
STARTCHAR 0x0637
ENCODING 1591
SWIDTH 660 0
DWIDTH 11 0
BBX 10 12 1 -1
BITMAP
1000
1000
1800
1000
1000
1000
1000
1380
1440
1840
1040
FF80
ENDCHAR
STARTCHAR 0x0638
ENCODING 1592
SWIDTH 660 0
DWIDTH 11 0
BBX 10 12 1 -1
BITMAP
1000
1000
1800
1100
1100
1000
1000
1380
1440
1840
1040
FF80
ENDCHAR
STARTCHAR 0x0639
ENCODING 1593
SWIDTH 540 0
DWIDTH 9 0
BBX 7 11 1 -5
BITMAP
38
40
40
38
60
40
80
80
80
82
7C
ENDCHAR
STARTCHAR 0x063A
ENCODING 1594
SWIDTH 540 0
DWIDTH 9 0
BBX 7 15 1 -5
BITMAP
10
10
00
00
38
40
40
38
60
40
80
80
80
82
7C
ENDCHAR
STARTCHAR 0x0640
ENCODING 1600
SWIDTH 540 0
DWIDTH 9 0
BBX 9 1 0 0
BITMAP
FF80
ENDCHAR
STARTCHAR 0x0641
ENCODING 1601
SWIDTH 900 0
DWIDTH 15 0
BBX 13 11 1 -1
BITMAP
0040
0040
0000
0000
0030
0058
8048
8058
8028
4008
3FF0
ENDCHAR
STARTCHAR 0x0642
ENCODING 1602
SWIDTH 600 0
DWIDTH 10 0
BBX 8 13 1 -4
BITMAP
0A
0A
00
00
06
0B
09
0B
85
81
81
42
3C
ENDCHAR
STARTCHAR 0x0643
ENCODING 1603
SWIDTH 660 0
DWIDTH 11 0
BBX 10 12 1 -1
BITMAP
0080
0080
00C0
0080
0480
0C80
0480
0C80
8080
8080
4080
3F00
ENDCHAR
STARTCHAR 0x0644
ENCODING 1604
SWIDTH 540 0
DWIDTH 9 0
BBX 8 13 1 -3
BITMAP
02
02
03
02
02
02
02
02
82
82
82
44
38
ENDCHAR
STARTCHAR 0x0645
ENCODING 1605
SWIDTH 540 0
DWIDTH 9 0
BBX 6 11 1 -8
BITMAP
20
70
18
FC
80
80
80
80
80
80
80
ENDCHAR
STARTCHAR 0x0646
ENCODING 1606
SWIDTH 600 0
DWIDTH 10 0
BBX 8 11 1 -4
BITMAP
10
10
00
02
02
41
81
81
82
86
78
ENDCHAR
STARTCHAR 0x0647
ENCODING 1607
SWIDTH 420 0
DWIDTH 7 0
BBX 5 6 1 0
BITMAP
20
30
50
98
88
78
ENDCHAR
STARTCHAR 0x0648
ENCODING 1608
SWIDTH 540 0
DWIDTH 9 0
BBX 7 8 1 -3
BITMAP
04
0A
0A
0E
02
02
84
78
ENDCHAR
STARTCHAR 0x0649
ENCODING 1609
SWIDTH 660 0
DWIDTH 11 0
BBX 10 8 1 -3
BITMAP
01C0
4200
4400
8700
8080
8080
8300
7C00
ENDCHAR
STARTCHAR 0x064A
ENCODING 1610
SWIDTH 660 0
DWIDTH 11 0
BBX 10 11 1 -6
BITMAP
01C0
4200
4400
8700
8080
8080
8300
7C00
0000
2800
2800
ENDCHAR
STARTCHAR 0x064B
ENCODING 1611
SWIDTH 0 0
DWIDTH 0 0
BBX 4 4 1 10
BITMAP
30
C0
30
C0
ENDCHAR
STARTCHAR 0x064C
ENCODING 1612
SWIDTH 420 0
DWIDTH 7 0
BBX 6 6 1 10
BITMAP
0C
14
5C
C8
50
60
ENDCHAR
STARTCHAR 0x064D
ENCODING 1613
SWIDTH 0 0
DWIDTH 0 0
BBX 4 4 1 -6
BITMAP
30
C0
30
C0
ENDCHAR
STARTCHAR 0x064E
ENCODING 1614
SWIDTH 360 0
DWIDTH 6 0
BBX 4 3 1 10
BITMAP
10
60
80
ENDCHAR
STARTCHAR 0x064F
ENCODING 1615
SWIDTH 0 0
DWIDTH 0 0
BBX 5 7 1 10
BITMAP
20
50
50
38
20
40
80
ENDCHAR
STARTCHAR 0x0650
ENCODING 1616
SWIDTH 0 0
DWIDTH 0 0
BBX 4 3 1 -4
BITMAP
10
60
80
ENDCHAR
STARTCHAR 0x0651
ENCODING 1617
SWIDTH 0 0
DWIDTH 0 0
BBX 5 5 1 10
BITMAP
08
A8
A8
B0
40
ENDCHAR
STARTCHAR 0x0652
ENCODING 1618
SWIDTH 300 0
DWIDTH 5 0
BBX 4 5 1 10
BITMAP
60
90
90
90
60
ENDCHAR
STARTCHAR 0x0660
ENCODING 1632
SWIDTH 240 0
DWIDTH 4 0
BBX 2 2 2 3
BITMAP
C0
C0
ENDCHAR
STARTCHAR 0x0661
ENCODING 1633
SWIDTH 420 0
DWIDTH 7 0
BBX 3 11 3 0
BITMAP
80
80
C0
C0
40
60
20
20
20
20
20
ENDCHAR
STARTCHAR 0x0662
ENCODING 1634
SWIDTH 540 0
DWIDTH 9 0
BBX 6 10 2 0
BITMAP
84
C4
F8
60
60
20
30
10
10
10
ENDCHAR
STARTCHAR 0x0663
ENCODING 1635
SWIDTH 600 0
DWIDTH 10 0
BBX 7 10 2 0
BITMAP
8A
CA
F4
60
60
20
30
10
10
10
ENDCHAR
STARTCHAR 0x0664
ENCODING 1636
SWIDTH 420 0
DWIDTH 7 0
BBX 5 11 2 -1
BITMAP
20
40
80
E0
60
20
40
80
80
F8
70
ENDCHAR
STARTCHAR 0x0665
ENCODING 1637
SWIDTH 420 0
DWIDTH 7 0
BBX 5 8 2 -1
BITMAP
30
50
48
88
88
88
88
70
ENDCHAR
STARTCHAR 0x0666
ENCODING 1638
SWIDTH 540 0
DWIDTH 9 0
BBX 7 11 1 0
BITMAP
80
F8
08
08
08
08
08
0C
04
04
06
ENDCHAR
STARTCHAR 0x0667
ENCODING 1639
SWIDTH 540 0
DWIDTH 9 0
BBX 7 11 1 -1
BITMAP
82
82
C4
44
48
28
28
30
10
10
10
ENDCHAR
STARTCHAR 0x0668
ENCODING 1640
SWIDTH 540 0
DWIDTH 9 0
BBX 7 12 1 -1
BITMAP
10
10
18
18
28
28
24
44
46
C2
82
80
ENDCHAR
STARTCHAR 0x0669
ENCODING 1641
SWIDTH 540 0
DWIDTH 9 0
BBX 5 11 2 0
BITMAP
60
A0
A0
A0
A0
50
10
10
08
08
08
ENDCHAR
STARTCHAR 0x066A
ENCODING 1642
SWIDTH 600 0
DWIDTH 10 0
BBX 7 10 1 0
BITMAP
04
C4
08
08
10
10
20
26
40
40
ENDCHAR
STARTCHAR 0x066B
ENCODING 1643
SWIDTH 360 0
DWIDTH 6 0
BBX 4 5 0 -3
BITMAP
10
10
10
20
C0
ENDCHAR
STARTCHAR 0x066C
ENCODING 1644
SWIDTH 300 0
DWIDTH 5 0
BBX 2 5 1 -3
BITMAP
C0
C0
40
40
80
ENDCHAR
STARTCHAR 0x066D
ENCODING 1645
SWIDTH 540 0
DWIDTH 9 0
BBX 7 6 1 5
BITMAP
10
10
FE
38
28
44
ENDCHAR
STARTCHAR 0x0670
ENCODING 1648
SWIDTH 0 0
DWIDTH 0 0
BBX 1 4 1 10
BITMAP
80
80
80
80
ENDCHAR
STARTCHAR 0x0671
ENCODING 1649
SWIDTH 300 0
DWIDTH 5 0
BBX 5 16 0 0
BITMAP
10
28
78
80
00
20
20
30
20
20
20
20
20
20
20
20
ENDCHAR
STARTCHAR 0x0672
ENCODING 1650
SWIDTH 300 0
DWIDTH 5 0
BBX 5 16 -1 0
BITMAP
18
20
18
E0
00
10
10
18
10
10
10
10
10
10
10
10
ENDCHAR
STARTCHAR 0x0673
ENCODING 1651
SWIDTH 300 0
DWIDTH 5 0
BBX 5 16 -1 -5
BITMAP
10
10
18
10
10
10
10
10
10
10
10
00
18
20
18
E0
ENDCHAR
STARTCHAR 0x0674
ENCODING 1652
SWIDTH 300 0
DWIDTH 5 0
BBX 3 4 1 12
BITMAP
60
80
60
80
ENDCHAR
STARTCHAR 0x0675
ENCODING 1653
SWIDTH 360 0
DWIDTH 6 0
BBX 6 13 2 0
BITMAP
0C
10
8C
90
C0
80
80
80
80
80
80
80
80
ENDCHAR
STARTCHAR 0x0676
ENCODING 1654
SWIDTH 540 0
DWIDTH 9 0
BBX 10 12 1 -3
BITMAP
00C0
0100
00C0
0100
0400
0A00
0A00
0E00
0200
0200
8400
7800
ENDCHAR
STARTCHAR 0x0677
ENCODING 1655
SWIDTH 540 0
DWIDTH 9 0
BBX 10 13 1 -3
BITMAP
1000
28C0
1100
28C0
4100
0400
0A00
0A00
0E00
0200
0200
8400
7800
ENDCHAR
STARTCHAR 0x0678
ENCODING 1656
SWIDTH 660 0
DWIDTH 11 0
BBX 13 13 1 -3
BITMAP
0018
0020
0018
0020
0000
01C0
4200
4400
8700
8080
8080
8300
7C00
ENDCHAR
STARTCHAR 0x0679
ENCODING 1657
SWIDTH 840 0
DWIDTH 14 0
BBX 12 11 1 -1
BITMAP
0800
0800
0E00
0E00
0000
0020
8010
8010
8010
4060
3F80
ENDCHAR
STARTCHAR 0x067A
ENCODING 1658
SWIDTH 840 0
DWIDTH 14 0
BBX 12 10 1 -1
BITMAP
0600
0000
0600
0000
0020
8010
8010
8010
4060
3F80
ENDCHAR
STARTCHAR 0x067B
ENCODING 1659
SWIDTH 840 0
DWIDTH 14 0
BBX 12 10 1 -5
BITMAP
0020
8010
8010
8010
4060
3F80
0000
0600
0000
0600
ENDCHAR
STARTCHAR 0x067C
ENCODING 1660
SWIDTH 840 0
DWIDTH 14 0
BBX 12 12 1 -4
BITMAP
0A00
0A00
0000
0020
8010
8010
8010
4060
3F80
0600
0900
0600
ENDCHAR
STARTCHAR 0x067D
ENCODING 1661
SWIDTH 840 0
DWIDTH 14 0
BBX 12 9 1 -1
BITMAP
0A00
0A00
0000
0420
8410
8010
8010
4060
3F80
ENDCHAR
STARTCHAR 0x067E
ENCODING 1662
SWIDTH 840 0
DWIDTH 14 0
BBX 12 10 1 -5
BITMAP
0020
8010
8010
8010
4060
3F80
0000
0D80
0000
0300
ENDCHAR
STARTCHAR 0x067F
ENCODING 1663
SWIDTH 840 0
DWIDTH 14 0
BBX 12 9 1 -1
BITMAP
0A00
0A00
0000
0A20
8A10
8010
8010
4060
3F80
ENDCHAR
STARTCHAR 0x0680
ENCODING 1664
SWIDTH 840 0
DWIDTH 14 0
BBX 12 10 1 -5
BITMAP
0020
8010
8010
8010
4060
3F80
0000
0D80
0000
0D80
ENDCHAR
STARTCHAR 0x0681
ENCODING 1665
SWIDTH 600 0
DWIDTH 10 0
BBX 8 16 1 -6
BITMAP
18
20
18
20
00
7E
B0
40
C0
80
80
80
80
C0
61
3E
ENDCHAR
STARTCHAR 0x0682
ENCODING 1666
SWIDTH 600 0
DWIDTH 10 0
BBX 8 18 1 -6
BITMAP
10
10
00
10
10
00
00
7E
B0
40
C0
80
80
80
80
C0
61
3E
ENDCHAR
STARTCHAR 0x0683
ENCODING 1667
SWIDTH 600 0
DWIDTH 10 0
BBX 8 11 1 -6
BITMAP
7E
B0
40
C0
80
94
94
80
C0
61
3E
ENDCHAR
STARTCHAR 0x0684
ENCODING 1668
SWIDTH 600 0
DWIDTH 10 0
BBX 8 11 1 -6
BITMAP
7E
B0
40
C0
98
80
98
80
C0
61
3E
ENDCHAR
STARTCHAR 0x0685
ENCODING 1669
SWIDTH 600 0
DWIDTH 10 0
BBX 8 18 1 -6
BITMAP
10
10
00
28
28
00
00
7E
B0
40
C0
80
80
80
80
C0
61
3E
ENDCHAR
STARTCHAR 0x0686
ENCODING 1670
SWIDTH 600 0
DWIDTH 10 0
BBX 8 11 1 -6
BITMAP
7E
B0
40
D4
94
80
88
88
C0
61
3E
ENDCHAR
STARTCHAR 0x0687
ENCODING 1671
SWIDTH 600 0
DWIDTH 10 0
BBX 8 11 1 -6
BITMAP
7E
B0
40
D4
94
80
94
94
C0
61
3E
ENDCHAR
STARTCHAR 0x0688
ENCODING 1672
SWIDTH 420 0
DWIDTH 7 0
BBX 5 12 1 -1
BITMAP
20
20
38
38
00
00
10
10
08
08
88
78
ENDCHAR
STARTCHAR 0x0689
ENCODING 1673
SWIDTH 420 0
DWIDTH 7 0
BBX 5 8 1 -3
BITMAP
10
10
08
08
88
78
28
10
ENDCHAR
STARTCHAR 0x068A
ENCODING 1674
SWIDTH 420 0
DWIDTH 7 0
BBX 5 9 1 -4
BITMAP
10
10
08
08
88
78
00
10
10
ENDCHAR
STARTCHAR 0x068B
ENCODING 1675
SWIDTH 420 0
DWIDTH 7 0
BBX 5 14 1 -4
BITMAP
20
20
38
38
00
10
10
08
08
88
78
00
18
18
ENDCHAR
STARTCHAR 0x068C
ENCODING 1676
SWIDTH 420 0
DWIDTH 7 0
BBX 5 10 1 -1
BITMAP
50
50
00
00
10
10
08
08
88
78
ENDCHAR
STARTCHAR 0x068D
ENCODING 1677
SWIDTH 420 0
DWIDTH 7 0
BBX 5 9 1 -4
BITMAP
10
10
08
08
88
78
00
50
50
ENDCHAR
STARTCHAR 0x068E
ENCODING 1678
SWIDTH 420 0
DWIDTH 7 0
BBX 5 13 1 -1
BITMAP
20
20
00
50
50
00
00
10
10
08
08
88
78
ENDCHAR
STARTCHAR 0x068F
ENCODING 1679
SWIDTH 420 0
DWIDTH 7 0
BBX 5 13 1 -1
BITMAP
50
50
00
20
20
00
00
10
10
08
08
88
78
ENDCHAR
STARTCHAR 0x0690
ENCODING 1680
SWIDTH 420 0
DWIDTH 7 0
BBX 5 13 1 -1
BITMAP
50
50
00
50
50
00
00
10
10
08
08
88
78
ENDCHAR
STARTCHAR 0x0691
ENCODING 1681
SWIDTH 540 0
DWIDTH 9 0
BBX 7 14 1 -4
BITMAP
08
08
0E
0E
00
00
04
06
02
02
02
04
8C
78
ENDCHAR
STARTCHAR 0x0692
ENCODING 1682
SWIDTH 540 0
DWIDTH 9 0
BBX 7 12 1 -4
BITMAP
12
0C
00
00
04
06
02
02
02
04
8C
78
ENDCHAR
STARTCHAR 0x0693
ENCODING 1683
SWIDTH 540 0
DWIDTH 9 0
BBX 7 9 1 -5
BITMAP
04
06
02
02
02
04
8C
7A
04
ENDCHAR
STARTCHAR 0x0694
ENCODING 1684
SWIDTH 540 0
DWIDTH 9 0
BBX 7 10 1 -6
BITMAP
04
06
02
02
02
04
8C
78
04
04
ENDCHAR
STARTCHAR 0x0695
ENCODING 1685
SWIDTH 540 0
DWIDTH 9 0
BBX 7 11 1 -7
BITMAP
04
06
02
02
02
04
8C
78
00
24
18
ENDCHAR
STARTCHAR 0x0696
ENCODING 1686
SWIDTH 540 0
DWIDTH 9 0
BBX 7 10 1 -6
BITMAP
04
06
02
22
22
04
8C
78
04
04
ENDCHAR
STARTCHAR 0x0697
ENCODING 1687
SWIDTH 540 0
DWIDTH 9 0
BBX 7 12 1 -4
BITMAP
0A
0A
00
00
04
06
02
02
02
04
8C
78
ENDCHAR
STARTCHAR 0x0698
ENCODING 1688
SWIDTH 540 0
DWIDTH 9 0
BBX 7 15 1 -4
BITMAP
04
04
00
0A
0A
00
00
04
06
02
02
02
04
8C
78
ENDCHAR
STARTCHAR 0x0699
ENCODING 1689
SWIDTH 540 0
DWIDTH 9 0
BBX 7 15 1 -4
BITMAP
0A
0A
00
0A
0A
00
00
04
06
02
02
02
04
8C
78
ENDCHAR
STARTCHAR 0x069A
ENCODING 1690
SWIDTH 960 0
DWIDTH 16 0
BBX 14 11 1 -5
BITMAP
0040
0040
0000
0004
4124
8124
81FC
8100
4200
3C10
0010
ENDCHAR
STARTCHAR 0x069B
ENCODING 1691
SWIDTH 960 0
DWIDTH 16 0
BBX 14 11 1 -8
BITMAP
0004
4124
8124
81FC
8100
4200
3C28
0028
0000
0010
0010
ENDCHAR
STARTCHAR 0x069C
ENCODING 1692
SWIDTH 960 0
DWIDTH 16 0
BBX 14 17 1 -8
BITMAP
0020
0020
0000
0050
0050
0000
0004
4124
8124
81FC
8100
4200
3C28
0028
0000
0010
0010
ENDCHAR
STARTCHAR 0x069D
ENCODING 1693
SWIDTH 1200 0
DWIDTH 20 0
BBX 19 7 1 -4
BITMAP
000380
410C40
811020
81FFE0
810000
420500
3C0500
ENDCHAR
STARTCHAR 0x069E
ENCODING 1694
SWIDTH 1200 0
DWIDTH 20 0
BBX 19 14 1 -4
BITMAP
000400
000400
000000
000A00
000A00
000000
000000
000380
410C40
811020
81FFE0
810000
420000
3C0000
ENDCHAR
STARTCHAR 0x069F
ENCODING 1695
SWIDTH 660 0
DWIDTH 11 0
BBX 10 12 1 -1
BITMAP
1000
1100
1900
1000
1280
1280
1000
1380
1440
1840
1040
FF80
ENDCHAR
STARTCHAR 0x06A0
ENCODING 1696
SWIDTH 540 0
DWIDTH 9 0
BBX 7 18 1 -5
BITMAP
10
10
00
28
28
00
00
38
40
40
38
60
40
80
80
80
82
7C
ENDCHAR
STARTCHAR 0x06A1
ENCODING 1697
SWIDTH 900 0
DWIDTH 15 0
BBX 13 7 1 -1
BITMAP
0030
0058
8048
8058
8028
4008
3FF0
ENDCHAR
STARTCHAR 0x06A2
ENCODING 1698
SWIDTH 900 0
DWIDTH 15 0
BBX 13 10 1 -4
BITMAP
0030
0058
8048
8058
8028
4008
3FF0
0000
0020
0020
ENDCHAR
STARTCHAR 0x06A3
ENCODING 1699
SWIDTH 900 0
DWIDTH 15 0
BBX 13 14 1 -4
BITMAP
0020
0020
0000
0000
0030
0058
8048
8058
8028
4008
3FF0
0000
0100
0100
ENDCHAR
STARTCHAR 0x06A4
ENCODING 1700
SWIDTH 900 0
DWIDTH 15 0
BBX 13 14 1 -1
BITMAP
0020
0020
0000
0050
0050
0000
0000
0030
0058
8048
8058
8028
4008
3FF0
ENDCHAR
STARTCHAR 0x06A5
ENCODING 1701
SWIDTH 900 0
DWIDTH 15 0
BBX 13 13 1 -7
BITMAP
0030
0058
8048
8058
8028
4008
3FF0
0000
0050
0050
0000
0020
0020
ENDCHAR
STARTCHAR 0x06A6
ENCODING 1702
SWIDTH 900 0
DWIDTH 15 0
BBX 13 14 1 -1
BITMAP
0050
0050
0000
0050
0050
0000
0000
0030
0058
8048
8058
8028
4008
3FF0
ENDCHAR
STARTCHAR 0x06A7
ENCODING 1703
SWIDTH 600 0
DWIDTH 10 0
BBX 8 13 1 -4
BITMAP
04
04
00
00
06
0B
09
0B
85
81
81
42
3C
ENDCHAR
STARTCHAR 0x06A8
ENCODING 1704
SWIDTH 600 0
DWIDTH 10 0
BBX 8 16 1 -4
BITMAP
04
04
00
0A
0A
00
00
06
0B
09
0B
85
81
81
42
3C
ENDCHAR
STARTCHAR 0x06A9
ENCODING 1705
SWIDTH 840 0
DWIDTH 14 0
BBX 14 12 1 -1
BITMAP
000C
0030
00C0
0100
0100
0100
0080
4040
8040
8020
8020
7FC0
ENDCHAR
STARTCHAR 0x06AA
ENCODING 1706
SWIDTH 960 0
DWIDTH 16 0
BBX 14 8 1 -1
BITMAP
0600
1800
2000
2000
1FF8
0004
8004
7FF8
ENDCHAR
STARTCHAR 0x06AB
ENCODING 1707
SWIDTH 900 0
DWIDTH 15 0
BBX 15 12 1 -1
BITMAP
0006
001C
0074
0094
0088
0060
4010
8010
8010
8010
4060
3F80
ENDCHAR
STARTCHAR 0x06AC
ENCODING 1708
SWIDTH 660 0
DWIDTH 11 0
BBX 10 15 1 -1
BITMAP
0200
0200
0000
0080
0080
00C0
0080
0480
0C80
0480
0C80
8080
8080
4080
3F00
ENDCHAR
STARTCHAR 0x06AD
ENCODING 1709
SWIDTH 660 0
DWIDTH 11 0
BBX 10 16 1 -1
BITMAP
0800
0800
0000
1400
1480
0080
00C0
0080
0480
0C80
0480
0C80
8080
8080
4080
3F00
ENDCHAR
STARTCHAR 0x06AE
ENCODING 1710
SWIDTH 660 0
DWIDTH 11 0
BBX 10 18 1 -7
BITMAP
0080
0080
00C0
0080
0480
0C80
0480
0C80
8080
8080
4080
3F00
0000
1400
1400
0000
0800
0800
ENDCHAR
STARTCHAR 0x06AF
ENCODING 1711
SWIDTH 900 0
DWIDTH 15 0
BBX 15 14 1 -1
BITMAP
0006
0018
0066
0098
0060
0080
0080
0060
4010
8010
8010
8010
4060
3F80
ENDCHAR
STARTCHAR 0x06B0
ENCODING 1712
SWIDTH 960 0
DWIDTH 16 0
BBX 15 14 1 -1
BITMAP
0006
0018
0066
009C
0074
0094
0088
0060
4010
8010
8010
8010
4060
3F80
ENDCHAR
STARTCHAR 0x06B1
ENCODING 1713
SWIDTH 900 0
DWIDTH 15 0
BBX 15 16 1 -1
BITMAP
0010
0050
0046
0018
0066
0098
0060
0080
0080
0060
4010
8010
8010
8010
4060
3F80
ENDCHAR
STARTCHAR 0x06B2
ENCODING 1714
SWIDTH 900 0
DWIDTH 15 0
BBX 15 17 1 -4
BITMAP
0006
0018
0066
0098
0060
0080
0080
0060
4010
8010
8010
8010
4060
3F80
0000
0A00
0A00
ENDCHAR
STARTCHAR 0x06B3
ENCODING 1715
SWIDTH 900 0
DWIDTH 15 0
BBX 15 18 1 -5
BITMAP
0006
0018
0066
0098
0060
0080
0080
0060
4010
8010
8010
8010
4060
3F80
0000
0C00
0000
0C00
ENDCHAR
STARTCHAR 0x06B4
ENCODING 1716
SWIDTH 900 0
DWIDTH 15 0
BBX 15 18 1 -1
BITMAP
0040
0040
0010
0050
0046
0018
0066
0098
0060
0080
0080
0060
4010
8010
8010
8010
4060
3F80
ENDCHAR
STARTCHAR 0x06B5
ENCODING 1717
SWIDTH 540 0
DWIDTH 9 0
BBX 8 16 1 -3
BITMAP
09
06
00
02
02
03
02
02
02
02
02
82
82
82
44
38
ENDCHAR
STARTCHAR 0x06B6
ENCODING 1718
SWIDTH 540 0
DWIDTH 9 0
BBX 8 17 1 -3
BITMAP
02
02
00
00
02
02
03
02
02
02
02
02
82
82
82
44
38
ENDCHAR
STARTCHAR 0x06B7
ENCODING 1719
SWIDTH 540 0
DWIDTH 9 0
BBX 8 20 1 -3
BITMAP
02
02
00
05
05
00
00
02
02
03
02
02
02
02
02
82
82
82
44
38
ENDCHAR
STARTCHAR 0x06BA
ENCODING 1722
SWIDTH 600 0
DWIDTH 10 0
BBX 8 8 1 -4
BITMAP
02
02
41
81
81
82
86
78
ENDCHAR
STARTCHAR 0x06BB
ENCODING 1723
SWIDTH 600 0
DWIDTH 10 0
BBX 8 13 1 -4
BITMAP
20
20
38
38
00
02
02
41
81
81
82
86
78
ENDCHAR
STARTCHAR 0x06BC
ENCODING 1724
SWIDTH 600 0
DWIDTH 10 0
BBX 8 12 1 -5
BITMAP
10
10
00
02
02
41
81
81
82
86
7D
07
ENDCHAR
STARTCHAR 0x06BD
ENCODING 1725
SWIDTH 600 0
DWIDTH 10 0
BBX 8 14 1 -4
BITMAP
10
10
00
28
28
00
02
02
41
81
81
82
86
78
ENDCHAR
STARTCHAR 0x06BE
ENCODING 1726
SWIDTH 480 0
DWIDTH 8 0
BBX 7 7 1 -1
BITMAP
18
04
1A
2A
2A
32
CC
ENDCHAR
STARTCHAR 0x06C0
ENCODING 1728
SWIDTH 480 0
DWIDTH 8 0
BBX 5 11 1 0
BITMAP
30
40
30
40
00
20
30
50
98
88
78
ENDCHAR
STARTCHAR 0x06C1
ENCODING 1729
SWIDTH 540 0
DWIDTH 9 0
BBX 6 4 1 0
BITMAP
30
78
8C
04
ENDCHAR
STARTCHAR 0x06C2
ENCODING 1730
SWIDTH 540 0
DWIDTH 9 0
BBX 6 10 1 0
BITMAP
18
20
18
20
00
00
30
78
8C
04
ENDCHAR
STARTCHAR 0x06C3
ENCODING 1731
SWIDTH 540 0
DWIDTH 9 0
BBX 6 8 1 0
BITMAP
28
28
00
00
30
78
8C
04
ENDCHAR
STARTCHAR 0x06C4
ENCODING 1732
SWIDTH 540 0
DWIDTH 9 0
BBX 7 8 1 -3
BITMAP
04
0A
0A
0E
12
2A
9C
78
ENDCHAR
STARTCHAR 0x06C5
ENCODING 1733
SWIDTH 540 0
DWIDTH 9 0
BBX 7 8 1 -3
BITMAP
04
0A
0A
0E
02
3E
84
78
ENDCHAR
STARTCHAR 0x06C6
ENCODING 1734
SWIDTH 540 0
DWIDTH 9 0
BBX 7 12 1 -3
BITMAP
12
0C
00
00
04
0A
0A
0E
02
02
84
78
ENDCHAR
STARTCHAR 0x06C7
ENCODING 1735
SWIDTH 540 0
DWIDTH 9 0
BBX 7 14 1 -3
BITMAP
04
0A
04
0A
10
00
04
0A
0A
0E
02
02
84
78
ENDCHAR
STARTCHAR 0x06C8
ENCODING 1736
SWIDTH 540 0
DWIDTH 9 0
BBX 7 14 1 -3
BITMAP
04
04
04
04
00
00
04
0A
0A
0E
02
02
84
78
ENDCHAR
STARTCHAR 0x06C9
ENCODING 1737
SWIDTH 540 0
DWIDTH 9 0
BBX 7 12 1 -3
BITMAP
0C
12
00
00
04
0A
0A
0E
02
02
84
78
ENDCHAR
STARTCHAR 0x06CA
ENCODING 1738
SWIDTH 540 0
DWIDTH 9 0
BBX 7 12 1 -3
BITMAP
0A
0A
00
00
04
0A
0A
0E
02
02
84
78
ENDCHAR
STARTCHAR 0x06CB
ENCODING 1739
SWIDTH 540 0
DWIDTH 9 0
BBX 7 15 1 -3
BITMAP
04
04
00
0A
0A
00
00
04
0A
0A
0E
02
02
84
78
ENDCHAR
STARTCHAR 0x06CC
ENCODING 1740
SWIDTH 660 0
DWIDTH 11 0
BBX 10 8 1 -3
BITMAP
01C0
4200
4400
8700
8080
8080
8300
7C00
ENDCHAR
STARTCHAR 0x06CD
ENCODING 1741
SWIDTH 840 0
DWIDTH 14 0
BBX 12 8 1 -3
BITMAP
0070
1080
3100
61C0
A020
2020
20C0
1F00
ENDCHAR
STARTCHAR 0x06CE
ENCODING 1742
SWIDTH 720 0
DWIDTH 12 0
BBX 10 10 1 -3
BITMAP
2400
1800
01C0
4200
4400
8700
8080
8080
8300
7C00
ENDCHAR
STARTCHAR 0x06D0
ENCODING 1744
SWIDTH 720 0
DWIDTH 12 0
BBX 10 12 1 -7
BITMAP
01C0
4200
4400
8700
8080
8080
8300
7C00
0000
3000
0000
3000
ENDCHAR
STARTCHAR 0x06D1
ENCODING 1745
SWIDTH 720 0
DWIDTH 12 0
BBX 10 14 1 -9
BITMAP
01C0
4200
4400
8700
8080
8080
8300
7C00
0000
2800
2800
0000
1000
1000
ENDCHAR
STARTCHAR 0x06D2
ENCODING 1746
SWIDTH 900 0
DWIDTH 15 0
BBX 13 8 1 -4
BITMAP
0200
0500
0500
1800
6000
8000
8000
7FF8
ENDCHAR
STARTCHAR 0x06D3
ENCODING 1747
SWIDTH 900 0
DWIDTH 15 0
BBX 13 11 1 -4
BITMAP
3000
4000
3000
4200
0500
0500
1800
6000
8000
8000
7FF8
ENDCHAR
STARTCHAR 0x06D4
ENCODING 1748
SWIDTH 480 0
DWIDTH 8 0
BBX 5 1 1 3
BITMAP
F8
ENDCHAR
STARTCHAR 0x06D5
ENCODING 1749
SWIDTH 420 0
DWIDTH 7 0
BBX 5 6 1 0
BITMAP
20
30
50
98
88
78
ENDCHAR
STARTCHAR 0x06F0
ENCODING 1776
SWIDTH 240 0
DWIDTH 4 0
BBX 2 2 2 3
BITMAP
C0
C0
ENDCHAR
STARTCHAR 0x06F1
ENCODING 1777
SWIDTH 420 0
DWIDTH 7 0
BBX 3 11 3 0
BITMAP
80
80
C0
C0
40
60
20
20
20
20
20
ENDCHAR
STARTCHAR 0x06F2
ENCODING 1778
SWIDTH 540 0
DWIDTH 9 0
BBX 6 10 2 0
BITMAP
84
C4
F8
60
60
20
30
10
10
10
ENDCHAR
STARTCHAR 0x06F3
ENCODING 1779
SWIDTH 600 0
DWIDTH 10 0
BBX 7 10 2 0
BITMAP
8A
CA
F4
60
60
20
30
10
10
10
ENDCHAR
STARTCHAR 0x06F4
ENCODING 1780
SWIDTH 480 0
DWIDTH 8 0
BBX 6 11 2 0
BITMAP
10
A4
C4
F8
60
60
20
30
10
10
10
ENDCHAR
STARTCHAR 0x06F5
ENCODING 1781
SWIDTH 420 0
DWIDTH 7 0
BBX 5 9 2 0
BITMAP
20
50
50
88
88
88
A8
A8
50
ENDCHAR
STARTCHAR 0x06F6
ENCODING 1782
SWIDTH 420 0
DWIDTH 7 0
BBX 5 9 2 0
BITMAP
38
40
40
48
30
60
40
80
80
ENDCHAR
STARTCHAR 0x06F7
ENCODING 1783
SWIDTH 540 0
DWIDTH 9 0
BBX 7 11 1 -1
BITMAP
82
82
C4
44
48
28
28
30
10
10
10
ENDCHAR
STARTCHAR 0x06F8
ENCODING 1784
SWIDTH 540 0
DWIDTH 9 0
BBX 7 12 1 -1
BITMAP
10
10
18
18
28
28
24
44
46
C2
82
80
ENDCHAR
STARTCHAR 0x06F9
ENCODING 1785
SWIDTH 540 0
DWIDTH 9 0
BBX 5 11 2 0
BITMAP
60
A0
A0
A0
A0
50
10
10
08
08
08
ENDCHAR
STARTCHAR 0x0E01
ENCODING 3585
SWIDTH 480 0
DWIDTH 8 0
BBX 7 9 1 0
BITMAP
7C
86
42
82
82
82
82
82
82
ENDCHAR
STARTCHAR 0x0E02
ENCODING 3586
SWIDTH 540 0
DWIDTH 9 0
BBX 8 9 1 0
BITMAP
71
A9
49
11
11
11
11
11
3F
ENDCHAR
STARTCHAR 0x0E03
ENCODING 3587
SWIDTH 600 0
DWIDTH 10 0
BBX 9 9 1 0
BITMAP
4880
B480
CC80
A880
4880
0880
0880
0880
1F80
ENDCHAR
STARTCHAR 0x0E04
ENCODING 3588
SWIDTH 540 0
DWIDTH 9 0
BBX 8 9 1 0
BITMAP
7E
83
81
B1
E9
51
41
41
41
ENDCHAR
STARTCHAR 0x0E05
ENCODING 3589
SWIDTH 540 0
DWIDTH 9 0
BBX 8 9 1 0
BITMAP
66
99
81
B1
E9
51
41
41
41
ENDCHAR
STARTCHAR 0x0E06
ENCODING 3590
SWIDTH 660 0
DWIDTH 11 0
BBX 10 9 1 0
BITMAP
6840
9440
C840
A840
4840
1E40
2940
28C0
1840
ENDCHAR
STARTCHAR 0x0E07
ENCODING 3591
SWIDTH 420 0
DWIDTH 7 0
BBX 6 9 1 0
BITMAP
08
14
0C
84
84
44
24
14
0C
ENDCHAR
STARTCHAR 0x0E08
ENCODING 3592
SWIDTH 480 0
DWIDTH 8 0
BBX 7 9 1 0
BITMAP
7C
86
02
1A
2E
16
02
02
02
ENDCHAR
STARTCHAR 0x0E09
ENCODING 3593
SWIDTH 600 0
DWIDTH 10 0
BBX 9 9 1 0
BITMAP
3C00
4600
0200
4200
A200
6700
2A80
3280
2100
ENDCHAR
STARTCHAR 0x0E0A
ENCODING 3594
SWIDTH 600 0
DWIDTH 10 0
BBX 9 9 1 0
BITMAP
7180
AA00
4900
1100
1100
1100
1100
1100
3F00
ENDCHAR
STARTCHAR 0x0E0B
ENCODING 3595
SWIDTH 660 0
DWIDTH 11 0
BBX 10 9 1 0
BITMAP
48C0
B500
8480
C880
A880
4880
0880
0880
1F80
ENDCHAR
STARTCHAR 0x0E0C
ENCODING 3596
SWIDTH 660 0
DWIDTH 11 0
BBX 10 9 1 0
BITMAP
7840
8440
4440
8440
8440
8440
CF40
ACC0
4840
ENDCHAR
STARTCHAR 0x0E0D
ENCODING 3597
SWIDTH 660 0
DWIDTH 11 0
BBX 10 13 1 -4
BITMAP
7840
8440
4440
8440
8440
8440
C440
A440
4FC0
0000
0440
0A40
0780
ENDCHAR
STARTCHAR 0x0E0E
ENCODING 3598
SWIDTH 600 0
DWIDTH 10 0
BBX 9 14 1 -5
BITMAP
1F00
2080
1080
2080
2080
2080
6080
A080
4080
0480
3C80
4A80
3180
0080
ENDCHAR
STARTCHAR 0x0E0F
ENCODING 3599
SWIDTH 600 0
DWIDTH 10 0
BBX 9 14 1 -5
BITMAP
1F00
2080
1080
2080
2080
2080
6080
A080
4080
0480
3880
4A80
3580
0080
ENDCHAR
STARTCHAR 0x0E10
ENCODING 3600
SWIDTH 540 0
DWIDTH 9 0
BBX 8 14 1 -5
BITMAP
1C
23
78
06
1A
2E
16
02
02
00
16
66
AA
D4
ENDCHAR
STARTCHAR 0x0E11
ENCODING 3601
SWIDTH 660 0
DWIDTH 11 0
BBX 10 9 1 0
BITMAP
5880
A540
CA40
AA40
4C40
0C40
0840
0840
0840
ENDCHAR
STARTCHAR 0x0E12
ENCODING 3602
SWIDTH 780 0
DWIDTH 13 0
BBX 12 9 1 0
BITMAP
6610
9910
9110
A910
9910
5110
63D0
6530
6310
ENDCHAR
STARTCHAR 0x0E13
ENCODING 3603
SWIDTH 780 0
DWIDTH 13 0
BBX 12 9 1 0
BITMAP
7840
8440
4440
8440
8440
84E0
C550
A650
4460
ENDCHAR
STARTCHAR 0x0E14
ENCODING 3604
SWIDTH 540 0
DWIDTH 9 0
BBX 8 9 1 0
BITMAP
3E
43
91
A9
99
B1
61
41
41
ENDCHAR
STARTCHAR 0x0E15
ENCODING 3605
SWIDTH 600 0
DWIDTH 10 0
BBX 8 9 1 0
BITMAP
66
99
91
A9
99
B1
61
41
41
ENDCHAR
STARTCHAR 0x0E16
ENCODING 3606
SWIDTH 480 0
DWIDTH 8 0
BBX 7 9 1 0
BITMAP
7C
86
42
82
82
82
C2
A2
42
ENDCHAR
STARTCHAR 0x0E17
ENCODING 3607
SWIDTH 540 0
DWIDTH 9 0
BBX 8 9 1 0
BITMAP
42
A5
69
29
31
31
21
21
21
ENDCHAR
STARTCHAR 0x0E18
ENCODING 3608
SWIDTH 480 0
DWIDTH 8 0
BBX 7 9 1 0
BITMAP
38
46
F0
0C
24
24
24
24
7C
ENDCHAR
STARTCHAR 0x0E19
ENCODING 3609
SWIDTH 660 0
DWIDTH 11 0
BBX 10 9 1 0
BITMAP
4100
A100
6100
2100
2100
2780
2940
3140
2180
ENDCHAR
STARTCHAR 0x0E1A
ENCODING 3610
SWIDTH 600 0
DWIDTH 10 0
BBX 9 9 1 0
BITMAP
4080
A080
6080
2080
2080
2080
2080
2080
7F80
ENDCHAR
STARTCHAR 0x0E1B
ENCODING 3611
SWIDTH 600 0
DWIDTH 10 0
BBX 9 13 1 0
BITMAP
0080
0080
0080
0080
4080
A080
6080
2080
2080
2080
2080
2080
7F80
ENDCHAR
STARTCHAR 0x0E1C
ENCODING 3612
SWIDTH 480 0
DWIDTH 8 0
BBX 7 9 2 0
BITMAP
42
A2
C2
82
92
AA
C6
82
82
ENDCHAR
STARTCHAR 0x0E1D
ENCODING 3613
SWIDTH 480 0
DWIDTH 8 0
BBX 7 13 2 0
BITMAP
02
02
02
02
42
A2
C2
82
92
AA
C6
82
82
ENDCHAR
STARTCHAR 0x0E1E
ENCODING 3614
SWIDTH 660 0
DWIDTH 11 0
BBX 10 9 1 0
BITMAP
4040
A640
6640
2940
2940
30C0
30C0
2040
2040
ENDCHAR
STARTCHAR 0x0E1F
ENCODING 3615
SWIDTH 660 0
DWIDTH 11 0
BBX 10 13 1 0
BITMAP
0040
0040
0040
0040
4040
A640
6640
2940
2940
30C0
30C0
2040
2040
ENDCHAR
STARTCHAR 0x0E20
ENCODING 3616
SWIDTH 600 0
DWIDTH 10 0
BBX 9 9 1 0
BITMAP
1F00
2180
1080
2080
2080
2080
6080
A080
4080
ENDCHAR
STARTCHAR 0x0E21
ENCODING 3617
SWIDTH 540 0
DWIDTH 9 0
BBX 8 9 1 0
BITMAP
41
A1
61
21
21
79
A5
A3
61
ENDCHAR
STARTCHAR 0x0E22
ENCODING 3618
SWIDTH 480 0
DWIDTH 8 0
BBX 7 9 1 0
BITMAP
62
D2
A2
82
62
82
82
82
FC
ENDCHAR
STARTCHAR 0x0E23
ENCODING 3619
SWIDTH 480 0
DWIDTH 8 0
BBX 7 9 1 0
BITMAP
38
46
F0
0C
04
04
0C
14
08
ENDCHAR
STARTCHAR 0x0E24
ENCODING 3620
SWIDTH 480 0
DWIDTH 8 0
BBX 7 14 1 -5
BITMAP
7C
86
42
82
82
82
C2
A2
42
02
02
02
02
02
ENDCHAR
STARTCHAR 0x0E25
ENCODING 3621
SWIDTH 540 0
DWIDTH 9 0
BBX 7 9 2 0
BITMAP
7C
86
02
72
8A
86
C6
A2
42
ENDCHAR
STARTCHAR 0x0E26
ENCODING 3622
SWIDTH 600 0
DWIDTH 10 0
BBX 9 14 1 -5
BITMAP
1F00
2180
1080
2080
2080
2080
6080
A080
4080
0080
0080
0080
0080
0080
ENDCHAR
STARTCHAR 0x0E27
ENCODING 3623
SWIDTH 480 0
DWIDTH 8 0
BBX 7 9 1 0
BITMAP
7C
86
02
02
02
02
06
0A
04
ENDCHAR
STARTCHAR 0x0E28
ENCODING 3624
SWIDTH 540 0
DWIDTH 9 0
BBX 8 10 1 0
BITMAP
02
7E
87
89
B9
E9
51
41
41
41
ENDCHAR
STARTCHAR 0x0E29
ENCODING 3625
SWIDTH 660 0
DWIDTH 11 0
BBX 10 9 1 0
BITMAP
4100
A100
6D40
2B80
2700
2100
2100
2100
7F00
ENDCHAR
STARTCHAR 0x0E2A
ENCODING 3626
SWIDTH 480 0
DWIDTH 8 0
BBX 7 10 1 0
BITMAP
02
7E
86
0A
7A
8A
86
E6
92
62
ENDCHAR
STARTCHAR 0x0E2B
ENCODING 3627
SWIDTH 540 0
DWIDTH 9 0
BBX 8 9 1 0
BITMAP
42
A5
66
29
29
31
31
21
21
ENDCHAR
STARTCHAR 0x0E2C
ENCODING 3628
SWIDTH 660 0
DWIDTH 11 0
BBX 12 10 1 0
BITMAP
0090
4160
A6C0
6640
2940
2940
30C0
30C0
2040
2040
ENDCHAR
STARTCHAR 0x0E2D
ENCODING 3629
SWIDTH 540 0
DWIDTH 9 0
BBX 7 9 2 0
BITMAP
7C
86
02
42
A2
C2
82
82
FE
ENDCHAR
STARTCHAR 0x0E2E
ENCODING 3630
SWIDTH 540 0
DWIDTH 9 0
BBX 8 9 1 0
BITMAP
7D
82
7E
02
42
A2
C2
82
7E
ENDCHAR
STARTCHAR 0x0E2F
ENCODING 3631
SWIDTH 480 0
DWIDTH 8 0
BBX 7 9 1 0
BITMAP
42
A2
C6
8A
72
02
02
06
18
ENDCHAR
STARTCHAR 0x0E30
ENCODING 3632
SWIDTH 420 0
DWIDTH 7 0
BBX 6 9 1 0
BITMAP
40
A4
C4
78
00
40
A4
C4
78
ENDCHAR
STARTCHAR 0x0E31
ENCODING 3633
SWIDTH 0 0
DWIDTH 0 0
BBX 6 4 0 10
BITMAP
40
A4
C4
78
ENDCHAR
STARTCHAR 0x0E32
ENCODING 3634
SWIDTH 480 0
DWIDTH 8 0
BBX 7 9 1 0
BITMAP
7C
86
02
02
02
02
02
02
02
ENDCHAR
STARTCHAR 0x0E33
ENCODING 3635
SWIDTH 480 0
DWIDTH 8 0
BBX 11 15 -3 0
BITMAP
4000
A000
A000
4000
0000
0000
07C0
0860
0020
0020
0020
0020
0020
0020
0020
ENDCHAR
STARTCHAR 0x0E34
ENCODING 3636
SWIDTH 0 0
DWIDTH 0 0
BBX 7 4 0 9
BITMAP
38
44
FE
02
ENDCHAR
STARTCHAR 0x0E35
ENCODING 3637
SWIDTH 0 0
DWIDTH 0 0
BBX 7 5 0 9
BITMAP
02
3A
46
FE
02
ENDCHAR
STARTCHAR 0x0E36
ENCODING 3638
SWIDTH 0 0
DWIDTH 0 0
BBX 7 5 0 9
BITMAP
06
3A
44
FE
02
ENDCHAR
STARTCHAR 0x0E37
ENCODING 3639
SWIDTH 0 0
DWIDTH 0 0
BBX 7 5 0 9
BITMAP
0A
3A
46
FE
02
ENDCHAR
STARTCHAR 0x0E38
ENCODING 3640
SWIDTH 0 0
DWIDTH 0 0
BBX 3 6 0 -7
BITMAP
40
A0
A0
60
20
20
ENDCHAR
STARTCHAR 0x0E39
ENCODING 3641
SWIDTH 0 0
DWIDTH 0 0
BBX 6 6 0 -7
BITMAP
44
A4
A4
64
24
18
ENDCHAR
STARTCHAR 0x0E3A
ENCODING 3642
SWIDTH 0 0
DWIDTH 0 0
BBX 2 2 0 -3
BITMAP
C0
C0
ENDCHAR
STARTCHAR 0x0E3F
ENCODING 3647
SWIDTH 720 0
DWIDTH 12 0
BBX 11 11 1 0
BITMAP
3F20
10C0
10C0
1140
1280
1F00
1880
1040
3040
5080
BF00
ENDCHAR
STARTCHAR 0x0E40
ENCODING 3648
SWIDTH 240 0
DWIDTH 4 0
BBX 3 9 1 0
BITMAP
80
80
80
80
80
80
C0
A0
40
ENDCHAR
STARTCHAR 0x0E41
ENCODING 3649
SWIDTH 480 0
DWIDTH 8 0
BBX 7 9 1 0
BITMAP
88
88
88
88
88
88
CC
AA
44
ENDCHAR
STARTCHAR 0x0E42
ENCODING 3650
SWIDTH 360 0
DWIDTH 6 0
BBX 5 17 1 0
BITMAP
F0
98
40
20
20
20
20
20
20
20
20
20
20
20
30
28
10
ENDCHAR
STARTCHAR 0x0E43
ENCODING 3651
SWIDTH 360 0
DWIDTH 6 0
BBX 5 17 1 0
BITMAP
40
A0
60
20
20
20
20
20
20
20
20
20
20
20
30
28
10
ENDCHAR
STARTCHAR 0x0E44
ENCODING 3652
SWIDTH 420 0
DWIDTH 7 0
BBX 7 17 1 0
BITMAP
18
98
A8
68
48
08
08
08
08
08
08
08
08
08
0C
0A
04
ENDCHAR
STARTCHAR 0x0E45
ENCODING 3653
SWIDTH 480 0
DWIDTH 8 0
BBX 7 14 1 -5
BITMAP
7C
86
02
02
02
02
02
02
02
02
02
02
02
02
ENDCHAR
STARTCHAR 0x0E46
ENCODING 3654
SWIDTH 480 0
DWIDTH 8 0
BBX 7 13 1 -3
BITMAP
6C
92
C2
A2
42
02
02
02
02
02
02
04
18
ENDCHAR
STARTCHAR 0x0E47
ENCODING 3655
SWIDTH 0 0
DWIDTH 0 0
BBX 6 5 0 10
BITMAP
04
78
88
F4
18
ENDCHAR
STARTCHAR 0x0E48
ENCODING 3656
SWIDTH 0 0
DWIDTH 0 0
BBX 1 3 0 10
BITMAP
80
80
80
ENDCHAR
STARTCHAR 0x0E49
ENCODING 3657
SWIDTH 0 0
DWIDTH 0 0
BBX 6 4 0 10
BITMAP
40
A4
44
F8
ENDCHAR
STARTCHAR 0x0E4A
ENCODING 3658
SWIDTH 0 0
DWIDTH 0 0
BBX 9 4 0 10
BITMAP
6C00
9280
D300
D600
ENDCHAR
STARTCHAR 0x0E4B
ENCODING 3659
SWIDTH 0 0
DWIDTH 0 0
BBX 3 3 0 10
BITMAP
40
E0
40
ENDCHAR
STARTCHAR 0x0E4C
ENCODING 3660
SWIDTH 0 0
DWIDTH 0 0
BBX 4 4 0 10
BITMAP
10
60
A0
40
ENDCHAR
STARTCHAR 0x0E4D
ENCODING 3661
SWIDTH 0 0
DWIDTH 0 0
BBX 3 4 0 10
BITMAP
40
A0
A0
40
ENDCHAR
STARTCHAR 0x0E4E
ENCODING 3662
SWIDTH 0 0
DWIDTH 0 0
BBX 3 5 0 10
BITMAP
60
80
60
80
60
ENDCHAR
STARTCHAR 0x0E4F
ENCODING 3663
SWIDTH 540 0
DWIDTH 9 0
BBX 8 8 1 1
BITMAP
3C
42
99
BD
BD
99
42
3C
ENDCHAR
STARTCHAR 0x0E50
ENCODING 3664
SWIDTH 540 0
DWIDTH 9 0
BBX 8 7 1 0
BITMAP
3C
42
81
81
81
42
3C
ENDCHAR
STARTCHAR 0x0E51
ENCODING 3665
SWIDTH 540 0
DWIDTH 9 0
BBX 8 8 1 -1
BITMAP
3C
42
89
95
8D
C5
79
02
ENDCHAR
STARTCHAR 0x0E52
ENCODING 3666
SWIDTH 660 0
DWIDTH 11 0
BBX 10 10 1 0
BITMAP
C000
4000
4000
4D80
5240
5840
5440
4840
4040
3F80
ENDCHAR
STARTCHAR 0x0E53
ENCODING 3667
SWIDTH 600 0
DWIDTH 10 0
BBX 9 7 1 0
BITMAP
7700
8980
8880
8880
C880
A880
4900
ENDCHAR
STARTCHAR 0x0E54
ENCODING 3668
SWIDTH 720 0
DWIDTH 12 0
BBX 11 11 1 0
BITMAP
0020
0020
0060
0040
3F80
4000
8800
9400
8C00
4700
3FC0
ENDCHAR
STARTCHAR 0x0E55
ENCODING 3669
SWIDTH 720 0
DWIDTH 12 0
BBX 11 10 1 0
BITMAP
0820
1460
1C40
3F80
4000
8800
9400
9800
4E00
3FC0
ENDCHAR
STARTCHAR 0x0E56
ENCODING 3670
SWIDTH 480 0
DWIDTH 8 0
BBX 7 11 0 0
BITMAP
80
80
40
40
7C
46
02
02
22
54
38
ENDCHAR
STARTCHAR 0x0E57
ENCODING 3671
SWIDTH 720 0
DWIDTH 12 0
BBX 11 11 1 0
BITMAP
0020
0040
0040
0040
7640
D940
8940
8140
A140
D280
6300
ENDCHAR
STARTCHAR 0x0E58
ENCODING 3672
SWIDTH 660 0
DWIDTH 11 0
BBX 10 10 1 0
BITMAP
0040
0040
0040
3CC0
4380
8100
B280
A980
6480
2300
ENDCHAR
STARTCHAR 0x0E59
ENCODING 3673
SWIDTH 600 0
DWIDTH 10 0
BBX 9 11 1 0
BITMAP
0100
0080
0080
0080
7280
CD80
8400
8600
9200
A900
7100
ENDCHAR
STARTCHAR 0x0E5A
ENCODING 3674
SWIDTH 540 0
DWIDTH 9 0
BBX 8 11 1 -2
BITMAP
42
A2
C6
8A
72
02
02
02
02
01
06
ENDCHAR
STARTCHAR 0x0E5B
ENCODING 3675
SWIDTH 840 0
DWIDTH 14 0
BBX 13 11 1 0
BITMAP
6000
9000
A018
8930
8920
8920
8920
8920
8920
D6A0
7240
ENDCHAR
STARTCHAR 0x0E81
ENCODING 3713
SWIDTH 480 0
DWIDTH 8 0
BBX 7 9 1 0
BITMAP
DC
B2
62
22
22
22
62
A2
42
ENDCHAR
STARTCHAR 0x0E82
ENCODING 3714
SWIDTH 480 0
DWIDTH 8 0
BBX 7 9 1 0
BITMAP
38
44
C2
A2
42
04
78
82
7C
ENDCHAR
STARTCHAR 0x0E84
ENCODING 3716
SWIDTH 480 0
DWIDTH 8 0
BBX 7 9 1 0
BITMAP
7C
86
82
A2
52
A2
82
B2
72
ENDCHAR
STARTCHAR 0x0E87
ENCODING 3719
SWIDTH 480 0
DWIDTH 8 0
BBX 7 11 1 -2
BITMAP
7C
C6
A2
42
02
02
02
02
82
44
38
ENDCHAR
STARTCHAR 0x0E88
ENCODING 3720
SWIDTH 480 0
DWIDTH 8 0
BBX 7 9 1 0
BITMAP
78
C4
82
1A
2E
12
02
02
02
ENDCHAR
STARTCHAR 0x0E8A
ENCODING 3722
SWIDTH 480 0
DWIDTH 8 0
BBX 7 13 1 -4
BITMAP
38
44
C2
A2
42
04
38
44
7C
04
04
04
02
ENDCHAR
STARTCHAR 0x0E8D
ENCODING 3725
SWIDTH 480 0
DWIDTH 8 0
BBX 7 9 1 0
BITMAP
72
B2
82
82
62
82
82
C6
7C
ENDCHAR
STARTCHAR 0x0E94
ENCODING 3732
SWIDTH 480 0
DWIDTH 8 0
BBX 7 9 1 0
BITMAP
7C
C6
82
82
82
82
C2
A2
62
ENDCHAR
STARTCHAR 0x0E95
ENCODING 3733
SWIDTH 480 0
DWIDTH 8 0
BBX 7 9 1 0
BITMAP
6C
92
82
82
82
82
C2
A2
42
ENDCHAR
STARTCHAR 0x0E96
ENCODING 3734
SWIDTH 480 0
DWIDTH 8 0
BBX 8 13 1 -4
BITMAP
CE
B1
61
21
21
21
31
29
11
01
01
01
01
ENDCHAR
STARTCHAR 0x0E97
ENCODING 3735
SWIDTH 540 0
DWIDTH 9 0
BBX 8 9 1 0
BITMAP
46
A9
69
49
89
89
89
89
71
ENDCHAR
STARTCHAR 0x0E99
ENCODING 3737
SWIDTH 540 0
DWIDTH 9 0
BBX 8 9 1 0
BITMAP
41
A1
61
21
21
21
21
21
DE
ENDCHAR
STARTCHAR 0x0E9A
ENCODING 3738
SWIDTH 480 0
DWIDTH 8 0
BBX 7 9 1 0
BITMAP
42
A2
62
42
82
82
82
C6
7C
ENDCHAR
STARTCHAR 0x0E9B
ENCODING 3739
SWIDTH 480 0
DWIDTH 8 0
BBX 7 13 1 0
BITMAP
02
02
02
02
42
A2
62
42
82
82
82
C6
7C
ENDCHAR
STARTCHAR 0x0E9C
ENCODING 3740
SWIDTH 540 0
DWIDTH 9 0
BBX 8 9 1 0
BITMAP
45
AB
C6
82
82
92
92
92
6C
ENDCHAR
STARTCHAR 0x0E9D
ENCODING 3741
SWIDTH 480 0
DWIDTH 8 0
BBX 7 13 1 0
BITMAP
02
02
02
02
42
A2
C2
82
92
92
92
92
6C
ENDCHAR
STARTCHAR 0x0E9E
ENCODING 3742
SWIDTH 480 0
DWIDTH 8 0
BBX 7 9 1 0
BITMAP
42
A2
62
42
82
92
92
92
6C
ENDCHAR
STARTCHAR 0x0E9F
ENCODING 3743
SWIDTH 480 0
DWIDTH 8 0
BBX 7 13 1 0
BITMAP
02
02
02
02
42
A2
62
42
82
92
92
92
6C
ENDCHAR
STARTCHAR 0x0EA1
ENCODING 3745
SWIDTH 540 0
DWIDTH 9 0
BBX 8 9 1 0
BITMAP
61
21
21
21
21
21
61
B1
4E
ENDCHAR
STARTCHAR 0x0EA2
ENCODING 3746
SWIDTH 480 0
DWIDTH 8 0
BBX 7 13 1 0
BITMAP
02
02
02
02
72
B2
82
82
62
82
82
C6
7C
ENDCHAR
STARTCHAR 0x0EA3
ENCODING 3747
SWIDTH 480 0
DWIDTH 8 0
BBX 7 9 1 0
BITMAP
78
84
82
C0
3C
42
A2
C6
7C
ENDCHAR
STARTCHAR 0x0EA5
ENCODING 3749
SWIDTH 480 0
DWIDTH 8 0
BBX 7 9 1 0
BITMAP
7C
86
82
02
02
72
CA
AA
44
ENDCHAR
STARTCHAR 0x0EA7
ENCODING 3751
SWIDTH 480 0
DWIDTH 8 0
BBX 7 9 1 0
BITMAP
7C
86
82
02
02
42
A2
C2
7C
ENDCHAR
STARTCHAR 0x0EAA
ENCODING 3754
SWIDTH 540 0
DWIDTH 9 0
BBX 8 9 1 0
BITMAP
79
86
86
7A
02
72
CA
AA
44
ENDCHAR
STARTCHAR 0x0EAB
ENCODING 3755
SWIDTH 720 0
DWIDTH 12 0
BBX 11 9 1 0
BITMAP
4DC0
AB20
6620
4220
8220
8220
8220
C620
7C20
ENDCHAR
STARTCHAR 0x0EAD
ENCODING 3757
SWIDTH 480 0
DWIDTH 8 0
BBX 7 9 1 0
BITMAP
7C
86
86
7A
02
42
A2
C2
7C
ENDCHAR
STARTCHAR 0x0EAE
ENCODING 3758
SWIDTH 540 0
DWIDTH 9 0
BBX 8 9 1 0
BITMAP
78
85
82
C0
3C
42
A2
C6
7C
ENDCHAR
STARTCHAR 0x0EAF
ENCODING 3759
SWIDTH 480 0
DWIDTH 8 0
BBX 7 15 1 -4
BITMAP
42
A6
CA
72
02
02
02
02
02
02
02
82
82
46
3C
ENDCHAR
STARTCHAR 0x0EB0
ENCODING 3760
SWIDTH 420 0
DWIDTH 7 0
BBX 6 7 1 1
BITMAP
40
A4
7C
00
40
A4
7C
ENDCHAR
STARTCHAR 0x0EB1
ENCODING 3761
SWIDTH 0 0
DWIDTH 0 0
BBX 8 4 0 10
BITMAP
40
A1
C1
7E
ENDCHAR
STARTCHAR 0x0EB2
ENCODING 3762
SWIDTH 420 0
DWIDTH 7 0
BBX 6 9 1 0
BITMAP
78
C4
A4
44
04
04
04
04
04
ENDCHAR
STARTCHAR 0x0EB3
ENCODING 3763
SWIDTH 480 0
DWIDTH 8 0
BBX 11 14 -4 0
BITMAP
4000
A000
A000
4000
0000
03C0
0620
0520
0220
0020
0020
0020
0020
0020
ENDCHAR
STARTCHAR 0x0EB4
ENCODING 3764
SWIDTH 0 0
DWIDTH 0 0
BBX 8 5 0 10
BITMAP
7E
C3
81
81
42
ENDCHAR
STARTCHAR 0x0EB5
ENCODING 3765
SWIDTH 0 0
DWIDTH 0 0
BBX 10 5 0 10
BITMAP
7E00
C300
8100
8140
4380
ENDCHAR
STARTCHAR 0x0EB6
ENCODING 3766
SWIDTH 0 0
DWIDTH 0 0
BBX 8 5 0 10
BITMAP
7E
C3
99
99
42
ENDCHAR
STARTCHAR 0x0EB7
ENCODING 3767
SWIDTH 0 0
DWIDTH 0 0
BBX 10 5 0 10
BITMAP
7E00
C300
9900
9940
4380
ENDCHAR
STARTCHAR 0x0EB8
ENCODING 3768
SWIDTH 0 0
DWIDTH 0 0
BBX 3 5 0 -5
BITMAP
40
A0
60
20
40
ENDCHAR
STARTCHAR 0x0EB9
ENCODING 3769
SWIDTH 0 0
DWIDTH 0 0
BBX 4 5 0 -5
BITMAP
D0
D0
90
90
60
ENDCHAR
STARTCHAR 0x0EBB
ENCODING 3771
SWIDTH 0 0
DWIDTH 0 0
BBX 8 4 0 10
BITMAP
7E
C1
A1
40
ENDCHAR
STARTCHAR 0x0EBC
ENCODING 3772
SWIDTH 0 0
DWIDTH 0 0
BBX 6 3 0 -3
BITMAP
70
AC
40
ENDCHAR
STARTCHAR 0x0EBD
ENCODING 3773
SWIDTH 480 0
DWIDTH 8 0
BBX 7 13 1 -2
BITMAP
60
5C
40
30
08
04
62
D2
A2
82
82
C6
7C
ENDCHAR
STARTCHAR 0x0EC0
ENCODING 3776
SWIDTH 360 0
DWIDTH 6 0
BBX 5 9 1 0
BITMAP
70
80
80
80
80
80
90
A8
70
ENDCHAR
STARTCHAR 0x0EC1
ENCODING 3777
SWIDTH 660 0
DWIDTH 11 0
BBX 10 9 1 0
BITMAP
7380
8400
8400
8400
8400
8400
9480
AD40
7380
ENDCHAR
STARTCHAR 0x0EC2
ENCODING 3778
SWIDTH 480 0
DWIDTH 8 0
BBX 7 15 1 0
BITMAP
60
90
88
44
22
10
08
08
08
08
08
08
0C
0A
04
ENDCHAR
STARTCHAR 0x0EC3
ENCODING 3779
SWIDTH 480 0
DWIDTH 8 0
BBX 7 15 0 0
BITMAP
38
44
82
82
82
4C
10
10
10
10
10
10
18
14
08
ENDCHAR
STARTCHAR 0x0EC4
ENCODING 3780
SWIDTH 480 0
DWIDTH 8 0
BBX 7 15 0 0
BITMAP
C0
40
40
40
58
68
08
10
10
10
10
10
14
1A
0C
ENDCHAR
STARTCHAR 0x0EC6
ENCODING 3782
SWIDTH 480 0
DWIDTH 8 0
BBX 7 15 1 -4
BITMAP
6C
92
C2
A2
42
02
02
02
02
02
02
82
82
46
3C
ENDCHAR
STARTCHAR 0x0EC8
ENCODING 3784
SWIDTH 0 0
DWIDTH 0 0
BBX 1 3 0 10
BITMAP
80
80
80
ENDCHAR
STARTCHAR 0x0EC9
ENCODING 3785
SWIDTH 0 0
DWIDTH 0 0
BBX 6 4 0 10
BITMAP
40
A0
44
FC
ENDCHAR
STARTCHAR 0x0ECA
ENCODING 3786
SWIDTH 0 0
DWIDTH 0 0
BBX 8 4 0 9
BITMAP
6C
92
C3
C6
ENDCHAR
STARTCHAR 0x0ECB
ENCODING 3787
SWIDTH 0 0
DWIDTH 0 0
BBX 3 3 0 10
BITMAP
40
E0
40
ENDCHAR
STARTCHAR 0x0ECC
ENCODING 3788
SWIDTH 0 0
DWIDTH 0 0
BBX 6 4 0 10
BITMAP
04
78
A0
40
ENDCHAR
STARTCHAR 0x0ECD
ENCODING 3789
SWIDTH 0 0
DWIDTH 0 0
BBX 3 4 0 10
BITMAP
40
A0
A0
40
ENDCHAR
STARTCHAR 0x0ED0
ENCODING 3792
SWIDTH 480 0
DWIDTH 8 0
BBX 7 9 1 0
BITMAP
38
44
82
82
82
82
82
44
38
ENDCHAR
STARTCHAR 0x0ED1
ENCODING 3793
SWIDTH 540 0
DWIDTH 9 0
BBX 8 10 1 -1
BITMAP
3C
42
81
81
91
A9
72
02
1C
20
ENDCHAR
STARTCHAR 0x0ED2
ENCODING 3794
SWIDTH 480 0
DWIDTH 8 0
BBX 7 13 1 0
BITMAP
02
02
02
04
18
20
40
80
8C
96
8A
42
3C
ENDCHAR
STARTCHAR 0x0ED3
ENCODING 3795
SWIDTH 480 0
DWIDTH 8 0
BBX 7 13 1 0
BITMAP
02
3C
30
0C
22
52
52
52
52
52
62
B2
6C
ENDCHAR
STARTCHAR 0x0ED4
ENCODING 3796
SWIDTH 540 0
DWIDTH 9 0
BBX 8 13 1 0
BITMAP
01
01
7E
80
82
85
86
84
84
84
84
84
7B
ENDCHAR
STARTCHAR 0x0ED5
ENCODING 3797
SWIDTH 540 0
DWIDTH 9 0
BBX 8 13 1 0
BITMAP
11
29
3E
40
82
85
86
84
84
84
84
84
7B
ENDCHAR
STARTCHAR 0x0ED6
ENCODING 3798
SWIDTH 480 0
DWIDTH 8 0
BBX 7 13 1 0
BITMAP
02
3C
30
0C
42
A2
C2
82
82
82
92
92
6C
ENDCHAR
STARTCHAR 0x0ED7
ENCODING 3799
SWIDTH 480 0
DWIDTH 8 0
BBX 7 13 1 -4
BITMAP
CC
B2
62
22
22
22
62
A2
42
02
02
02
02
ENDCHAR
STARTCHAR 0x0ED8
ENCODING 3800
SWIDTH 540 0
DWIDTH 9 0
BBX 9 13 1 -4
BITMAP
CC00
B200
6200
2200
2200
2200
6200
A200
4200
0F80
1300
1680
0900
ENDCHAR
STARTCHAR 0x0ED9
ENCODING 3801
SWIDTH 600 0
DWIDTH 10 0
BBX 9 9 1 0
BITMAP
7080
8880
8880
8880
8880
8880
C880
A880
4700
ENDCHAR
STARTCHAR 0x0EDC
ENCODING 3804
SWIDTH 960 0
DWIDTH 16 0
BBX 15 9 1 0
BITMAP
4DC2
AB22
6622
4222
8222
8222
8222
C622
7CDC
ENDCHAR
STARTCHAR 0x0EDD
ENCODING 3805
SWIDTH 960 0
DWIDTH 16 0
BBX 15 9 1 0
BITMAP
4DC2
AA22
6622
4222
8222
8222
8262
C6B6
7C4C
ENDCHAR
STARTCHAR 0x10A0
ENCODING 4256
SWIDTH 480 0
DWIDTH 8 0
BBX 7 11 1 0
BITMAP
DC
66
00
E0
40
40
40
78
04
04
0E
ENDCHAR
STARTCHAR 0x10A1
ENCODING 4257
SWIDTH 660 0
DWIDTH 11 0
BBX 10 11 1 0
BITMAP
EE00
4400
4400
4400
3C00
0400
0400
0F00
0080
0080
01C0
ENDCHAR
STARTCHAR 0x10A2
ENCODING 4258
SWIDTH 660 0
DWIDTH 11 0
BBX 11 11 1 0
BITMAP
FE00
4400
4400
E400
0400
0400
0E00
0100
0380
0040
00E0
ENDCHAR
STARTCHAR 0x10A3
ENCODING 4259
SWIDTH 480 0
DWIDTH 8 0
BBX 7 11 1 0
BITMAP
FE
92
10
10
38
44
82
82
82
44
38
ENDCHAR
STARTCHAR 0x10A4
ENCODING 4260
SWIDTH 480 0
DWIDTH 8 0
BBX 7 11 1 0
BITMAP
FE
44
44
E4
04
04
04
04
04
04
0E
ENDCHAR
STARTCHAR 0x10A5
ENCODING 4261
SWIDTH 720 0
DWIDTH 12 0
BBX 11 11 1 0
BITMAP
FE00
4400
4400
E400
0400
07C0
0440
04E0
0400
0400
0E00
ENDCHAR
STARTCHAR 0x10A6
ENCODING 4262
SWIDTH 600 0
DWIDTH 10 0
BBX 9 11 1 0
BITMAP
E000
4000
3C00
0800
0800
0F00
0880
0880
0880
0880
0700
ENDCHAR
STARTCHAR 0x10A7
ENCODING 4263
SWIDTH 720 0
DWIDTH 12 0
BBX 11 11 1 0
BITMAP
1E00
6400
4400
8400
8580
8640
8440
84E0
4400
6400
1E00
ENDCHAR
STARTCHAR 0x10A8
ENCODING 4264
SWIDTH 420 0
DWIDTH 7 0
BBX 6 11 1 0
BITMAP
E0
40
3C
08
08
08
08
08
08
08
1C
ENDCHAR
STARTCHAR 0x10A9
ENCODING 4265
SWIDTH 480 0
DWIDTH 8 0
BBX 7 11 1 0
BITMAP
E0
40
40
40
78
44
44
3C
04
04
0E
ENDCHAR
STARTCHAR 0x10AA
ENCODING 4266
SWIDTH 600 0
DWIDTH 10 0
BBX 9 11 1 0
BITMAP
FC00
4800
4800
4800
4800
E800
0F00
0880
0880
0880
0700
ENDCHAR
STARTCHAR 0x10AB
ENCODING 4267
SWIDTH 600 0
DWIDTH 10 0
BBX 10 11 1 0
BITMAP
E000
4000
3C00
0800
0800
0800
7F80
8880
8880
8880
71C0
ENDCHAR
STARTCHAR 0x10AC
ENCODING 4268
SWIDTH 480 0
DWIDTH 8 0
BBX 7 11 1 0
BITMAP
FC
44
44
4E
40
78
44
44
44
44
EE
ENDCHAR
STARTCHAR 0x10AD
ENCODING 4269
SWIDTH 660 0
DWIDTH 11 0
BBX 11 11 1 0
BITMAP
1000
6C00
4400
8200
8200
8200
8200
82E0
4440
6C40
1380
ENDCHAR
STARTCHAR 0x10AE
ENCODING 4270
SWIDTH 660 0
DWIDTH 11 0
BBX 10 11 1 0
BITMAP
E000
4000
4000
3DC0
0880
0880
0880
0880
0880
0880
0700
ENDCHAR
STARTCHAR 0x10AF
ENCODING 4271
SWIDTH 540 0
DWIDTH 9 0
BBX 8 11 1 0
BITMAP
E7
42
42
32
22
1E
02
02
02
02
07
ENDCHAR
STARTCHAR 0x10B0
ENCODING 4272
SWIDTH 600 0
DWIDTH 10 0
BBX 9 11 1 0
BITMAP
1C00
0800
0800
0800
0800
2E00
4900
8900
8B80
8800
7000
ENDCHAR
STARTCHAR 0x10B1
ENCODING 4273
SWIDTH 360 0
DWIDTH 6 0
BBX 6 11 1 0
BITMAP
E0
40
40
40
40
50
48
44
44
44
38
ENDCHAR
STARTCHAR 0x10B2
ENCODING 4274
SWIDTH 420 0
DWIDTH 7 0
BBX 6 11 1 0
BITMAP
F8
44
44
44
78
40
40
F0
08
08
1C
ENDCHAR
STARTCHAR 0x10B3
ENCODING 4275
SWIDTH 660 0
DWIDTH 11 0
BBX 11 11 1 0
BITMAP
1000
6C00
4400
8200
8200
8200
8200
8380
4440
6C40
10E0
ENDCHAR
STARTCHAR 0x10B4
ENCODING 4276
SWIDTH 600 0
DWIDTH 10 0
BBX 9 11 1 0
BITMAP
7F00
8880
8880
8880
7F00
0800
0800
0800
0800
0800
1C00
ENDCHAR
STARTCHAR 0x10B5
ENCODING 4277
SWIDTH 600 0
DWIDTH 10 0
BBX 9 11 1 0
BITMAP
1C00
0800
0800
EA00
4D00
5900
2B80
0800
0800
0800
1C00
ENDCHAR
STARTCHAR 0x10B6
ENCODING 4278
SWIDTH 480 0
DWIDTH 8 0
BBX 7 11 1 0
BITMAP
38
44
44
44
44
44
44
44
44
44
EE
ENDCHAR
STARTCHAR 0x10B7
ENCODING 4279
SWIDTH 480 0
DWIDTH 8 0
BBX 7 11 1 0
BITMAP
EE
44
44
44
3C
04
04
04
04
04
0E
ENDCHAR
STARTCHAR 0x10B8
ENCODING 4280
SWIDTH 480 0
DWIDTH 8 0
BBX 7 11 1 0
BITMAP
EE
44
44
44
3C
04
04
64
44
44
38
ENDCHAR
STARTCHAR 0x10B9
ENCODING 4281
SWIDTH 480 0
DWIDTH 8 0
BBX 7 11 1 0
BITMAP
E0
40
40
58
64
44
4E
40
40
40
E0
ENDCHAR
STARTCHAR 0x10BA
ENCODING 4282
SWIDTH 720 0
DWIDTH 12 0
BBX 11 11 1 0
BITMAP
1C00
6200
4200
8700
8000
8000
87C0
8240
4240
62E0
1C00
ENDCHAR
STARTCHAR 0x10BB
ENCODING 4283
SWIDTH 600 0
DWIDTH 10 0
BBX 10 11 1 0
BITMAP
1C00
0800
0800
0800
0800
0800
7F80
8880
8880
8880
71C0
ENDCHAR
STARTCHAR 0x10BC
ENCODING 4284
SWIDTH 480 0
DWIDTH 8 0
BBX 7 11 1 0
BITMAP
F8
44
44
78
40
78
44
44
4E
40
E0
ENDCHAR
STARTCHAR 0x10BD
ENCODING 4285
SWIDTH 540 0
DWIDTH 9 0
BBX 8 11 1 0
BITMAP
FE
42
42
47
40
7C
02
E1
41
42
3C
ENDCHAR
STARTCHAR 0x10BE
ENCODING 4286
SWIDTH 480 0
DWIDTH 8 0
BBX 7 11 1 0
BITMAP
EE
44
44
4C
70
40
40
40
78
04
0E
ENDCHAR
STARTCHAR 0x10BF
ENCODING 4287
SWIDTH 600 0
DWIDTH 10 0
BBX 9 11 1 0
BITMAP
E000
4000
4000
3F00
0880
0880
0F00
3800
4800
4800
FC00
ENDCHAR
STARTCHAR 0x10C0
ENCODING 4288
SWIDTH 600 0
DWIDTH 10 0
BBX 9 11 1 0
BITMAP
FC00
4800
4800
4800
4800
E800
0B00
0880
0880
0880
0700
ENDCHAR
STARTCHAR 0x10C1
ENCODING 4289
SWIDTH 480 0
DWIDTH 8 0
BBX 7 11 1 0
BITMAP
FE
42
40
58
64
44
4E
40
40
40
E0
ENDCHAR
STARTCHAR 0x10C2
ENCODING 4290
SWIDTH 540 0
DWIDTH 9 0
BBX 8 11 1 0
BITMAP
70
20
20
10
0C
02
01
E1
41
42
3C
ENDCHAR
STARTCHAR 0x10C3
ENCODING 4291
SWIDTH 480 0
DWIDTH 8 0
BBX 7 11 1 0
BITMAP
0E
04
04
E4
44
44
44
3C
04
04
0E
ENDCHAR
STARTCHAR 0x10C4
ENCODING 4292
SWIDTH 480 0
DWIDTH 8 0
BBX 7 11 1 0
BITMAP
EE
44
44
44
44
FE
10
10
10
10
38
ENDCHAR
STARTCHAR 0x10C5
ENCODING 4293
SWIDTH 660 0
DWIDTH 11 0
BBX 10 11 1 0
BITMAP
1F00
0880
0880
0F00
0800
0800
7F80
8880
8880
8880
71C0
ENDCHAR
STARTCHAR 0x10D0
ENCODING 4304
SWIDTH 420 0
DWIDTH 7 0
BBX 6 7 1 0
BITMAP
20
20
18
04
84
84
78
ENDCHAR
STARTCHAR 0x10D1
ENCODING 4305
SWIDTH 420 0
DWIDTH 7 0
BBX 6 12 1 0
BITMAP
80
E0
10
10
10
30
48
84
84
84
84
78
ENDCHAR
STARTCHAR 0x10D2
ENCODING 4306
SWIDTH 480 0
DWIDTH 8 0
BBX 7 11 1 -4
BITMAP
30
48
48
08
38
44
82
82
82
44
38
ENDCHAR
STARTCHAR 0x10D3
ENCODING 4307
SWIDTH 600 0
DWIDTH 10 0
BBX 9 10 1 -3
BITMAP
7700
8880
8880
8880
8880
4700
2000
D800
8400
0200
ENDCHAR
STARTCHAR 0x10D4
ENCODING 4308
SWIDTH 360 0
DWIDTH 6 0
BBX 5 11 1 -4
BITMAP
70
88
C8
08
08
08
48
88
88
88
70
ENDCHAR
STARTCHAR 0x10D5
ENCODING 4309
SWIDTH 360 0
DWIDTH 6 0
BBX 5 11 1 -4
BITMAP
70
88
C8
08
30
08
48
88
88
88
70
ENDCHAR
STARTCHAR 0x10D6
ENCODING 4310
SWIDTH 540 0
DWIDTH 9 0
BBX 8 12 0 0
BITMAP
60
90
90
92
74
1C
1A
11
11
11
11
0E
ENDCHAR
STARTCHAR 0x10D7
ENCODING 4311
SWIDTH 660 0
DWIDTH 11 0
BBX 10 7 1 0
BITMAP
3300
4C80
8440
8440
8440
4880
3100
ENDCHAR
STARTCHAR 0x10D8
ENCODING 4312
SWIDTH 420 0
DWIDTH 7 0
BBX 6 7 1 0
BITMAP
70
88
84
84
84
84
48
ENDCHAR
STARTCHAR 0x10D9
ENCODING 4313
SWIDTH 360 0
DWIDTH 6 0
BBX 5 11 1 -4
BITMAP
10
08
08
08
30
08
C8
88
88
88
70
ENDCHAR
ENDFONT
